<?xml version="1.0" encoding="utf-8" standalone="no"?>
<!DOCTYPE svg PUBLIC "-//W3C//DTD SVG 1.1//EN"
  "http://www.w3.org/Graphics/SVG/1.1/DTD/svg11.dtd">
<svg xmlns:xlink="http://www.w3.org/1999/xlink" width="360pt" height="360pt" viewBox="0 0 360 360" xmlns="http://www.w3.org/2000/svg" version="1.1">
 <metadata>
  <rdf:RDF xmlns:dc="http://purl.org/dc/elements/1.1/" xmlns:cc="http://creativecommons.org/ns#" xmlns:rdf="http://www.w3.org/1999/02/22-rdf-syntax-ns#">
   <cc:Work>
    <dc:type rdf:resource="http://purl.org/dc/dcmitype/StillImage"/>
    <dc:date>2026-02-12T11:22:50.112463</dc:date>
    <dc:format>image/svg+xml</dc:format>
    <dc:creator>
     <cc:Agent>
      <dc:title>Matplotlib v3.10.8, https://matplotlib.org/</dc:title>
     </cc:Agent>
    </dc:creator>
   </cc:Work>
  </rdf:RDF>
 </metadata>
 <defs>
  <style type="text/css">*{stroke-linejoin: round; stroke-linecap: butt}</style>
 </defs>
 <g id="figure_1">
  <g id="patch_1">
   <path d="M 0 360 
L 360 360 
L 360 0 
L 0 0 
z
" style="fill: #ffffff"/>
  </g>
  <g id="axes_1">
   <g id="patch_2">
    <path d="M 46.07 155.17 
L 184.580567 155.17 
L 184.580567 18.6 
L 46.07 18.6 
z
" style="fill: #ffffff"/>
   </g>
   <g id="matplotlib.axis_1">
    <g id="xtick_1">
     <g id="line2d_1">
      <defs>
       <path id="m5e8b0a45e4" d="M 0 0 
L 0 3.5 
" style="stroke: #000000; stroke-width: 0.8"/>
      </defs>
      <g>
       <use xlink:href="#m5e8b0a45e4" x="46.07" y="155.17" style="stroke: #000000; stroke-width: 0.8"/>
      </g>
     </g>
    </g>
    <g id="xtick_2">
     <g id="line2d_2">
      <g>
       <use xlink:href="#m5e8b0a45e4" x="80.697642" y="155.17" style="stroke: #000000; stroke-width: 0.8"/>
      </g>
     </g>
    </g>
    <g id="xtick_3">
     <g id="line2d_3">
      <g>
       <use xlink:href="#m5e8b0a45e4" x="115.325284" y="155.17" style="stroke: #000000; stroke-width: 0.8"/>
      </g>
     </g>
    </g>
    <g id="xtick_4">
     <g id="line2d_4">
      <g>
       <use xlink:href="#m5e8b0a45e4" x="149.952925" y="155.17" style="stroke: #000000; stroke-width: 0.8"/>
      </g>
     </g>
    </g>
    <g id="xtick_5">
     <g id="line2d_5">
      <g>
       <use xlink:href="#m5e8b0a45e4" x="184.580567" y="155.17" style="stroke: #000000; stroke-width: 0.8"/>
      </g>
     </g>
    </g>
   </g>
   <g id="patch_3">
    <path d="M 46.07 155.17 
L 184.580567 155.17 
" style="fill: none; stroke: #000000; stroke-width: 0.8; stroke-linejoin: miter; stroke-linecap: square"/>
   </g>
   <g id="text_1">
    <!-- r = 1.00  -->
    <g transform="translate(59.921057 32.257) scale(0.1 -0.1)">
     <defs>
      <path id="DejaVuSans-72" d="M 2631 2963 
Q 2534 3019 2420 3045 
Q 2306 3072 2169 3072 
Q 1681 3072 1420 2755 
Q 1159 2438 1159 1844 
L 1159 0 
L 581 0 
L 581 3500 
L 1159 3500 
L 1159 2956 
Q 1341 3275 1631 3429 
Q 1922 3584 2338 3584 
Q 2397 3584 2469 3576 
Q 2541 3569 2628 3553 
L 2631 2963 
z
" transform="scale(0.015625)"/>
      <path id="DejaVuSans-20" transform="scale(0.015625)"/>
      <path id="DejaVuSans-3d" d="M 678 2906 
L 4684 2906 
L 4684 2381 
L 678 2381 
L 678 2906 
z
M 678 1631 
L 4684 1631 
L 4684 1100 
L 678 1100 
L 678 1631 
z
" transform="scale(0.015625)"/>
      <path id="DejaVuSans-31" d="M 794 531 
L 1825 531 
L 1825 4091 
L 703 3866 
L 703 4441 
L 1819 4666 
L 2450 4666 
L 2450 531 
L 3481 531 
L 3481 0 
L 794 0 
L 794 531 
z
" transform="scale(0.015625)"/>
      <path id="DejaVuSans-2e" d="M 684 794 
L 1344 794 
L 1344 0 
L 684 0 
L 684 794 
z
" transform="scale(0.015625)"/>
      <path id="DejaVuSans-30" d="M 2034 4250 
Q 1547 4250 1301 3770 
Q 1056 3291 1056 2328 
Q 1056 1369 1301 889 
Q 1547 409 2034 409 
Q 2525 409 2770 889 
Q 3016 1369 3016 2328 
Q 3016 3291 2770 3770 
Q 2525 4250 2034 4250 
z
M 2034 4750 
Q 2819 4750 3233 4129 
Q 3647 3509 3647 2328 
Q 3647 1150 3233 529 
Q 2819 -91 2034 -91 
Q 1250 -91 836 529 
Q 422 1150 422 2328 
Q 422 3509 836 4129 
Q 1250 4750 2034 4750 
z
" transform="scale(0.015625)"/>
     </defs>
     <use xlink:href="#DejaVuSans-72"/>
     <use xlink:href="#DejaVuSans-20" transform="translate(41.113281 0)"/>
     <use xlink:href="#DejaVuSans-3d" transform="translate(72.900391 0)"/>
     <use xlink:href="#DejaVuSans-20" transform="translate(156.689453 0)"/>
     <use xlink:href="#DejaVuSans-31" transform="translate(188.476562 0)"/>
     <use xlink:href="#DejaVuSans-2e" transform="translate(252.099609 0)"/>
     <use xlink:href="#DejaVuSans-30" transform="translate(283.886719 0)"/>
     <use xlink:href="#DejaVuSans-30" transform="translate(347.509766 0)"/>
     <use xlink:href="#DejaVuSans-20" transform="translate(411.132812 0)"/>
    </g>
   </g>
   <g id="text_2">
    <!-- p = 0.000 -->
    <g transform="translate(115.325284 32.257) scale(0.1 -0.1)">
     <defs>
      <path id="DejaVuSans-70" d="M 1159 525 
L 1159 -1331 
L 581 -1331 
L 581 3500 
L 1159 3500 
L 1159 2969 
Q 1341 3281 1617 3432 
Q 1894 3584 2278 3584 
Q 2916 3584 3314 3078 
Q 3713 2572 3713 1747 
Q 3713 922 3314 415 
Q 2916 -91 2278 -91 
Q 1894 -91 1617 61 
Q 1341 213 1159 525 
z
M 3116 1747 
Q 3116 2381 2855 2742 
Q 2594 3103 2138 3103 
Q 1681 3103 1420 2742 
Q 1159 2381 1159 1747 
Q 1159 1113 1420 752 
Q 1681 391 2138 391 
Q 2594 391 2855 752 
Q 3116 1113 3116 1747 
z
" transform="scale(0.015625)"/>
     </defs>
     <use xlink:href="#DejaVuSans-70"/>
     <use xlink:href="#DejaVuSans-20" transform="translate(63.476562 0)"/>
     <use xlink:href="#DejaVuSans-3d" transform="translate(95.263672 0)"/>
     <use xlink:href="#DejaVuSans-20" transform="translate(179.052734 0)"/>
     <use xlink:href="#DejaVuSans-30" transform="translate(210.839844 0)"/>
     <use xlink:href="#DejaVuSans-2e" transform="translate(274.462891 0)"/>
     <use xlink:href="#DejaVuSans-30" transform="translate(306.25 0)"/>
     <use xlink:href="#DejaVuSans-30" transform="translate(369.873047 0)"/>
     <use xlink:href="#DejaVuSans-30" transform="translate(433.496094 0)"/>
    </g>
   </g>
  </g>
  <g id="axes_2">
   <g id="patch_4">
    <path d="M 46.07 310.24 
L 184.580567 310.24 
L 184.580567 173.67 
L 46.07 173.67 
z
" style="fill: #ffffff"/>
   </g>
   <g id="PathCollection_1">
    <defs>
     <path id="ma698550c09" d="M 0 3 
C 0.795609 3 1.55874 2.683901 2.12132 2.12132 
C 2.683901 1.55874 3 0.795609 3 0 
C 3 -0.795609 2.683901 -1.55874 2.12132 -2.12132 
C 1.55874 -2.683901 0.795609 -3 0 -3 
C -0.795609 -3 -1.55874 -2.683901 -2.12132 -2.12132 
C -2.683901 -1.55874 -3 -0.795609 -3 0 
C -3 0.795609 -2.683901 1.55874 -2.12132 2.12132 
C -1.55874 2.683901 -0.795609 3 0 3 
z
" style="stroke: #1f77b4; stroke-opacity: 0.8"/>
    </defs>
    <g clip-path="url(#p5e58ebe7ed)">
     <use xlink:href="#ma698550c09" x="74.481438" y="216.120272" style="fill: #1f77b4; fill-opacity: 0.8; stroke: #1f77b4; stroke-opacity: 0.8"/>
     <use xlink:href="#ma698550c09" x="68.69308" y="267.855085" style="fill: #1f77b4; fill-opacity: 0.8; stroke: #1f77b4; stroke-opacity: 0.8"/>
     <use xlink:href="#ma698550c09" x="69.170183" y="282.181053" style="fill: #1f77b4; fill-opacity: 0.8; stroke: #1f77b4; stroke-opacity: 0.8"/>
     <use xlink:href="#ma698550c09" x="65.004104" y="273.784823" style="fill: #1f77b4; fill-opacity: 0.8; stroke: #1f77b4; stroke-opacity: 0.8"/>
     <use xlink:href="#ma698550c09" x="69.248176" y="277.532059" style="fill: #1f77b4; fill-opacity: 0.8; stroke: #1f77b4; stroke-opacity: 0.8"/>
     <use xlink:href="#ma698550c09" x="73.799117" y="262.692627" style="fill: #1f77b4; fill-opacity: 0.8; stroke: #1f77b4; stroke-opacity: 0.8"/>
     <use xlink:href="#ma698550c09" x="76.622795" y="272.814595" style="fill: #1f77b4; fill-opacity: 0.8; stroke: #1f77b4; stroke-opacity: 0.8"/>
    </g>
   </g>
   <g id="FillBetweenPolyCollection_1">
    <path d="M 65.004104 267.562959 
L 65.004104 311.42308 
L 65.121465 310.569952 
L 65.238825 309.716839 
L 65.356186 308.699421 
L 65.473545 307.538711 
L 65.590907 306.377981 
L 65.708266 305.217271 
L 65.825627 304.056541 
L 65.942989 303.108119 
L 66.060348 302.180521 
L 66.17771 301.252908 
L 66.295069 300.324277 
L 66.41243 299.15138 
L 66.529792 297.979708 
L 66.647151 296.817175 
L 66.764512 295.654622 
L 66.881872 294.490521 
L 66.999233 293.323756 
L 67.116594 292.595363 
L 67.233954 291.890437 
L 67.351315 291.100933 
L 67.468674 289.884653 
L 67.586036 288.947843 
L 67.703397 287.868342 
L 67.820756 286.781974 
L 67.938118 286.301212 
L 68.055477 285.817412 
L 68.172838 284.59513 
L 68.290198 283.366153 
L 68.407559 282.578161 
L 68.52492 281.943354 
L 68.64228 281.514771 
L 68.759641 280.845558 
L 68.877 280.250769 
L 68.994362 279.622253 
L 69.111721 279.297611 
L 69.229082 279.076352 
L 69.346444 279.054873 
L 69.463803 278.912559 
L 69.581164 278.409234 
L 69.698524 278.204196 
L 69.815885 277.760603 
L 69.933246 277.612112 
L 70.050606 277.545385 
L 70.167967 277.249076 
L 70.285326 276.986275 
L 70.402688 276.877609 
L 70.520049 276.725453 
L 70.637408 276.710739 
L 70.75477 276.781401 
L 70.872129 276.78785 
L 70.98949 276.64045 
L 71.106852 276.49305 
L 71.224211 276.450448 
L 71.341572 276.544283 
L 71.458932 276.572521 
L 71.576293 276.434612 
L 71.693654 276.296702 
L 71.811014 276.310483 
L 71.928373 276.360103 
L 72.045734 276.319498 
L 72.163096 276.297373 
L 72.280455 276.290959 
L 72.397816 276.284545 
L 72.515176 276.278131 
L 72.632537 276.271717 
L 72.749898 276.263872 
L 72.867258 276.211781 
L 72.984619 276.129582 
L 73.101978 276.102292 
L 73.21934 276.017716 
L 73.336701 275.909338 
L 73.45406 275.802116 
L 73.571422 275.719271 
L 73.688781 275.659087 
L 73.806143 275.653789 
L 73.923504 275.64962 
L 74.040863 275.660293 
L 74.158222 275.642713 
L 74.275584 275.641618 
L 74.392945 275.640523 
L 74.510307 275.639428 
L 74.627666 275.638333 
L 74.745025 275.637238 
L 74.862387 275.636143 
L 74.979748 275.633857 
L 75.097109 275.631268 
L 75.214469 275.628678 
L 75.331828 275.626089 
L 75.449189 275.623499 
L 75.566551 275.62091 
L 75.683912 275.61832 
L 75.801271 275.615731 
L 75.918631 275.613141 
L 76.035992 275.610552 
L 76.153353 275.607962 
L 76.270713 275.605373 
L 76.388074 275.602783 
L 76.505433 275.600194 
L 76.622795 275.597604 
L 76.622795 206.601297 
L 76.622795 206.601297 
L 76.505433 207.374045 
L 76.388074 208.146913 
L 76.270713 208.919793 
L 76.153353 209.692661 
L 76.035992 210.465541 
L 75.918631 211.238422 
L 75.801271 212.011289 
L 75.683912 212.784157 
L 75.566551 213.557037 
L 75.449189 214.329918 
L 75.331828 215.102799 
L 75.214469 215.926621 
L 75.097109 216.82682 
L 74.979748 217.662057 
L 74.862387 218.380079 
L 74.745025 219.0981 
L 74.627666 219.816109 
L 74.510307 220.491464 
L 74.392945 221.260994 
L 74.275584 222.030524 
L 74.158222 222.800054 
L 74.040863 223.56957 
L 73.923504 224.339087 
L 73.806143 225.364044 
L 73.688781 226.432324 
L 73.571422 227.6052 
L 73.45406 228.823422 
L 73.336701 230.057656 
L 73.21934 231.284349 
L 73.101978 232.231147 
L 72.984619 233.095579 
L 72.867258 233.931776 
L 72.749898 234.899487 
L 72.632537 235.806259 
L 72.515176 236.636421 
L 72.397816 237.387645 
L 72.280455 238.155041 
L 72.163096 239.000183 
L 72.045734 239.845341 
L 71.928373 240.690498 
L 71.811014 241.535641 
L 71.693654 242.380784 
L 71.576293 243.225941 
L 71.458932 244.071099 
L 71.341572 244.916241 
L 71.224211 245.761399 
L 71.106852 246.605348 
L 70.98949 247.448666 
L 70.872129 248.296857 
L 70.75477 248.863177 
L 70.637408 249.416354 
L 70.520049 249.973694 
L 70.402688 250.535354 
L 70.285326 251.099512 
L 70.167967 251.664773 
L 70.050606 252.402193 
L 69.933246 253.218558 
L 69.815885 253.974753 
L 69.698524 254.196065 
L 69.581164 254.529907 
L 69.463803 255.190357 
L 69.346444 255.881464 
L 69.229082 256.42425 
L 69.111721 256.867617 
L 68.994362 257.468031 
L 68.877 258.089095 
L 68.759641 258.682985 
L 68.64228 258.983641 
L 68.52492 259.737205 
L 68.407559 260.221031 
L 68.290198 260.552981 
L 68.172838 260.948188 
L 68.055477 261.57455 
L 67.938118 262.299025 
L 67.820756 262.86589 
L 67.703397 263.330087 
L 67.586036 263.793387 
L 67.468674 264.251829 
L 67.351315 264.528141 
L 67.233954 264.672259 
L 67.116594 264.707598 
L 66.999233 265.167113 
L 66.881872 265.460519 
L 66.764512 265.693006 
L 66.647151 265.978569 
L 66.529792 266.151079 
L 66.41243 266.374634 
L 66.295069 266.478479 
L 66.17771 266.583391 
L 66.060348 266.661741 
L 65.942989 266.778012 
L 65.825627 266.81431 
L 65.708266 266.972322 
L 65.590907 267.069475 
L 65.473545 267.166631 
L 65.356186 267.269089 
L 65.238825 267.367046 
L 65.121465 267.465002 
L 65.004104 267.562959 
z
" clip-path="url(#p5e58ebe7ed)" style="fill: #008000; fill-opacity: 0.15"/>
   </g>
   <g id="matplotlib.axis_2">
    <g id="xtick_6">
     <g id="line2d_6">
      <g>
       <use xlink:href="#m5e8b0a45e4" x="46.07" y="310.24" style="stroke: #000000; stroke-width: 0.8"/>
      </g>
     </g>
     <g id="text_3">
      <!-- 0 -->
      <g transform="translate(42.88875 324.838438) scale(0.1 -0.1)">
       <use xlink:href="#DejaVuSans-30"/>
      </g>
     </g>
    </g>
    <g id="xtick_7">
     <g id="line2d_7">
      <g>
       <use xlink:href="#m5e8b0a45e4" x="80.697642" y="310.24" style="stroke: #000000; stroke-width: 0.8"/>
      </g>
     </g>
     <g id="text_4">
      <!-- 2 -->
      <g transform="translate(77.516392 324.838438) scale(0.1 -0.1)">
       <defs>
        <path id="DejaVuSans-32" d="M 1228 531 
L 3431 531 
L 3431 0 
L 469 0 
L 469 531 
Q 828 903 1448 1529 
Q 2069 2156 2228 2338 
Q 2531 2678 2651 2914 
Q 2772 3150 2772 3378 
Q 2772 3750 2511 3984 
Q 2250 4219 1831 4219 
Q 1534 4219 1204 4116 
Q 875 4013 500 3803 
L 500 4441 
Q 881 4594 1212 4672 
Q 1544 4750 1819 4750 
Q 2544 4750 2975 4387 
Q 3406 4025 3406 3419 
Q 3406 3131 3298 2873 
Q 3191 2616 2906 2266 
Q 2828 2175 2409 1742 
Q 1991 1309 1228 531 
z
" transform="scale(0.015625)"/>
       </defs>
       <use xlink:href="#DejaVuSans-32"/>
      </g>
     </g>
    </g>
    <g id="xtick_8">
     <g id="line2d_8">
      <g>
       <use xlink:href="#m5e8b0a45e4" x="115.325284" y="310.24" style="stroke: #000000; stroke-width: 0.8"/>
      </g>
     </g>
     <g id="text_5">
      <!-- 4 -->
      <g transform="translate(112.144034 324.838438) scale(0.1 -0.1)">
       <defs>
        <path id="DejaVuSans-34" d="M 2419 4116 
L 825 1625 
L 2419 1625 
L 2419 4116 
z
M 2253 4666 
L 3047 4666 
L 3047 1625 
L 3713 1625 
L 3713 1100 
L 3047 1100 
L 3047 0 
L 2419 0 
L 2419 1100 
L 313 1100 
L 313 1709 
L 2253 4666 
z
" transform="scale(0.015625)"/>
       </defs>
       <use xlink:href="#DejaVuSans-34"/>
      </g>
     </g>
    </g>
    <g id="xtick_9">
     <g id="line2d_9">
      <g>
       <use xlink:href="#m5e8b0a45e4" x="149.952925" y="310.24" style="stroke: #000000; stroke-width: 0.8"/>
      </g>
     </g>
     <g id="text_6">
      <!-- 6 -->
      <g transform="translate(146.771675 324.838438) scale(0.1 -0.1)">
       <defs>
        <path id="DejaVuSans-36" d="M 2113 2584 
Q 1688 2584 1439 2293 
Q 1191 2003 1191 1497 
Q 1191 994 1439 701 
Q 1688 409 2113 409 
Q 2538 409 2786 701 
Q 3034 994 3034 1497 
Q 3034 2003 2786 2293 
Q 2538 2584 2113 2584 
z
M 3366 4563 
L 3366 3988 
Q 3128 4100 2886 4159 
Q 2644 4219 2406 4219 
Q 1781 4219 1451 3797 
Q 1122 3375 1075 2522 
Q 1259 2794 1537 2939 
Q 1816 3084 2150 3084 
Q 2853 3084 3261 2657 
Q 3669 2231 3669 1497 
Q 3669 778 3244 343 
Q 2819 -91 2113 -91 
Q 1303 -91 875 529 
Q 447 1150 447 2328 
Q 447 3434 972 4092 
Q 1497 4750 2381 4750 
Q 2619 4750 2861 4703 
Q 3103 4656 3366 4563 
z
" transform="scale(0.015625)"/>
       </defs>
       <use xlink:href="#DejaVuSans-36"/>
      </g>
     </g>
    </g>
    <g id="xtick_10">
     <g id="line2d_10">
      <g>
       <use xlink:href="#m5e8b0a45e4" x="184.580567" y="310.24" style="stroke: #000000; stroke-width: 0.8"/>
      </g>
     </g>
     <g id="text_7">
      <!-- 8 -->
      <g transform="translate(181.399317 324.838438) scale(0.1 -0.1)">
       <defs>
        <path id="DejaVuSans-38" d="M 2034 2216 
Q 1584 2216 1326 1975 
Q 1069 1734 1069 1313 
Q 1069 891 1326 650 
Q 1584 409 2034 409 
Q 2484 409 2743 651 
Q 3003 894 3003 1313 
Q 3003 1734 2745 1975 
Q 2488 2216 2034 2216 
z
M 1403 2484 
Q 997 2584 770 2862 
Q 544 3141 544 3541 
Q 544 4100 942 4425 
Q 1341 4750 2034 4750 
Q 2731 4750 3128 4425 
Q 3525 4100 3525 3541 
Q 3525 3141 3298 2862 
Q 3072 2584 2669 2484 
Q 3125 2378 3379 2068 
Q 3634 1759 3634 1313 
Q 3634 634 3220 271 
Q 2806 -91 2034 -91 
Q 1263 -91 848 271 
Q 434 634 434 1313 
Q 434 1759 690 2068 
Q 947 2378 1403 2484 
z
M 1172 3481 
Q 1172 3119 1398 2916 
Q 1625 2713 2034 2713 
Q 2441 2713 2670 2916 
Q 2900 3119 2900 3481 
Q 2900 3844 2670 4047 
Q 2441 4250 2034 4250 
Q 1625 4250 1398 4047 
Q 1172 3844 1172 3481 
z
" transform="scale(0.015625)"/>
       </defs>
       <use xlink:href="#DejaVuSans-38"/>
      </g>
     </g>
    </g>
    <g id="text_8">
     <!-- inferred dec temp -->
     <g transform="translate(70.509659 338.516563) scale(0.1 -0.1)">
      <defs>
       <path id="DejaVuSans-69" d="M 603 3500 
L 1178 3500 
L 1178 0 
L 603 0 
L 603 3500 
z
M 603 4863 
L 1178 4863 
L 1178 4134 
L 603 4134 
L 603 4863 
z
" transform="scale(0.015625)"/>
       <path id="DejaVuSans-6e" d="M 3513 2113 
L 3513 0 
L 2938 0 
L 2938 2094 
Q 2938 2591 2744 2837 
Q 2550 3084 2163 3084 
Q 1697 3084 1428 2787 
Q 1159 2491 1159 1978 
L 1159 0 
L 581 0 
L 581 3500 
L 1159 3500 
L 1159 2956 
Q 1366 3272 1645 3428 
Q 1925 3584 2291 3584 
Q 2894 3584 3203 3211 
Q 3513 2838 3513 2113 
z
" transform="scale(0.015625)"/>
       <path id="DejaVuSans-66" d="M 2375 4863 
L 2375 4384 
L 1825 4384 
Q 1516 4384 1395 4259 
Q 1275 4134 1275 3809 
L 1275 3500 
L 2222 3500 
L 2222 3053 
L 1275 3053 
L 1275 0 
L 697 0 
L 697 3053 
L 147 3053 
L 147 3500 
L 697 3500 
L 697 3744 
Q 697 4328 969 4595 
Q 1241 4863 1831 4863 
L 2375 4863 
z
" transform="scale(0.015625)"/>
       <path id="DejaVuSans-65" d="M 3597 1894 
L 3597 1613 
L 953 1613 
Q 991 1019 1311 708 
Q 1631 397 2203 397 
Q 2534 397 2845 478 
Q 3156 559 3463 722 
L 3463 178 
Q 3153 47 2828 -22 
Q 2503 -91 2169 -91 
Q 1331 -91 842 396 
Q 353 884 353 1716 
Q 353 2575 817 3079 
Q 1281 3584 2069 3584 
Q 2775 3584 3186 3129 
Q 3597 2675 3597 1894 
z
M 3022 2063 
Q 3016 2534 2758 2815 
Q 2500 3097 2075 3097 
Q 1594 3097 1305 2825 
Q 1016 2553 972 2059 
L 3022 2063 
z
" transform="scale(0.015625)"/>
       <path id="DejaVuSans-64" d="M 2906 2969 
L 2906 4863 
L 3481 4863 
L 3481 0 
L 2906 0 
L 2906 525 
Q 2725 213 2448 61 
Q 2172 -91 1784 -91 
Q 1150 -91 751 415 
Q 353 922 353 1747 
Q 353 2572 751 3078 
Q 1150 3584 1784 3584 
Q 2172 3584 2448 3432 
Q 2725 3281 2906 2969 
z
M 947 1747 
Q 947 1113 1208 752 
Q 1469 391 1925 391 
Q 2381 391 2643 752 
Q 2906 1113 2906 1747 
Q 2906 2381 2643 2742 
Q 2381 3103 1925 3103 
Q 1469 3103 1208 2742 
Q 947 2381 947 1747 
z
" transform="scale(0.015625)"/>
       <path id="DejaVuSans-63" d="M 3122 3366 
L 3122 2828 
Q 2878 2963 2633 3030 
Q 2388 3097 2138 3097 
Q 1578 3097 1268 2742 
Q 959 2388 959 1747 
Q 959 1106 1268 751 
Q 1578 397 2138 397 
Q 2388 397 2633 464 
Q 2878 531 3122 666 
L 3122 134 
Q 2881 22 2623 -34 
Q 2366 -91 2075 -91 
Q 1284 -91 818 406 
Q 353 903 353 1747 
Q 353 2603 823 3093 
Q 1294 3584 2113 3584 
Q 2378 3584 2631 3529 
Q 2884 3475 3122 3366 
z
" transform="scale(0.015625)"/>
       <path id="DejaVuSans-74" d="M 1172 4494 
L 1172 3500 
L 2356 3500 
L 2356 3053 
L 1172 3053 
L 1172 1153 
Q 1172 725 1289 603 
Q 1406 481 1766 481 
L 2356 481 
L 2356 0 
L 1766 0 
Q 1100 0 847 248 
Q 594 497 594 1153 
L 594 3053 
L 172 3053 
L 172 3500 
L 594 3500 
L 594 4494 
L 1172 4494 
z
" transform="scale(0.015625)"/>
       <path id="DejaVuSans-6d" d="M 3328 2828 
Q 3544 3216 3844 3400 
Q 4144 3584 4550 3584 
Q 5097 3584 5394 3201 
Q 5691 2819 5691 2113 
L 5691 0 
L 5113 0 
L 5113 2094 
Q 5113 2597 4934 2840 
Q 4756 3084 4391 3084 
Q 3944 3084 3684 2787 
Q 3425 2491 3425 1978 
L 3425 0 
L 2847 0 
L 2847 2094 
Q 2847 2600 2669 2842 
Q 2491 3084 2119 3084 
Q 1678 3084 1418 2786 
Q 1159 2488 1159 1978 
L 1159 0 
L 581 0 
L 581 3500 
L 1159 3500 
L 1159 2956 
Q 1356 3278 1631 3431 
Q 1906 3584 2284 3584 
Q 2666 3584 2933 3390 
Q 3200 3197 3328 2828 
z
" transform="scale(0.015625)"/>
      </defs>
      <use xlink:href="#DejaVuSans-69"/>
      <use xlink:href="#DejaVuSans-6e" transform="translate(27.783203 0)"/>
      <use xlink:href="#DejaVuSans-66" transform="translate(91.162109 0)"/>
      <use xlink:href="#DejaVuSans-65" transform="translate(126.367188 0)"/>
      <use xlink:href="#DejaVuSans-72" transform="translate(187.890625 0)"/>
      <use xlink:href="#DejaVuSans-72" transform="translate(227.253906 0)"/>
      <use xlink:href="#DejaVuSans-65" transform="translate(266.117188 0)"/>
      <use xlink:href="#DejaVuSans-64" transform="translate(327.640625 0)"/>
      <use xlink:href="#DejaVuSans-20" transform="translate(391.117188 0)"/>
      <use xlink:href="#DejaVuSans-64" transform="translate(422.904297 0)"/>
      <use xlink:href="#DejaVuSans-65" transform="translate(486.380859 0)"/>
      <use xlink:href="#DejaVuSans-63" transform="translate(547.904297 0)"/>
      <use xlink:href="#DejaVuSans-20" transform="translate(602.884766 0)"/>
      <use xlink:href="#DejaVuSans-74" transform="translate(634.671875 0)"/>
      <use xlink:href="#DejaVuSans-65" transform="translate(673.880859 0)"/>
      <use xlink:href="#DejaVuSans-6d" transform="translate(735.404297 0)"/>
      <use xlink:href="#DejaVuSans-70" transform="translate(832.816406 0)"/>
     </g>
    </g>
   </g>
   <g id="matplotlib.axis_3">
    <g id="ytick_1">
     <g id="line2d_11">
      <defs>
       <path id="ma808e5b6dd" d="M 0 0 
L -3.5 0 
" style="stroke: #000000; stroke-width: 0.8"/>
      </defs>
      <g>
       <use xlink:href="#ma808e5b6dd" x="46.07" y="310.24" style="stroke: #000000; stroke-width: 0.8"/>
      </g>
     </g>
     <g id="text_9">
      <!-- 0 -->
      <g transform="translate(32.7075 314.039219) scale(0.1 -0.1)">
       <use xlink:href="#DejaVuSans-30"/>
      </g>
     </g>
    </g>
    <g id="ytick_2">
     <g id="line2d_12">
      <g>
       <use xlink:href="#ma808e5b6dd" x="46.07" y="276.0975" style="stroke: #000000; stroke-width: 0.8"/>
      </g>
     </g>
     <g id="text_10">
      <!-- 2 -->
      <g transform="translate(32.7075 279.896719) scale(0.1 -0.1)">
       <use xlink:href="#DejaVuSans-32"/>
      </g>
     </g>
    </g>
    <g id="ytick_3">
     <g id="line2d_13">
      <g>
       <use xlink:href="#ma808e5b6dd" x="46.07" y="241.955" style="stroke: #000000; stroke-width: 0.8"/>
      </g>
     </g>
     <g id="text_11">
      <!-- 4 -->
      <g transform="translate(32.7075 245.754219) scale(0.1 -0.1)">
       <use xlink:href="#DejaVuSans-34"/>
      </g>
     </g>
    </g>
    <g id="ytick_4">
     <g id="line2d_14">
      <g>
       <use xlink:href="#ma808e5b6dd" x="46.07" y="207.8125" style="stroke: #000000; stroke-width: 0.8"/>
      </g>
     </g>
     <g id="text_12">
      <!-- 6 -->
      <g transform="translate(32.7075 211.611719) scale(0.1 -0.1)">
       <use xlink:href="#DejaVuSans-36"/>
      </g>
     </g>
    </g>
    <g id="ytick_5">
     <g id="line2d_15">
      <g>
       <use xlink:href="#ma808e5b6dd" x="46.07" y="173.67" style="stroke: #000000; stroke-width: 0.8"/>
      </g>
     </g>
     <g id="text_13">
      <!-- 8 -->
      <g transform="translate(32.7075 177.469219) scale(0.1 -0.1)">
       <use xlink:href="#DejaVuSans-38"/>
      </g>
     </g>
    </g>
    <g id="text_14">
     <!-- inferred habitual tendency -->
     <g transform="translate(26.627813 308.401094) rotate(-90) scale(0.1 -0.1)">
      <defs>
       <path id="DejaVuSans-68" d="M 3513 2113 
L 3513 0 
L 2938 0 
L 2938 2094 
Q 2938 2591 2744 2837 
Q 2550 3084 2163 3084 
Q 1697 3084 1428 2787 
Q 1159 2491 1159 1978 
L 1159 0 
L 581 0 
L 581 4863 
L 1159 4863 
L 1159 2956 
Q 1366 3272 1645 3428 
Q 1925 3584 2291 3584 
Q 2894 3584 3203 3211 
Q 3513 2838 3513 2113 
z
" transform="scale(0.015625)"/>
       <path id="DejaVuSans-61" d="M 2194 1759 
Q 1497 1759 1228 1600 
Q 959 1441 959 1056 
Q 959 750 1161 570 
Q 1363 391 1709 391 
Q 2188 391 2477 730 
Q 2766 1069 2766 1631 
L 2766 1759 
L 2194 1759 
z
M 3341 1997 
L 3341 0 
L 2766 0 
L 2766 531 
Q 2569 213 2275 61 
Q 1981 -91 1556 -91 
Q 1019 -91 701 211 
Q 384 513 384 1019 
Q 384 1609 779 1909 
Q 1175 2209 1959 2209 
L 2766 2209 
L 2766 2266 
Q 2766 2663 2505 2880 
Q 2244 3097 1772 3097 
Q 1472 3097 1187 3025 
Q 903 2953 641 2809 
L 641 3341 
Q 956 3463 1253 3523 
Q 1550 3584 1831 3584 
Q 2591 3584 2966 3190 
Q 3341 2797 3341 1997 
z
" transform="scale(0.015625)"/>
       <path id="DejaVuSans-62" d="M 3116 1747 
Q 3116 2381 2855 2742 
Q 2594 3103 2138 3103 
Q 1681 3103 1420 2742 
Q 1159 2381 1159 1747 
Q 1159 1113 1420 752 
Q 1681 391 2138 391 
Q 2594 391 2855 752 
Q 3116 1113 3116 1747 
z
M 1159 2969 
Q 1341 3281 1617 3432 
Q 1894 3584 2278 3584 
Q 2916 3584 3314 3078 
Q 3713 2572 3713 1747 
Q 3713 922 3314 415 
Q 2916 -91 2278 -91 
Q 1894 -91 1617 61 
Q 1341 213 1159 525 
L 1159 0 
L 581 0 
L 581 4863 
L 1159 4863 
L 1159 2969 
z
" transform="scale(0.015625)"/>
       <path id="DejaVuSans-75" d="M 544 1381 
L 544 3500 
L 1119 3500 
L 1119 1403 
Q 1119 906 1312 657 
Q 1506 409 1894 409 
Q 2359 409 2629 706 
Q 2900 1003 2900 1516 
L 2900 3500 
L 3475 3500 
L 3475 0 
L 2900 0 
L 2900 538 
Q 2691 219 2414 64 
Q 2138 -91 1772 -91 
Q 1169 -91 856 284 
Q 544 659 544 1381 
z
M 1991 3584 
L 1991 3584 
z
" transform="scale(0.015625)"/>
       <path id="DejaVuSans-6c" d="M 603 4863 
L 1178 4863 
L 1178 0 
L 603 0 
L 603 4863 
z
" transform="scale(0.015625)"/>
       <path id="DejaVuSans-79" d="M 2059 -325 
Q 1816 -950 1584 -1140 
Q 1353 -1331 966 -1331 
L 506 -1331 
L 506 -850 
L 844 -850 
Q 1081 -850 1212 -737 
Q 1344 -625 1503 -206 
L 1606 56 
L 191 3500 
L 800 3500 
L 1894 763 
L 2988 3500 
L 3597 3500 
L 2059 -325 
z
" transform="scale(0.015625)"/>
      </defs>
      <use xlink:href="#DejaVuSans-69"/>
      <use xlink:href="#DejaVuSans-6e" transform="translate(27.783203 0)"/>
      <use xlink:href="#DejaVuSans-66" transform="translate(91.162109 0)"/>
      <use xlink:href="#DejaVuSans-65" transform="translate(126.367188 0)"/>
      <use xlink:href="#DejaVuSans-72" transform="translate(187.890625 0)"/>
      <use xlink:href="#DejaVuSans-72" transform="translate(227.253906 0)"/>
      <use xlink:href="#DejaVuSans-65" transform="translate(266.117188 0)"/>
      <use xlink:href="#DejaVuSans-64" transform="translate(327.640625 0)"/>
      <use xlink:href="#DejaVuSans-20" transform="translate(391.117188 0)"/>
      <use xlink:href="#DejaVuSans-68" transform="translate(422.904297 0)"/>
      <use xlink:href="#DejaVuSans-61" transform="translate(486.283203 0)"/>
      <use xlink:href="#DejaVuSans-62" transform="translate(547.5625 0)"/>
      <use xlink:href="#DejaVuSans-69" transform="translate(611.039062 0)"/>
      <use xlink:href="#DejaVuSans-74" transform="translate(638.822266 0)"/>
      <use xlink:href="#DejaVuSans-75" transform="translate(678.03125 0)"/>
      <use xlink:href="#DejaVuSans-61" transform="translate(741.410156 0)"/>
      <use xlink:href="#DejaVuSans-6c" transform="translate(802.689453 0)"/>
      <use xlink:href="#DejaVuSans-20" transform="translate(830.472656 0)"/>
      <use xlink:href="#DejaVuSans-74" transform="translate(862.259766 0)"/>
      <use xlink:href="#DejaVuSans-65" transform="translate(901.46875 0)"/>
      <use xlink:href="#DejaVuSans-6e" transform="translate(962.992188 0)"/>
      <use xlink:href="#DejaVuSans-64" transform="translate(1026.371094 0)"/>
      <use xlink:href="#DejaVuSans-65" transform="translate(1089.847656 0)"/>
      <use xlink:href="#DejaVuSans-6e" transform="translate(1151.371094 0)"/>
      <use xlink:href="#DejaVuSans-63" transform="translate(1214.75 0)"/>
      <use xlink:href="#DejaVuSans-79" transform="translate(1269.730469 0)"/>
     </g>
    </g>
   </g>
   <g id="line2d_16">
    <path d="M 65.004104 279.537812 
L 65.121465 279.247738 
L 65.238825 278.957669 
L 65.356186 278.667595 
L 65.473545 278.377526 
L 65.590907 278.087452 
L 65.708266 277.797383 
L 65.825627 277.507309 
L 65.942989 277.217235 
L 66.060348 276.927167 
L 66.17771 276.637093 
L 66.295069 276.347024 
L 66.41243 276.05695 
L 66.529792 275.766876 
L 66.647151 275.476807 
L 66.764512 275.186733 
L 66.881872 274.896665 
L 66.999233 274.606591 
L 67.116594 274.316517 
L 67.233954 274.026448 
L 67.351315 273.736374 
L 67.468674 273.446305 
L 67.586036 273.156231 
L 67.703397 272.866157 
L 67.820756 272.576088 
L 67.938118 272.286015 
L 68.055477 271.995946 
L 68.172838 271.705872 
L 68.290198 271.415803 
L 68.407559 271.125729 
L 68.52492 270.835655 
L 68.64228 270.545586 
L 68.759641 270.255512 
L 68.877 269.965444 
L 68.994362 269.67537 
L 69.111721 269.385301 
L 69.229082 269.095227 
L 69.346444 268.805153 
L 69.463803 268.515084 
L 69.581164 268.22501 
L 69.698524 267.934941 
L 69.815885 267.644867 
L 69.933246 267.354794 
L 70.050606 267.064725 
L 70.167967 266.774651 
L 70.285326 266.484582 
L 70.402688 266.194508 
L 70.520049 265.904434 
L 70.637408 265.614365 
L 70.75477 265.324291 
L 70.872129 265.034223 
L 70.98949 264.744149 
L 71.106852 264.454075 
L 71.224211 264.164006 
L 71.341572 263.873932 
L 71.458932 263.583863 
L 71.576293 263.293789 
L 71.693654 263.003715 
L 71.811014 262.713647 
L 71.928373 262.423578 
L 72.045734 262.133504 
L 72.163096 261.84343 
L 72.280455 261.553361 
L 72.397816 261.263287 
L 72.515176 260.973218 
L 72.632537 260.683144 
L 72.749898 260.39307 
L 72.867258 260.103002 
L 72.984619 259.812928 
L 73.101978 259.522859 
L 73.21934 259.232785 
L 73.336701 258.942711 
L 73.45406 258.652642 
L 73.571422 258.362568 
L 73.688781 258.072499 
L 73.806143 257.782426 
L 73.923504 257.492352 
L 74.040863 257.202283 
L 74.158222 256.912214 
L 74.275584 256.62214 
L 74.392945 256.332066 
L 74.510307 256.041992 
L 74.627666 255.751923 
L 74.745025 255.461855 
L 74.862387 255.171781 
L 74.979748 254.881707 
L 75.097109 254.591633 
L 75.214469 254.301564 
L 75.331828 254.011495 
L 75.449189 253.721421 
L 75.566551 253.431347 
L 75.683912 253.141273 
L 75.801271 252.851205 
L 75.918631 252.561136 
L 76.035992 252.271062 
L 76.153353 251.980988 
L 76.270713 251.690919 
L 76.388074 251.400845 
L 76.505433 251.110776 
L 76.622795 250.820702 
" clip-path="url(#p5e58ebe7ed)" style="fill: none; stroke: #008000; stroke-opacity: 0.6; stroke-width: 2.25; stroke-linecap: square"/>
   </g>
   <g id="patch_5">
    <path d="M 46.07 310.24 
L 46.07 173.67 
" style="fill: none; stroke: #000000; stroke-width: 0.8; stroke-linejoin: miter; stroke-linecap: square"/>
   </g>
   <g id="patch_6">
    <path d="M 46.07 310.24 
L 184.580567 310.24 
" style="fill: none; stroke: #000000; stroke-width: 0.8; stroke-linejoin: miter; stroke-linecap: square"/>
   </g>
   <g id="text_15">
    <!-- r = 0.45  -->
    <g transform="translate(59.921057 187.327) scale(0.1 -0.1)">
     <defs>
      <path id="DejaVuSans-35" d="M 691 4666 
L 3169 4666 
L 3169 4134 
L 1269 4134 
L 1269 2991 
Q 1406 3038 1543 3061 
Q 1681 3084 1819 3084 
Q 2600 3084 3056 2656 
Q 3513 2228 3513 1497 
Q 3513 744 3044 326 
Q 2575 -91 1722 -91 
Q 1428 -91 1123 -41 
Q 819 9 494 109 
L 494 744 
Q 775 591 1075 516 
Q 1375 441 1709 441 
Q 2250 441 2565 725 
Q 2881 1009 2881 1497 
Q 2881 1984 2565 2268 
Q 2250 2553 1709 2553 
Q 1456 2553 1204 2497 
Q 953 2441 691 2322 
L 691 4666 
z
" transform="scale(0.015625)"/>
     </defs>
     <use xlink:href="#DejaVuSans-72"/>
     <use xlink:href="#DejaVuSans-20" transform="translate(41.113281 0)"/>
     <use xlink:href="#DejaVuSans-3d" transform="translate(72.900391 0)"/>
     <use xlink:href="#DejaVuSans-20" transform="translate(156.689453 0)"/>
     <use xlink:href="#DejaVuSans-30" transform="translate(188.476562 0)"/>
     <use xlink:href="#DejaVuSans-2e" transform="translate(252.099609 0)"/>
     <use xlink:href="#DejaVuSans-34" transform="translate(283.886719 0)"/>
     <use xlink:href="#DejaVuSans-35" transform="translate(347.509766 0)"/>
     <use xlink:href="#DejaVuSans-20" transform="translate(411.132812 0)"/>
    </g>
   </g>
   <g id="text_16">
    <!-- p = 0.311 -->
    <g transform="translate(115.325284 187.327) scale(0.1 -0.1)">
     <defs>
      <path id="DejaVuSans-33" d="M 2597 2516 
Q 3050 2419 3304 2112 
Q 3559 1806 3559 1356 
Q 3559 666 3084 287 
Q 2609 -91 1734 -91 
Q 1441 -91 1130 -33 
Q 819 25 488 141 
L 488 750 
Q 750 597 1062 519 
Q 1375 441 1716 441 
Q 2309 441 2620 675 
Q 2931 909 2931 1356 
Q 2931 1769 2642 2001 
Q 2353 2234 1838 2234 
L 1294 2234 
L 1294 2753 
L 1863 2753 
Q 2328 2753 2575 2939 
Q 2822 3125 2822 3475 
Q 2822 3834 2567 4026 
Q 2313 4219 1838 4219 
Q 1578 4219 1281 4162 
Q 984 4106 628 3988 
L 628 4550 
Q 988 4650 1302 4700 
Q 1616 4750 1894 4750 
Q 2613 4750 3031 4423 
Q 3450 4097 3450 3541 
Q 3450 3153 3228 2886 
Q 3006 2619 2597 2516 
z
" transform="scale(0.015625)"/>
     </defs>
     <use xlink:href="#DejaVuSans-70"/>
     <use xlink:href="#DejaVuSans-20" transform="translate(63.476562 0)"/>
     <use xlink:href="#DejaVuSans-3d" transform="translate(95.263672 0)"/>
     <use xlink:href="#DejaVuSans-20" transform="translate(179.052734 0)"/>
     <use xlink:href="#DejaVuSans-30" transform="translate(210.839844 0)"/>
     <use xlink:href="#DejaVuSans-2e" transform="translate(274.462891 0)"/>
     <use xlink:href="#DejaVuSans-33" transform="translate(306.25 0)"/>
     <use xlink:href="#DejaVuSans-31" transform="translate(369.873047 0)"/>
     <use xlink:href="#DejaVuSans-31" transform="translate(433.496094 0)"/>
    </g>
   </g>
  </g>
  <g id="axes_3">
   <g id="patch_7">
    <path d="M 202.889433 310.24 
L 341.4 310.24 
L 341.4 173.67 
L 202.889433 173.67 
z
" style="fill: #ffffff"/>
   </g>
   <g id="matplotlib.axis_4">
    <g id="xtick_11">
     <g id="line2d_17">
      <g>
       <use xlink:href="#m5e8b0a45e4" x="202.889433" y="310.24" style="stroke: #000000; stroke-width: 0.8"/>
      </g>
     </g>
     <g id="text_17">
      <!-- 0 -->
      <g transform="translate(199.708183 324.838438) scale(0.1 -0.1)">
       <use xlink:href="#DejaVuSans-30"/>
      </g>
     </g>
    </g>
    <g id="xtick_12">
     <g id="line2d_18">
      <g>
       <use xlink:href="#m5e8b0a45e4" x="237.517075" y="310.24" style="stroke: #000000; stroke-width: 0.8"/>
      </g>
     </g>
     <g id="text_18">
      <!-- 2 -->
      <g transform="translate(234.335825 324.838438) scale(0.1 -0.1)">
       <use xlink:href="#DejaVuSans-32"/>
      </g>
     </g>
    </g>
    <g id="xtick_13">
     <g id="line2d_19">
      <g>
       <use xlink:href="#m5e8b0a45e4" x="272.144716" y="310.24" style="stroke: #000000; stroke-width: 0.8"/>
      </g>
     </g>
     <g id="text_19">
      <!-- 4 -->
      <g transform="translate(268.963466 324.838438) scale(0.1 -0.1)">
       <use xlink:href="#DejaVuSans-34"/>
      </g>
     </g>
    </g>
    <g id="xtick_14">
     <g id="line2d_20">
      <g>
       <use xlink:href="#m5e8b0a45e4" x="306.772358" y="310.24" style="stroke: #000000; stroke-width: 0.8"/>
      </g>
     </g>
     <g id="text_20">
      <!-- 6 -->
      <g transform="translate(303.591108 324.838438) scale(0.1 -0.1)">
       <use xlink:href="#DejaVuSans-36"/>
      </g>
     </g>
    </g>
    <g id="xtick_15">
     <g id="line2d_21">
      <g>
       <use xlink:href="#m5e8b0a45e4" x="341.4" y="310.24" style="stroke: #000000; stroke-width: 0.8"/>
      </g>
     </g>
     <g id="text_21">
      <!-- 8 -->
      <g transform="translate(338.21875 324.838438) scale(0.1 -0.1)">
       <use xlink:href="#DejaVuSans-38"/>
      </g>
     </g>
    </g>
    <g id="text_22">
     <!-- inferred habitual tendency -->
     <g transform="translate(205.698623 338.516563) scale(0.1 -0.1)">
      <use xlink:href="#DejaVuSans-69"/>
      <use xlink:href="#DejaVuSans-6e" transform="translate(27.783203 0)"/>
      <use xlink:href="#DejaVuSans-66" transform="translate(91.162109 0)"/>
      <use xlink:href="#DejaVuSans-65" transform="translate(126.367188 0)"/>
      <use xlink:href="#DejaVuSans-72" transform="translate(187.890625 0)"/>
      <use xlink:href="#DejaVuSans-72" transform="translate(227.253906 0)"/>
      <use xlink:href="#DejaVuSans-65" transform="translate(266.117188 0)"/>
      <use xlink:href="#DejaVuSans-64" transform="translate(327.640625 0)"/>
      <use xlink:href="#DejaVuSans-20" transform="translate(391.117188 0)"/>
      <use xlink:href="#DejaVuSans-68" transform="translate(422.904297 0)"/>
      <use xlink:href="#DejaVuSans-61" transform="translate(486.283203 0)"/>
      <use xlink:href="#DejaVuSans-62" transform="translate(547.5625 0)"/>
      <use xlink:href="#DejaVuSans-69" transform="translate(611.039062 0)"/>
      <use xlink:href="#DejaVuSans-74" transform="translate(638.822266 0)"/>
      <use xlink:href="#DejaVuSans-75" transform="translate(678.03125 0)"/>
      <use xlink:href="#DejaVuSans-61" transform="translate(741.410156 0)"/>
      <use xlink:href="#DejaVuSans-6c" transform="translate(802.689453 0)"/>
      <use xlink:href="#DejaVuSans-20" transform="translate(830.472656 0)"/>
      <use xlink:href="#DejaVuSans-74" transform="translate(862.259766 0)"/>
      <use xlink:href="#DejaVuSans-65" transform="translate(901.46875 0)"/>
      <use xlink:href="#DejaVuSans-6e" transform="translate(962.992188 0)"/>
      <use xlink:href="#DejaVuSans-64" transform="translate(1026.371094 0)"/>
      <use xlink:href="#DejaVuSans-65" transform="translate(1089.847656 0)"/>
      <use xlink:href="#DejaVuSans-6e" transform="translate(1151.371094 0)"/>
      <use xlink:href="#DejaVuSans-63" transform="translate(1214.75 0)"/>
      <use xlink:href="#DejaVuSans-79" transform="translate(1269.730469 0)"/>
     </g>
    </g>
   </g>
   <g id="patch_8">
    <path d="M 202.889433 310.24 
L 341.4 310.24 
" style="fill: none; stroke: #000000; stroke-width: 0.8; stroke-linejoin: miter; stroke-linecap: square"/>
   </g>
   <g id="text_23">
    <!-- r = 1.00  -->
    <g transform="translate(216.740489 187.327) scale(0.1 -0.1)">
     <use xlink:href="#DejaVuSans-72"/>
     <use xlink:href="#DejaVuSans-20" transform="translate(41.113281 0)"/>
     <use xlink:href="#DejaVuSans-3d" transform="translate(72.900391 0)"/>
     <use xlink:href="#DejaVuSans-20" transform="translate(156.689453 0)"/>
     <use xlink:href="#DejaVuSans-31" transform="translate(188.476562 0)"/>
     <use xlink:href="#DejaVuSans-2e" transform="translate(252.099609 0)"/>
     <use xlink:href="#DejaVuSans-30" transform="translate(283.886719 0)"/>
     <use xlink:href="#DejaVuSans-30" transform="translate(347.509766 0)"/>
     <use xlink:href="#DejaVuSans-20" transform="translate(411.132812 0)"/>
    </g>
   </g>
   <g id="text_24">
    <!-- p = 0.000 -->
    <g transform="translate(272.144716 187.327) scale(0.1 -0.1)">
     <use xlink:href="#DejaVuSans-70"/>
     <use xlink:href="#DejaVuSans-20" transform="translate(63.476562 0)"/>
     <use xlink:href="#DejaVuSans-3d" transform="translate(95.263672 0)"/>
     <use xlink:href="#DejaVuSans-20" transform="translate(179.052734 0)"/>
     <use xlink:href="#DejaVuSans-30" transform="translate(210.839844 0)"/>
     <use xlink:href="#DejaVuSans-2e" transform="translate(274.462891 0)"/>
     <use xlink:href="#DejaVuSans-30" transform="translate(306.25 0)"/>
     <use xlink:href="#DejaVuSans-30" transform="translate(369.873047 0)"/>
     <use xlink:href="#DejaVuSans-30" transform="translate(433.496094 0)"/>
    </g>
   </g>
  </g>
  <g id="axes_4">
   <g id="patch_9">
    <path d="M 65.004104 155.17 
L 67.908777 155.17 
L 67.908777 122.653333 
L 65.004104 122.653333 
z
" clip-path="url(#p6c33d2f58a)" style="fill: #1f77b4; fill-opacity: 0.75; stroke: #000000; stroke-linejoin: miter"/>
   </g>
   <g id="patch_10">
    <path d="M 67.908777 155.17 
L 70.813449 155.17 
L 70.813449 57.62 
L 67.908777 57.62 
z
" clip-path="url(#p6c33d2f58a)" style="fill: #1f77b4; fill-opacity: 0.75; stroke: #000000; stroke-linejoin: miter"/>
   </g>
   <g id="patch_11">
    <path d="M 70.813449 155.17 
L 73.718122 155.17 
L 73.718122 155.17 
L 70.813449 155.17 
z
" clip-path="url(#p6c33d2f58a)" style="fill: #1f77b4; fill-opacity: 0.75; stroke: #000000; stroke-linejoin: miter"/>
   </g>
   <g id="patch_12">
    <path d="M 73.718122 155.17 
L 76.622795 155.17 
L 76.622795 57.62 
L 73.718122 57.62 
z
" clip-path="url(#p6c33d2f58a)" style="fill: #1f77b4; fill-opacity: 0.75; stroke: #000000; stroke-linejoin: miter"/>
   </g>
  </g>
  <g id="axes_5">
   <g id="patch_13">
    <path d="M 231.347079 310.24 
L 242.513655 310.24 
L 242.513655 180.173333 
L 231.347079 180.173333 
z
" clip-path="url(#pff9e1895aa)" style="fill: #1f77b4; fill-opacity: 0.75; stroke: #000000; stroke-linejoin: miter"/>
   </g>
   <g id="patch_14">
    <path d="M 242.513655 310.24 
L 253.680232 310.24 
L 253.680232 245.206667 
L 242.513655 245.206667 
z
" clip-path="url(#pff9e1895aa)" style="fill: #1f77b4; fill-opacity: 0.75; stroke: #000000; stroke-linejoin: miter"/>
   </g>
   <g id="patch_15">
    <path d="M 253.680232 310.24 
L 264.846808 310.24 
L 264.846808 310.24 
L 253.680232 310.24 
z
" clip-path="url(#pff9e1895aa)" style="fill: #1f77b4; fill-opacity: 0.75; stroke: #000000; stroke-linejoin: miter"/>
   </g>
   <g id="patch_16">
    <path d="M 264.846808 310.24 
L 276.013385 310.24 
L 276.013385 310.24 
L 264.846808 310.24 
z
" clip-path="url(#pff9e1895aa)" style="fill: #1f77b4; fill-opacity: 0.75; stroke: #000000; stroke-linejoin: miter"/>
   </g>
   <g id="patch_17">
    <path d="M 276.013385 310.24 
L 287.179961 310.24 
L 287.179961 310.24 
L 276.013385 310.24 
z
" clip-path="url(#pff9e1895aa)" style="fill: #1f77b4; fill-opacity: 0.75; stroke: #000000; stroke-linejoin: miter"/>
   </g>
   <g id="patch_18">
    <path d="M 287.179961 310.24 
L 298.346538 310.24 
L 298.346538 277.723333 
L 287.179961 277.723333 
z
" clip-path="url(#pff9e1895aa)" style="fill: #1f77b4; fill-opacity: 0.75; stroke: #000000; stroke-linejoin: miter"/>
   </g>
  </g>
 </g>
 <defs>
  <clipPath id="p5e58ebe7ed">
   <rect x="46.07" y="173.67" width="138.510567" height="136.57"/>
  </clipPath>
  <clipPath id="p6c33d2f58a">
   <rect x="46.07" y="18.6" width="138.510567" height="136.57"/>
  </clipPath>
  <clipPath id="pff9e1895aa">
   <rect x="202.889433" y="173.67" width="138.510567" height="136.57"/>
  </clipPath>
 </defs>
</svg>
