<?xml version="1.0" encoding="utf-8" standalone="no"?>
<!DOCTYPE svg PUBLIC "-//W3C//DTD SVG 1.1//EN"
  "http://www.w3.org/Graphics/SVG/1.1/DTD/svg11.dtd">
<svg xmlns:xlink="http://www.w3.org/1999/xlink" width="360pt" height="360pt" viewBox="0 0 360 360" xmlns="http://www.w3.org/2000/svg" version="1.1">
 <metadata>
  <rdf:RDF xmlns:dc="http://purl.org/dc/elements/1.1/" xmlns:cc="http://creativecommons.org/ns#" xmlns:rdf="http://www.w3.org/1999/02/22-rdf-syntax-ns#">
   <cc:Work>
    <dc:type rdf:resource="http://purl.org/dc/dcmitype/StillImage"/>
    <dc:date>2026-01-20T17:08:53.586217</dc:date>
    <dc:format>image/svg+xml</dc:format>
    <dc:creator>
     <cc:Agent>
      <dc:title>Matplotlib v3.10.8, https://matplotlib.org/</dc:title>
     </cc:Agent>
    </dc:creator>
   </cc:Work>
  </rdf:RDF>
 </metadata>
 <defs>
  <style type="text/css">*{stroke-linejoin: round; stroke-linecap: butt}</style>
 </defs>
 <g id="figure_1">
  <g id="patch_1">
   <path d="M 0 360 
L 360 360 
L 360 0 
L 0 0 
z
" style="fill: #ffffff"/>
  </g>
  <g id="axes_1">
   <g id="patch_2">
    <path d="M 52.46 155.17 
L 189.43 155.17 
L 189.43 18.6 
L 52.46 18.6 
z
" style="fill: #ffffff"/>
   </g>
   <g id="matplotlib.axis_1">
    <g id="xtick_1">
     <g id="line2d_1">
      <defs>
       <path id="m76b2111ad8" d="M 0 0 
L 0 3.5 
" style="stroke: #000000; stroke-width: 0.8"/>
      </defs>
      <g>
       <use xlink:href="#m76b2111ad8" x="52.46" y="155.17" style="stroke: #000000; stroke-width: 0.8"/>
      </g>
     </g>
    </g>
    <g id="xtick_2">
     <g id="line2d_2">
      <g>
       <use xlink:href="#m76b2111ad8" x="86.7025" y="155.17" style="stroke: #000000; stroke-width: 0.8"/>
      </g>
     </g>
    </g>
    <g id="xtick_3">
     <g id="line2d_3">
      <g>
       <use xlink:href="#m76b2111ad8" x="120.945" y="155.17" style="stroke: #000000; stroke-width: 0.8"/>
      </g>
     </g>
    </g>
    <g id="xtick_4">
     <g id="line2d_4">
      <g>
       <use xlink:href="#m76b2111ad8" x="155.1875" y="155.17" style="stroke: #000000; stroke-width: 0.8"/>
      </g>
     </g>
    </g>
    <g id="xtick_5">
     <g id="line2d_5">
      <g>
       <use xlink:href="#m76b2111ad8" x="189.43" y="155.17" style="stroke: #000000; stroke-width: 0.8"/>
      </g>
     </g>
    </g>
   </g>
   <g id="patch_3">
    <path d="M 52.46 155.17 
L 189.43 155.17 
" style="fill: none; stroke: #000000; stroke-width: 0.8; stroke-linejoin: miter; stroke-linecap: square"/>
   </g>
   <g id="text_1">
    <!-- r = 1.00  -->
    <g transform="translate(66.157 32.257) scale(0.1 -0.1)">
     <defs>
      <path id="DejaVuSans-72" d="M 2631 2963 
Q 2534 3019 2420 3045 
Q 2306 3072 2169 3072 
Q 1681 3072 1420 2755 
Q 1159 2438 1159 1844 
L 1159 0 
L 581 0 
L 581 3500 
L 1159 3500 
L 1159 2956 
Q 1341 3275 1631 3429 
Q 1922 3584 2338 3584 
Q 2397 3584 2469 3576 
Q 2541 3569 2628 3553 
L 2631 2963 
z
" transform="scale(0.015625)"/>
      <path id="DejaVuSans-20" transform="scale(0.015625)"/>
      <path id="DejaVuSans-3d" d="M 678 2906 
L 4684 2906 
L 4684 2381 
L 678 2381 
L 678 2906 
z
M 678 1631 
L 4684 1631 
L 4684 1100 
L 678 1100 
L 678 1631 
z
" transform="scale(0.015625)"/>
      <path id="DejaVuSans-31" d="M 794 531 
L 1825 531 
L 1825 4091 
L 703 3866 
L 703 4441 
L 1819 4666 
L 2450 4666 
L 2450 531 
L 3481 531 
L 3481 0 
L 794 0 
L 794 531 
z
" transform="scale(0.015625)"/>
      <path id="DejaVuSans-2e" d="M 684 794 
L 1344 794 
L 1344 0 
L 684 0 
L 684 794 
z
" transform="scale(0.015625)"/>
      <path id="DejaVuSans-30" d="M 2034 4250 
Q 1547 4250 1301 3770 
Q 1056 3291 1056 2328 
Q 1056 1369 1301 889 
Q 1547 409 2034 409 
Q 2525 409 2770 889 
Q 3016 1369 3016 2328 
Q 3016 3291 2770 3770 
Q 2525 4250 2034 4250 
z
M 2034 4750 
Q 2819 4750 3233 4129 
Q 3647 3509 3647 2328 
Q 3647 1150 3233 529 
Q 2819 -91 2034 -91 
Q 1250 -91 836 529 
Q 422 1150 422 2328 
Q 422 3509 836 4129 
Q 1250 4750 2034 4750 
z
" transform="scale(0.015625)"/>
     </defs>
     <use xlink:href="#DejaVuSans-72"/>
     <use xlink:href="#DejaVuSans-20" transform="translate(41.113281 0)"/>
     <use xlink:href="#DejaVuSans-3d" transform="translate(72.900391 0)"/>
     <use xlink:href="#DejaVuSans-20" transform="translate(156.689453 0)"/>
     <use xlink:href="#DejaVuSans-31" transform="translate(188.476562 0)"/>
     <use xlink:href="#DejaVuSans-2e" transform="translate(252.099609 0)"/>
     <use xlink:href="#DejaVuSans-30" transform="translate(283.886719 0)"/>
     <use xlink:href="#DejaVuSans-30" transform="translate(347.509766 0)"/>
     <use xlink:href="#DejaVuSans-20" transform="translate(411.132812 0)"/>
    </g>
   </g>
   <g id="text_2">
    <!-- p = 0.000 -->
    <g transform="translate(120.945 32.257) scale(0.1 -0.1)">
     <defs>
      <path id="DejaVuSans-70" d="M 1159 525 
L 1159 -1331 
L 581 -1331 
L 581 3500 
L 1159 3500 
L 1159 2969 
Q 1341 3281 1617 3432 
Q 1894 3584 2278 3584 
Q 2916 3584 3314 3078 
Q 3713 2572 3713 1747 
Q 3713 922 3314 415 
Q 2916 -91 2278 -91 
Q 1894 -91 1617 61 
Q 1341 213 1159 525 
z
M 3116 1747 
Q 3116 2381 2855 2742 
Q 2594 3103 2138 3103 
Q 1681 3103 1420 2742 
Q 1159 2381 1159 1747 
Q 1159 1113 1420 752 
Q 1681 391 2138 391 
Q 2594 391 2855 752 
Q 3116 1113 3116 1747 
z
" transform="scale(0.015625)"/>
     </defs>
     <use xlink:href="#DejaVuSans-70"/>
     <use xlink:href="#DejaVuSans-20" transform="translate(63.476562 0)"/>
     <use xlink:href="#DejaVuSans-3d" transform="translate(95.263672 0)"/>
     <use xlink:href="#DejaVuSans-20" transform="translate(179.052734 0)"/>
     <use xlink:href="#DejaVuSans-30" transform="translate(210.839844 0)"/>
     <use xlink:href="#DejaVuSans-2e" transform="translate(274.462891 0)"/>
     <use xlink:href="#DejaVuSans-30" transform="translate(306.25 0)"/>
     <use xlink:href="#DejaVuSans-30" transform="translate(369.873047 0)"/>
     <use xlink:href="#DejaVuSans-30" transform="translate(433.496094 0)"/>
    </g>
   </g>
  </g>
  <g id="axes_2">
   <g id="patch_4">
    <path d="M 52.46 310.24 
L 189.43 310.24 
L 189.43 173.67 
L 52.46 173.67 
z
" style="fill: #ffffff"/>
   </g>
   <g id="PathCollection_1">
    <defs>
     <path id="m0a60148c28" d="M 0 3 
C 0.795609 3 1.55874 2.683901 2.12132 2.12132 
C 2.683901 1.55874 3 0.795609 3 0 
C 3 -0.795609 2.683901 -1.55874 2.12132 -2.12132 
C 1.55874 -2.683901 0.795609 -3 0 -3 
C -0.795609 -3 -1.55874 -2.683901 -2.12132 -2.12132 
C -2.683901 -1.55874 -3 -0.795609 -3 0 
C -3 0.795609 -2.683901 1.55874 -2.12132 2.12132 
C -1.55874 2.683901 -0.795609 3 0 3 
z
" style="stroke: #1f77b4; stroke-opacity: 0.8"/>
    </defs>
    <g clip-path="url(#p0c2aabd723)">
     <use xlink:href="#m0a60148c28" x="66.862206" y="275.076091" style="fill: #1f77b4; fill-opacity: 0.8; stroke: #1f77b4; stroke-opacity: 0.8"/>
     <use xlink:href="#m0a60148c28" x="90.144063" y="218.932356" style="fill: #1f77b4; fill-opacity: 0.8; stroke: #1f77b4; stroke-opacity: 0.8"/>
     <use xlink:href="#m0a60148c28" x="74.594902" y="225.284492" style="fill: #1f77b4; fill-opacity: 0.8; stroke: #1f77b4; stroke-opacity: 0.8"/>
     <use xlink:href="#m0a60148c28" x="116.463913" y="283.146927" style="fill: #1f77b4; fill-opacity: 0.8; stroke: #1f77b4; stroke-opacity: 0.8"/>
     <use xlink:href="#m0a60148c28" x="72.170178" y="274.222139" style="fill: #1f77b4; fill-opacity: 0.8; stroke: #1f77b4; stroke-opacity: 0.8"/>
     <use xlink:href="#m0a60148c28" x="82.127804" y="202.275149" style="fill: #1f77b4; fill-opacity: 0.8; stroke: #1f77b4; stroke-opacity: 0.8"/>
     <use xlink:href="#m0a60148c28" x="81.005043" y="270.416674" style="fill: #1f77b4; fill-opacity: 0.8; stroke: #1f77b4; stroke-opacity: 0.8"/>
     <use xlink:href="#m0a60148c28" x="88.364059" y="261.957278" style="fill: #1f77b4; fill-opacity: 0.8; stroke: #1f77b4; stroke-opacity: 0.8"/>
    </g>
   </g>
   <g id="FillBetweenPolyCollection_1">
    <path d="M 66.862206 203.836671 
L 66.862206 281.59591 
L 67.363233 280.425961 
L 67.86426 279.42504 
L 68.365287 278.314347 
L 68.866315 277.291355 
L 69.367342 276.397036 
L 69.868369 275.217626 
L 70.369397 274.482871 
L 70.870425 274.329452 
L 71.371452 273.421144 
L 71.872478 272.859326 
L 72.373506 272.112283 
L 72.874533 271.775918 
L 73.375561 271.355901 
L 73.876588 270.70405 
L 74.377616 270.050099 
L 74.878644 269.793439 
L 75.379671 269.70223 
L 75.880699 269.719023 
L 76.381727 269.76099 
L 76.882752 269.802489 
L 77.38378 269.366632 
L 77.884807 269.454251 
L 78.385835 269.185197 
L 78.886861 269.214083 
L 79.387888 269.233984 
L 79.888916 269.204353 
L 80.389944 269.291074 
L 80.890971 269.321904 
L 81.391999 269.368628 
L 81.893027 269.486628 
L 82.394054 269.609291 
L 82.895082 269.606151 
L 83.396109 269.745916 
L 83.897135 269.88568 
L 84.398163 270.025445 
L 84.89919 270.16521 
L 85.400218 270.304975 
L 85.901246 270.44474 
L 86.402273 270.584349 
L 86.903299 270.713539 
L 87.404326 270.83664 
L 87.905354 270.959742 
L 88.406382 271.082843 
L 88.907409 271.205945 
L 89.408437 271.375982 
L 89.909465 271.521136 
L 90.410488 271.637907 
L 90.911516 271.7749 
L 91.412544 271.969921 
L 91.913571 272.126586 
L 92.414599 272.26679 
L 92.915626 272.406993 
L 93.416654 272.529559 
L 93.917682 272.629786 
L 94.418709 272.729885 
L 94.919737 272.856963 
L 95.420765 272.930465 
L 95.921792 273.029183 
L 96.42282 273.126269 
L 96.923848 273.217173 
L 97.424875 273.290017 
L 97.925903 273.412093 
L 98.42693 273.539231 
L 98.927958 273.660922 
L 99.428986 273.782614 
L 99.930013 273.938897 
L 100.431041 274.189583 
L 100.932065 274.650249 
L 101.433092 274.790452 
L 101.93412 274.94369 
L 102.435147 275.198577 
L 102.936175 275.451427 
L 103.437203 275.698248 
L 103.93823 275.9461 
L 104.439258 276.053864 
L 104.940286 276.198708 
L 105.441313 276.464336 
L 105.942341 276.728098 
L 106.443364 276.992756 
L 106.944392 277.263079 
L 107.44542 277.54508 
L 107.946447 277.954451 
L 108.447475 278.319383 
L 108.948503 278.691663 
L 109.44953 278.940815 
L 109.950558 279.026706 
L 110.451586 279.213918 
L 110.952613 279.487842 
L 111.453641 279.799642 
L 111.954668 280.250392 
L 112.455696 280.424283 
L 112.956724 280.87549 
L 113.457747 281.153324 
L 113.958775 281.738726 
L 114.459803 282.265261 
L 114.96083 282.735409 
L 115.461858 283.355685 
L 115.962886 283.789746 
L 116.463913 284.222283 
L 116.463913 129.780189 
L 116.463913 129.780189 
L 115.962886 131.191707 
L 115.461858 132.603224 
L 114.96083 134.014742 
L 114.459803 135.426605 
L 113.958775 136.841151 
L 113.457747 138.255697 
L 112.956724 139.670231 
L 112.455696 141.084776 
L 111.954668 142.499322 
L 111.453641 143.913868 
L 110.952613 145.328414 
L 110.451586 146.742959 
L 109.950558 148.157505 
L 109.44953 149.572051 
L 108.948503 150.986596 
L 108.447475 152.401142 
L 107.946447 153.816632 
L 107.44542 155.233648 
L 106.944392 156.650664 
L 106.443364 158.06768 
L 105.942341 159.484684 
L 105.441313 160.9017 
L 104.940286 162.317112 
L 104.439258 163.730613 
L 103.93823 165.144114 
L 103.437203 166.557615 
L 102.936175 167.971116 
L 102.435147 169.384617 
L 101.93412 170.797546 
L 101.433092 172.209075 
L 100.932065 173.620604 
L 100.431041 175.03385 
L 99.930013 176.347956 
L 99.428986 177.75583 
L 98.927958 179.206981 
L 98.42693 180.658131 
L 97.925903 182.098027 
L 97.424875 183.515862 
L 96.923848 184.933116 
L 96.42282 186.346617 
L 95.921792 187.760118 
L 95.420765 189.173619 
L 94.919737 190.587119 
L 94.418709 192.00062 
L 93.917682 193.414121 
L 93.416654 194.996639 
L 92.915626 196.603231 
L 92.414599 198.001657 
L 91.913571 199.290715 
L 91.412544 200.579773 
L 90.911516 201.895127 
L 90.410488 203.308628 
L 89.909465 204.722117 
L 89.408437 206.135618 
L 88.907409 207.421068 
L 88.406382 208.66745 
L 87.905354 209.913832 
L 87.404326 211.160215 
L 86.903299 212.173466 
L 86.402273 213.408643 
L 85.901246 214.69573 
L 85.400218 215.982816 
L 84.89919 216.319522 
L 84.398163 217.813882 
L 83.897135 218.70768 
L 83.396109 219.197356 
L 82.895082 220.213489 
L 82.394054 220.529112 
L 81.893027 220.441994 
L 81.391999 221.463959 
L 80.890971 221.160091 
L 80.389944 220.757934 
L 79.888916 220.825083 
L 79.387888 221.097502 
L 78.886861 220.418049 
L 78.385835 219.804801 
L 77.884807 218.939901 
L 77.38378 218.323553 
L 76.882752 217.914707 
L 76.381727 217.895868 
L 75.880699 217.642709 
L 75.379671 217.299869 
L 74.878644 216.311757 
L 74.377616 215.891742 
L 73.876588 215.163907 
L 73.375561 214.408743 
L 72.874533 213.653663 
L 72.373506 212.898583 
L 71.872478 212.143503 
L 71.371452 211.388426 
L 70.870425 210.633346 
L 70.369397 209.880648 
L 69.868369 209.127981 
L 69.367342 208.375314 
L 68.866315 207.622649 
L 68.365287 206.869982 
L 67.86426 206.117316 
L 67.363233 205.068631 
L 66.862206 203.836671 
z
" clip-path="url(#p0c2aabd723)" style="fill: #008000; fill-opacity: 0.15"/>
   </g>
   <g id="matplotlib.axis_2">
    <g id="xtick_6">
     <g id="line2d_6">
      <g>
       <use xlink:href="#m76b2111ad8" x="52.46" y="310.24" style="stroke: #000000; stroke-width: 0.8"/>
      </g>
     </g>
     <g id="text_3">
      <!-- 0 -->
      <g transform="translate(49.27875 324.838438) scale(0.1 -0.1)">
       <use xlink:href="#DejaVuSans-30"/>
      </g>
     </g>
    </g>
    <g id="xtick_7">
     <g id="line2d_7">
      <g>
       <use xlink:href="#m76b2111ad8" x="86.7025" y="310.24" style="stroke: #000000; stroke-width: 0.8"/>
      </g>
     </g>
     <g id="text_4">
      <!-- 2 -->
      <g transform="translate(83.52125 324.838438) scale(0.1 -0.1)">
       <defs>
        <path id="DejaVuSans-32" d="M 1228 531 
L 3431 531 
L 3431 0 
L 469 0 
L 469 531 
Q 828 903 1448 1529 
Q 2069 2156 2228 2338 
Q 2531 2678 2651 2914 
Q 2772 3150 2772 3378 
Q 2772 3750 2511 3984 
Q 2250 4219 1831 4219 
Q 1534 4219 1204 4116 
Q 875 4013 500 3803 
L 500 4441 
Q 881 4594 1212 4672 
Q 1544 4750 1819 4750 
Q 2544 4750 2975 4387 
Q 3406 4025 3406 3419 
Q 3406 3131 3298 2873 
Q 3191 2616 2906 2266 
Q 2828 2175 2409 1742 
Q 1991 1309 1228 531 
z
" transform="scale(0.015625)"/>
       </defs>
       <use xlink:href="#DejaVuSans-32"/>
      </g>
     </g>
    </g>
    <g id="xtick_8">
     <g id="line2d_8">
      <g>
       <use xlink:href="#m76b2111ad8" x="120.945" y="310.24" style="stroke: #000000; stroke-width: 0.8"/>
      </g>
     </g>
     <g id="text_5">
      <!-- 4 -->
      <g transform="translate(117.76375 324.838438) scale(0.1 -0.1)">
       <defs>
        <path id="DejaVuSans-34" d="M 2419 4116 
L 825 1625 
L 2419 1625 
L 2419 4116 
z
M 2253 4666 
L 3047 4666 
L 3047 1625 
L 3713 1625 
L 3713 1100 
L 3047 1100 
L 3047 0 
L 2419 0 
L 2419 1100 
L 313 1100 
L 313 1709 
L 2253 4666 
z
" transform="scale(0.015625)"/>
       </defs>
       <use xlink:href="#DejaVuSans-34"/>
      </g>
     </g>
    </g>
    <g id="xtick_9">
     <g id="line2d_9">
      <g>
       <use xlink:href="#m76b2111ad8" x="155.1875" y="310.24" style="stroke: #000000; stroke-width: 0.8"/>
      </g>
     </g>
     <g id="text_6">
      <!-- 6 -->
      <g transform="translate(152.00625 324.838438) scale(0.1 -0.1)">
       <defs>
        <path id="DejaVuSans-36" d="M 2113 2584 
Q 1688 2584 1439 2293 
Q 1191 2003 1191 1497 
Q 1191 994 1439 701 
Q 1688 409 2113 409 
Q 2538 409 2786 701 
Q 3034 994 3034 1497 
Q 3034 2003 2786 2293 
Q 2538 2584 2113 2584 
z
M 3366 4563 
L 3366 3988 
Q 3128 4100 2886 4159 
Q 2644 4219 2406 4219 
Q 1781 4219 1451 3797 
Q 1122 3375 1075 2522 
Q 1259 2794 1537 2939 
Q 1816 3084 2150 3084 
Q 2853 3084 3261 2657 
Q 3669 2231 3669 1497 
Q 3669 778 3244 343 
Q 2819 -91 2113 -91 
Q 1303 -91 875 529 
Q 447 1150 447 2328 
Q 447 3434 972 4092 
Q 1497 4750 2381 4750 
Q 2619 4750 2861 4703 
Q 3103 4656 3366 4563 
z
" transform="scale(0.015625)"/>
       </defs>
       <use xlink:href="#DejaVuSans-36"/>
      </g>
     </g>
    </g>
    <g id="xtick_10">
     <g id="line2d_10">
      <g>
       <use xlink:href="#m76b2111ad8" x="189.43" y="310.24" style="stroke: #000000; stroke-width: 0.8"/>
      </g>
     </g>
     <g id="text_7">
      <!-- 8 -->
      <g transform="translate(186.24875 324.838438) scale(0.1 -0.1)">
       <defs>
        <path id="DejaVuSans-38" d="M 2034 2216 
Q 1584 2216 1326 1975 
Q 1069 1734 1069 1313 
Q 1069 891 1326 650 
Q 1584 409 2034 409 
Q 2484 409 2743 651 
Q 3003 894 3003 1313 
Q 3003 1734 2745 1975 
Q 2488 2216 2034 2216 
z
M 1403 2484 
Q 997 2584 770 2862 
Q 544 3141 544 3541 
Q 544 4100 942 4425 
Q 1341 4750 2034 4750 
Q 2731 4750 3128 4425 
Q 3525 4100 3525 3541 
Q 3525 3141 3298 2862 
Q 3072 2584 2669 2484 
Q 3125 2378 3379 2068 
Q 3634 1759 3634 1313 
Q 3634 634 3220 271 
Q 2806 -91 2034 -91 
Q 1263 -91 848 271 
Q 434 634 434 1313 
Q 434 1759 690 2068 
Q 947 2378 1403 2484 
z
M 1172 3481 
Q 1172 3119 1398 2916 
Q 1625 2713 2034 2713 
Q 2441 2713 2670 2916 
Q 2900 3119 2900 3481 
Q 2900 3844 2670 4047 
Q 2441 4250 2034 4250 
Q 1625 4250 1398 4047 
Q 1172 3844 1172 3481 
z
" transform="scale(0.015625)"/>
       </defs>
       <use xlink:href="#DejaVuSans-38"/>
      </g>
     </g>
    </g>
    <g id="text_8">
     <!-- inferred dec temp -->
     <g transform="translate(76.129375 338.516563) scale(0.1 -0.1)">
      <defs>
       <path id="DejaVuSans-69" d="M 603 3500 
L 1178 3500 
L 1178 0 
L 603 0 
L 603 3500 
z
M 603 4863 
L 1178 4863 
L 1178 4134 
L 603 4134 
L 603 4863 
z
" transform="scale(0.015625)"/>
       <path id="DejaVuSans-6e" d="M 3513 2113 
L 3513 0 
L 2938 0 
L 2938 2094 
Q 2938 2591 2744 2837 
Q 2550 3084 2163 3084 
Q 1697 3084 1428 2787 
Q 1159 2491 1159 1978 
L 1159 0 
L 581 0 
L 581 3500 
L 1159 3500 
L 1159 2956 
Q 1366 3272 1645 3428 
Q 1925 3584 2291 3584 
Q 2894 3584 3203 3211 
Q 3513 2838 3513 2113 
z
" transform="scale(0.015625)"/>
       <path id="DejaVuSans-66" d="M 2375 4863 
L 2375 4384 
L 1825 4384 
Q 1516 4384 1395 4259 
Q 1275 4134 1275 3809 
L 1275 3500 
L 2222 3500 
L 2222 3053 
L 1275 3053 
L 1275 0 
L 697 0 
L 697 3053 
L 147 3053 
L 147 3500 
L 697 3500 
L 697 3744 
Q 697 4328 969 4595 
Q 1241 4863 1831 4863 
L 2375 4863 
z
" transform="scale(0.015625)"/>
       <path id="DejaVuSans-65" d="M 3597 1894 
L 3597 1613 
L 953 1613 
Q 991 1019 1311 708 
Q 1631 397 2203 397 
Q 2534 397 2845 478 
Q 3156 559 3463 722 
L 3463 178 
Q 3153 47 2828 -22 
Q 2503 -91 2169 -91 
Q 1331 -91 842 396 
Q 353 884 353 1716 
Q 353 2575 817 3079 
Q 1281 3584 2069 3584 
Q 2775 3584 3186 3129 
Q 3597 2675 3597 1894 
z
M 3022 2063 
Q 3016 2534 2758 2815 
Q 2500 3097 2075 3097 
Q 1594 3097 1305 2825 
Q 1016 2553 972 2059 
L 3022 2063 
z
" transform="scale(0.015625)"/>
       <path id="DejaVuSans-64" d="M 2906 2969 
L 2906 4863 
L 3481 4863 
L 3481 0 
L 2906 0 
L 2906 525 
Q 2725 213 2448 61 
Q 2172 -91 1784 -91 
Q 1150 -91 751 415 
Q 353 922 353 1747 
Q 353 2572 751 3078 
Q 1150 3584 1784 3584 
Q 2172 3584 2448 3432 
Q 2725 3281 2906 2969 
z
M 947 1747 
Q 947 1113 1208 752 
Q 1469 391 1925 391 
Q 2381 391 2643 752 
Q 2906 1113 2906 1747 
Q 2906 2381 2643 2742 
Q 2381 3103 1925 3103 
Q 1469 3103 1208 2742 
Q 947 2381 947 1747 
z
" transform="scale(0.015625)"/>
       <path id="DejaVuSans-63" d="M 3122 3366 
L 3122 2828 
Q 2878 2963 2633 3030 
Q 2388 3097 2138 3097 
Q 1578 3097 1268 2742 
Q 959 2388 959 1747 
Q 959 1106 1268 751 
Q 1578 397 2138 397 
Q 2388 397 2633 464 
Q 2878 531 3122 666 
L 3122 134 
Q 2881 22 2623 -34 
Q 2366 -91 2075 -91 
Q 1284 -91 818 406 
Q 353 903 353 1747 
Q 353 2603 823 3093 
Q 1294 3584 2113 3584 
Q 2378 3584 2631 3529 
Q 2884 3475 3122 3366 
z
" transform="scale(0.015625)"/>
       <path id="DejaVuSans-74" d="M 1172 4494 
L 1172 3500 
L 2356 3500 
L 2356 3053 
L 1172 3053 
L 1172 1153 
Q 1172 725 1289 603 
Q 1406 481 1766 481 
L 2356 481 
L 2356 0 
L 1766 0 
Q 1100 0 847 248 
Q 594 497 594 1153 
L 594 3053 
L 172 3053 
L 172 3500 
L 594 3500 
L 594 4494 
L 1172 4494 
z
" transform="scale(0.015625)"/>
       <path id="DejaVuSans-6d" d="M 3328 2828 
Q 3544 3216 3844 3400 
Q 4144 3584 4550 3584 
Q 5097 3584 5394 3201 
Q 5691 2819 5691 2113 
L 5691 0 
L 5113 0 
L 5113 2094 
Q 5113 2597 4934 2840 
Q 4756 3084 4391 3084 
Q 3944 3084 3684 2787 
Q 3425 2491 3425 1978 
L 3425 0 
L 2847 0 
L 2847 2094 
Q 2847 2600 2669 2842 
Q 2491 3084 2119 3084 
Q 1678 3084 1418 2786 
Q 1159 2488 1159 1978 
L 1159 0 
L 581 0 
L 581 3500 
L 1159 3500 
L 1159 2956 
Q 1356 3278 1631 3431 
Q 1906 3584 2284 3584 
Q 2666 3584 2933 3390 
Q 3200 3197 3328 2828 
z
" transform="scale(0.015625)"/>
      </defs>
      <use xlink:href="#DejaVuSans-69"/>
      <use xlink:href="#DejaVuSans-6e" transform="translate(27.783203 0)"/>
      <use xlink:href="#DejaVuSans-66" transform="translate(91.162109 0)"/>
      <use xlink:href="#DejaVuSans-65" transform="translate(126.367188 0)"/>
      <use xlink:href="#DejaVuSans-72" transform="translate(187.890625 0)"/>
      <use xlink:href="#DejaVuSans-72" transform="translate(227.253906 0)"/>
      <use xlink:href="#DejaVuSans-65" transform="translate(266.117188 0)"/>
      <use xlink:href="#DejaVuSans-64" transform="translate(327.640625 0)"/>
      <use xlink:href="#DejaVuSans-20" transform="translate(391.117188 0)"/>
      <use xlink:href="#DejaVuSans-64" transform="translate(422.904297 0)"/>
      <use xlink:href="#DejaVuSans-65" transform="translate(486.380859 0)"/>
      <use xlink:href="#DejaVuSans-63" transform="translate(547.904297 0)"/>
      <use xlink:href="#DejaVuSans-20" transform="translate(602.884766 0)"/>
      <use xlink:href="#DejaVuSans-74" transform="translate(634.671875 0)"/>
      <use xlink:href="#DejaVuSans-65" transform="translate(673.880859 0)"/>
      <use xlink:href="#DejaVuSans-6d" transform="translate(735.404297 0)"/>
      <use xlink:href="#DejaVuSans-70" transform="translate(832.816406 0)"/>
     </g>
    </g>
   </g>
   <g id="matplotlib.axis_3">
    <g id="ytick_1">
     <g id="line2d_11">
      <defs>
       <path id="m76791137b6" d="M 0 0 
L -3.5 0 
" style="stroke: #000000; stroke-width: 0.8"/>
      </defs>
      <g>
       <use xlink:href="#m76791137b6" x="52.46" y="310.24" style="stroke: #000000; stroke-width: 0.8"/>
      </g>
     </g>
     <g id="text_9">
      <!-- 0 -->
      <g transform="translate(39.0975 314.039219) scale(0.1 -0.1)">
       <use xlink:href="#DejaVuSans-30"/>
      </g>
     </g>
    </g>
    <g id="ytick_2">
     <g id="line2d_12">
      <g>
       <use xlink:href="#m76791137b6" x="52.46" y="276.0975" style="stroke: #000000; stroke-width: 0.8"/>
      </g>
     </g>
     <g id="text_10">
      <!-- 2 -->
      <g transform="translate(39.0975 279.896719) scale(0.1 -0.1)">
       <use xlink:href="#DejaVuSans-32"/>
      </g>
     </g>
    </g>
    <g id="ytick_3">
     <g id="line2d_13">
      <g>
       <use xlink:href="#m76791137b6" x="52.46" y="241.955" style="stroke: #000000; stroke-width: 0.8"/>
      </g>
     </g>
     <g id="text_11">
      <!-- 4 -->
      <g transform="translate(39.0975 245.754219) scale(0.1 -0.1)">
       <use xlink:href="#DejaVuSans-34"/>
      </g>
     </g>
    </g>
    <g id="ytick_4">
     <g id="line2d_14">
      <g>
       <use xlink:href="#m76791137b6" x="52.46" y="207.8125" style="stroke: #000000; stroke-width: 0.8"/>
      </g>
     </g>
     <g id="text_12">
      <!-- 6 -->
      <g transform="translate(39.0975 211.611719) scale(0.1 -0.1)">
       <use xlink:href="#DejaVuSans-36"/>
      </g>
     </g>
    </g>
    <g id="ytick_5">
     <g id="line2d_15">
      <g>
       <use xlink:href="#m76791137b6" x="52.46" y="173.67" style="stroke: #000000; stroke-width: 0.8"/>
      </g>
     </g>
     <g id="text_13">
      <!-- 8 -->
      <g transform="translate(39.0975 177.469219) scale(0.1 -0.1)">
       <use xlink:href="#DejaVuSans-38"/>
      </g>
     </g>
    </g>
    <g id="text_14">
     <!-- inferred habitual tendency -->
     <g transform="translate(33.017813 308.401094) rotate(-90) scale(0.1 -0.1)">
      <defs>
       <path id="DejaVuSans-68" d="M 3513 2113 
L 3513 0 
L 2938 0 
L 2938 2094 
Q 2938 2591 2744 2837 
Q 2550 3084 2163 3084 
Q 1697 3084 1428 2787 
Q 1159 2491 1159 1978 
L 1159 0 
L 581 0 
L 581 4863 
L 1159 4863 
L 1159 2956 
Q 1366 3272 1645 3428 
Q 1925 3584 2291 3584 
Q 2894 3584 3203 3211 
Q 3513 2838 3513 2113 
z
" transform="scale(0.015625)"/>
       <path id="DejaVuSans-61" d="M 2194 1759 
Q 1497 1759 1228 1600 
Q 959 1441 959 1056 
Q 959 750 1161 570 
Q 1363 391 1709 391 
Q 2188 391 2477 730 
Q 2766 1069 2766 1631 
L 2766 1759 
L 2194 1759 
z
M 3341 1997 
L 3341 0 
L 2766 0 
L 2766 531 
Q 2569 213 2275 61 
Q 1981 -91 1556 -91 
Q 1019 -91 701 211 
Q 384 513 384 1019 
Q 384 1609 779 1909 
Q 1175 2209 1959 2209 
L 2766 2209 
L 2766 2266 
Q 2766 2663 2505 2880 
Q 2244 3097 1772 3097 
Q 1472 3097 1187 3025 
Q 903 2953 641 2809 
L 641 3341 
Q 956 3463 1253 3523 
Q 1550 3584 1831 3584 
Q 2591 3584 2966 3190 
Q 3341 2797 3341 1997 
z
" transform="scale(0.015625)"/>
       <path id="DejaVuSans-62" d="M 3116 1747 
Q 3116 2381 2855 2742 
Q 2594 3103 2138 3103 
Q 1681 3103 1420 2742 
Q 1159 2381 1159 1747 
Q 1159 1113 1420 752 
Q 1681 391 2138 391 
Q 2594 391 2855 752 
Q 3116 1113 3116 1747 
z
M 1159 2969 
Q 1341 3281 1617 3432 
Q 1894 3584 2278 3584 
Q 2916 3584 3314 3078 
Q 3713 2572 3713 1747 
Q 3713 922 3314 415 
Q 2916 -91 2278 -91 
Q 1894 -91 1617 61 
Q 1341 213 1159 525 
L 1159 0 
L 581 0 
L 581 4863 
L 1159 4863 
L 1159 2969 
z
" transform="scale(0.015625)"/>
       <path id="DejaVuSans-75" d="M 544 1381 
L 544 3500 
L 1119 3500 
L 1119 1403 
Q 1119 906 1312 657 
Q 1506 409 1894 409 
Q 2359 409 2629 706 
Q 2900 1003 2900 1516 
L 2900 3500 
L 3475 3500 
L 3475 0 
L 2900 0 
L 2900 538 
Q 2691 219 2414 64 
Q 2138 -91 1772 -91 
Q 1169 -91 856 284 
Q 544 659 544 1381 
z
M 1991 3584 
L 1991 3584 
z
" transform="scale(0.015625)"/>
       <path id="DejaVuSans-6c" d="M 603 4863 
L 1178 4863 
L 1178 0 
L 603 0 
L 603 4863 
z
" transform="scale(0.015625)"/>
       <path id="DejaVuSans-79" d="M 2059 -325 
Q 1816 -950 1584 -1140 
Q 1353 -1331 966 -1331 
L 506 -1331 
L 506 -850 
L 844 -850 
Q 1081 -850 1212 -737 
Q 1344 -625 1503 -206 
L 1606 56 
L 191 3500 
L 800 3500 
L 1894 763 
L 2988 3500 
L 3597 3500 
L 2059 -325 
z
" transform="scale(0.015625)"/>
      </defs>
      <use xlink:href="#DejaVuSans-69"/>
      <use xlink:href="#DejaVuSans-6e" transform="translate(27.783203 0)"/>
      <use xlink:href="#DejaVuSans-66" transform="translate(91.162109 0)"/>
      <use xlink:href="#DejaVuSans-65" transform="translate(126.367188 0)"/>
      <use xlink:href="#DejaVuSans-72" transform="translate(187.890625 0)"/>
      <use xlink:href="#DejaVuSans-72" transform="translate(227.253906 0)"/>
      <use xlink:href="#DejaVuSans-65" transform="translate(266.117188 0)"/>
      <use xlink:href="#DejaVuSans-64" transform="translate(327.640625 0)"/>
      <use xlink:href="#DejaVuSans-20" transform="translate(391.117188 0)"/>
      <use xlink:href="#DejaVuSans-68" transform="translate(422.904297 0)"/>
      <use xlink:href="#DejaVuSans-61" transform="translate(486.283203 0)"/>
      <use xlink:href="#DejaVuSans-62" transform="translate(547.5625 0)"/>
      <use xlink:href="#DejaVuSans-69" transform="translate(611.039062 0)"/>
      <use xlink:href="#DejaVuSans-74" transform="translate(638.822266 0)"/>
      <use xlink:href="#DejaVuSans-75" transform="translate(678.03125 0)"/>
      <use xlink:href="#DejaVuSans-61" transform="translate(741.410156 0)"/>
      <use xlink:href="#DejaVuSans-6c" transform="translate(802.689453 0)"/>
      <use xlink:href="#DejaVuSans-20" transform="translate(830.472656 0)"/>
      <use xlink:href="#DejaVuSans-74" transform="translate(862.259766 0)"/>
      <use xlink:href="#DejaVuSans-65" transform="translate(901.46875 0)"/>
      <use xlink:href="#DejaVuSans-6e" transform="translate(962.992188 0)"/>
      <use xlink:href="#DejaVuSans-64" transform="translate(1026.371094 0)"/>
      <use xlink:href="#DejaVuSans-65" transform="translate(1089.847656 0)"/>
      <use xlink:href="#DejaVuSans-6e" transform="translate(1151.371094 0)"/>
      <use xlink:href="#DejaVuSans-63" transform="translate(1214.75 0)"/>
      <use xlink:href="#DejaVuSans-79" transform="translate(1269.730469 0)"/>
     </g>
    </g>
   </g>
   <g id="line2d_16">
    <path d="M 66.862206 246.401736 
L 67.363233 246.548554 
L 67.86426 246.695372 
L 68.365287 246.842191 
L 68.866315 246.989009 
L 69.367342 247.135827 
L 69.868369 247.282645 
L 70.369397 247.429464 
L 70.870425 247.576282 
L 71.371452 247.7231 
L 71.872478 247.869918 
L 72.373506 248.016736 
L 72.874533 248.163555 
L 73.375561 248.310373 
L 73.876588 248.457191 
L 74.377616 248.60401 
L 74.878644 248.750828 
L 75.379671 248.897646 
L 75.880699 249.044464 
L 76.381727 249.191283 
L 76.882752 249.338101 
L 77.38378 249.484919 
L 77.884807 249.631737 
L 78.385835 249.778555 
L 78.886861 249.925373 
L 79.387888 250.072191 
L 79.888916 250.21901 
L 80.389944 250.365828 
L 80.890971 250.512646 
L 81.391999 250.659465 
L 81.893027 250.806283 
L 82.394054 250.953101 
L 82.895082 251.09992 
L 83.396109 251.246738 
L 83.897135 251.393556 
L 84.398163 251.540374 
L 84.89919 251.687192 
L 85.400218 251.834011 
L 85.901246 251.980829 
L 86.402273 252.127647 
L 86.903299 252.274465 
L 87.404326 252.421283 
L 87.905354 252.568102 
L 88.406382 252.71492 
L 88.907409 252.861738 
L 89.408437 253.008557 
L 89.909465 253.155375 
L 90.410488 253.302192 
L 90.911516 253.44901 
L 91.412544 253.595829 
L 91.913571 253.742647 
L 92.414599 253.889465 
L 92.915626 254.036284 
L 93.416654 254.183102 
L 93.917682 254.32992 
L 94.418709 254.476739 
L 94.919737 254.623557 
L 95.420765 254.770375 
L 95.921792 254.917194 
L 96.42282 255.064012 
L 96.923848 255.21083 
L 97.424875 255.357648 
L 97.925903 255.504467 
L 98.42693 255.651285 
L 98.927958 255.798103 
L 99.428986 255.944922 
L 99.930013 256.09174 
L 100.431041 256.238558 
L 100.932065 256.385376 
L 101.433092 256.532194 
L 101.93412 256.679012 
L 102.435147 256.82583 
L 102.936175 256.972649 
L 103.437203 257.119467 
L 103.93823 257.266285 
L 104.439258 257.413104 
L 104.940286 257.559922 
L 105.441313 257.70674 
L 105.942341 257.853559 
L 106.443364 258.000376 
L 106.944392 258.147194 
L 107.44542 258.294012 
L 107.946447 258.440831 
L 108.447475 258.587649 
L 108.948503 258.734467 
L 109.44953 258.881286 
L 109.950558 259.028104 
L 110.451586 259.174922 
L 110.952613 259.321741 
L 111.453641 259.468559 
L 111.954668 259.615377 
L 112.455696 259.762196 
L 112.956724 259.909014 
L 113.457747 260.055831 
L 113.958775 260.202649 
L 114.459803 260.349468 
L 114.96083 260.496286 
L 115.461858 260.643104 
L 115.962886 260.789923 
L 116.463913 260.936741 
" clip-path="url(#p0c2aabd723)" style="fill: none; stroke: #008000; stroke-opacity: 0.6; stroke-width: 2.25; stroke-linecap: square"/>
   </g>
   <g id="patch_5">
    <path d="M 52.46 310.24 
L 52.46 173.67 
" style="fill: none; stroke: #000000; stroke-width: 0.8; stroke-linejoin: miter; stroke-linecap: square"/>
   </g>
   <g id="patch_6">
    <path d="M 52.46 310.24 
L 189.43 310.24 
" style="fill: none; stroke: #000000; stroke-width: 0.8; stroke-linejoin: miter; stroke-linecap: square"/>
   </g>
   <g id="text_15">
    <!-- r = -0.15  -->
    <g transform="translate(66.157 187.327) scale(0.1 -0.1)">
     <defs>
      <path id="DejaVuSans-2d" d="M 313 2009 
L 1997 2009 
L 1997 1497 
L 313 1497 
L 313 2009 
z
" transform="scale(0.015625)"/>
      <path id="DejaVuSans-35" d="M 691 4666 
L 3169 4666 
L 3169 4134 
L 1269 4134 
L 1269 2991 
Q 1406 3038 1543 3061 
Q 1681 3084 1819 3084 
Q 2600 3084 3056 2656 
Q 3513 2228 3513 1497 
Q 3513 744 3044 326 
Q 2575 -91 1722 -91 
Q 1428 -91 1123 -41 
Q 819 9 494 109 
L 494 744 
Q 775 591 1075 516 
Q 1375 441 1709 441 
Q 2250 441 2565 725 
Q 2881 1009 2881 1497 
Q 2881 1984 2565 2268 
Q 2250 2553 1709 2553 
Q 1456 2553 1204 2497 
Q 953 2441 691 2322 
L 691 4666 
z
" transform="scale(0.015625)"/>
     </defs>
     <use xlink:href="#DejaVuSans-72"/>
     <use xlink:href="#DejaVuSans-20" transform="translate(41.113281 0)"/>
     <use xlink:href="#DejaVuSans-3d" transform="translate(72.900391 0)"/>
     <use xlink:href="#DejaVuSans-20" transform="translate(156.689453 0)"/>
     <use xlink:href="#DejaVuSans-2d" transform="translate(188.476562 0)"/>
     <use xlink:href="#DejaVuSans-30" transform="translate(224.560547 0)"/>
     <use xlink:href="#DejaVuSans-2e" transform="translate(288.183594 0)"/>
     <use xlink:href="#DejaVuSans-31" transform="translate(319.970703 0)"/>
     <use xlink:href="#DejaVuSans-35" transform="translate(383.59375 0)"/>
     <use xlink:href="#DejaVuSans-20" transform="translate(447.216797 0)"/>
    </g>
   </g>
   <g id="text_16">
    <!-- p = 0.732 -->
    <g transform="translate(120.945 187.327) scale(0.1 -0.1)">
     <defs>
      <path id="DejaVuSans-37" d="M 525 4666 
L 3525 4666 
L 3525 4397 
L 1831 0 
L 1172 0 
L 2766 4134 
L 525 4134 
L 525 4666 
z
" transform="scale(0.015625)"/>
      <path id="DejaVuSans-33" d="M 2597 2516 
Q 3050 2419 3304 2112 
Q 3559 1806 3559 1356 
Q 3559 666 3084 287 
Q 2609 -91 1734 -91 
Q 1441 -91 1130 -33 
Q 819 25 488 141 
L 488 750 
Q 750 597 1062 519 
Q 1375 441 1716 441 
Q 2309 441 2620 675 
Q 2931 909 2931 1356 
Q 2931 1769 2642 2001 
Q 2353 2234 1838 2234 
L 1294 2234 
L 1294 2753 
L 1863 2753 
Q 2328 2753 2575 2939 
Q 2822 3125 2822 3475 
Q 2822 3834 2567 4026 
Q 2313 4219 1838 4219 
Q 1578 4219 1281 4162 
Q 984 4106 628 3988 
L 628 4550 
Q 988 4650 1302 4700 
Q 1616 4750 1894 4750 
Q 2613 4750 3031 4423 
Q 3450 4097 3450 3541 
Q 3450 3153 3228 2886 
Q 3006 2619 2597 2516 
z
" transform="scale(0.015625)"/>
     </defs>
     <use xlink:href="#DejaVuSans-70"/>
     <use xlink:href="#DejaVuSans-20" transform="translate(63.476562 0)"/>
     <use xlink:href="#DejaVuSans-3d" transform="translate(95.263672 0)"/>
     <use xlink:href="#DejaVuSans-20" transform="translate(179.052734 0)"/>
     <use xlink:href="#DejaVuSans-30" transform="translate(210.839844 0)"/>
     <use xlink:href="#DejaVuSans-2e" transform="translate(274.462891 0)"/>
     <use xlink:href="#DejaVuSans-37" transform="translate(306.25 0)"/>
     <use xlink:href="#DejaVuSans-33" transform="translate(369.873047 0)"/>
     <use xlink:href="#DejaVuSans-32" transform="translate(433.496094 0)"/>
    </g>
   </g>
  </g>
  <g id="axes_3">
   <g id="patch_7">
    <path d="M 204.43 310.24 
L 341.4 310.24 
L 341.4 173.67 
L 204.43 173.67 
z
" style="fill: #ffffff"/>
   </g>
   <g id="matplotlib.axis_4">
    <g id="xtick_11">
     <g id="line2d_17">
      <g>
       <use xlink:href="#m76b2111ad8" x="204.43" y="310.24" style="stroke: #000000; stroke-width: 0.8"/>
      </g>
     </g>
     <g id="text_17">
      <!-- 0 -->
      <g transform="translate(201.24875 324.838438) scale(0.1 -0.1)">
       <use xlink:href="#DejaVuSans-30"/>
      </g>
     </g>
    </g>
    <g id="xtick_12">
     <g id="line2d_18">
      <g>
       <use xlink:href="#m76b2111ad8" x="238.6725" y="310.24" style="stroke: #000000; stroke-width: 0.8"/>
      </g>
     </g>
     <g id="text_18">
      <!-- 2 -->
      <g transform="translate(235.49125 324.838438) scale(0.1 -0.1)">
       <use xlink:href="#DejaVuSans-32"/>
      </g>
     </g>
    </g>
    <g id="xtick_13">
     <g id="line2d_19">
      <g>
       <use xlink:href="#m76b2111ad8" x="272.915" y="310.24" style="stroke: #000000; stroke-width: 0.8"/>
      </g>
     </g>
     <g id="text_19">
      <!-- 4 -->
      <g transform="translate(269.73375 324.838438) scale(0.1 -0.1)">
       <use xlink:href="#DejaVuSans-34"/>
      </g>
     </g>
    </g>
    <g id="xtick_14">
     <g id="line2d_20">
      <g>
       <use xlink:href="#m76b2111ad8" x="307.1575" y="310.24" style="stroke: #000000; stroke-width: 0.8"/>
      </g>
     </g>
     <g id="text_20">
      <!-- 6 -->
      <g transform="translate(303.97625 324.838438) scale(0.1 -0.1)">
       <use xlink:href="#DejaVuSans-36"/>
      </g>
     </g>
    </g>
    <g id="xtick_15">
     <g id="line2d_21">
      <g>
       <use xlink:href="#m76b2111ad8" x="341.4" y="310.24" style="stroke: #000000; stroke-width: 0.8"/>
      </g>
     </g>
     <g id="text_21">
      <!-- 8 -->
      <g transform="translate(338.21875 324.838438) scale(0.1 -0.1)">
       <use xlink:href="#DejaVuSans-38"/>
      </g>
     </g>
    </g>
    <g id="text_22">
     <!-- inferred habitual tendency -->
     <g transform="translate(206.468906 338.516563) scale(0.1 -0.1)">
      <use xlink:href="#DejaVuSans-69"/>
      <use xlink:href="#DejaVuSans-6e" transform="translate(27.783203 0)"/>
      <use xlink:href="#DejaVuSans-66" transform="translate(91.162109 0)"/>
      <use xlink:href="#DejaVuSans-65" transform="translate(126.367188 0)"/>
      <use xlink:href="#DejaVuSans-72" transform="translate(187.890625 0)"/>
      <use xlink:href="#DejaVuSans-72" transform="translate(227.253906 0)"/>
      <use xlink:href="#DejaVuSans-65" transform="translate(266.117188 0)"/>
      <use xlink:href="#DejaVuSans-64" transform="translate(327.640625 0)"/>
      <use xlink:href="#DejaVuSans-20" transform="translate(391.117188 0)"/>
      <use xlink:href="#DejaVuSans-68" transform="translate(422.904297 0)"/>
      <use xlink:href="#DejaVuSans-61" transform="translate(486.283203 0)"/>
      <use xlink:href="#DejaVuSans-62" transform="translate(547.5625 0)"/>
      <use xlink:href="#DejaVuSans-69" transform="translate(611.039062 0)"/>
      <use xlink:href="#DejaVuSans-74" transform="translate(638.822266 0)"/>
      <use xlink:href="#DejaVuSans-75" transform="translate(678.03125 0)"/>
      <use xlink:href="#DejaVuSans-61" transform="translate(741.410156 0)"/>
      <use xlink:href="#DejaVuSans-6c" transform="translate(802.689453 0)"/>
      <use xlink:href="#DejaVuSans-20" transform="translate(830.472656 0)"/>
      <use xlink:href="#DejaVuSans-74" transform="translate(862.259766 0)"/>
      <use xlink:href="#DejaVuSans-65" transform="translate(901.46875 0)"/>
      <use xlink:href="#DejaVuSans-6e" transform="translate(962.992188 0)"/>
      <use xlink:href="#DejaVuSans-64" transform="translate(1026.371094 0)"/>
      <use xlink:href="#DejaVuSans-65" transform="translate(1089.847656 0)"/>
      <use xlink:href="#DejaVuSans-6e" transform="translate(1151.371094 0)"/>
      <use xlink:href="#DejaVuSans-63" transform="translate(1214.75 0)"/>
      <use xlink:href="#DejaVuSans-79" transform="translate(1269.730469 0)"/>
     </g>
    </g>
   </g>
   <g id="patch_8">
    <path d="M 204.43 310.24 
L 341.4 310.24 
" style="fill: none; stroke: #000000; stroke-width: 0.8; stroke-linejoin: miter; stroke-linecap: square"/>
   </g>
   <g id="text_23">
    <!-- r = 1.00  -->
    <g transform="translate(218.127 187.327) scale(0.1 -0.1)">
     <use xlink:href="#DejaVuSans-72"/>
     <use xlink:href="#DejaVuSans-20" transform="translate(41.113281 0)"/>
     <use xlink:href="#DejaVuSans-3d" transform="translate(72.900391 0)"/>
     <use xlink:href="#DejaVuSans-20" transform="translate(156.689453 0)"/>
     <use xlink:href="#DejaVuSans-31" transform="translate(188.476562 0)"/>
     <use xlink:href="#DejaVuSans-2e" transform="translate(252.099609 0)"/>
     <use xlink:href="#DejaVuSans-30" transform="translate(283.886719 0)"/>
     <use xlink:href="#DejaVuSans-30" transform="translate(347.509766 0)"/>
     <use xlink:href="#DejaVuSans-20" transform="translate(411.132812 0)"/>
    </g>
   </g>
   <g id="text_24">
    <!-- p = 0.000 -->
    <g transform="translate(272.915 187.327) scale(0.1 -0.1)">
     <use xlink:href="#DejaVuSans-70"/>
     <use xlink:href="#DejaVuSans-20" transform="translate(63.476562 0)"/>
     <use xlink:href="#DejaVuSans-3d" transform="translate(95.263672 0)"/>
     <use xlink:href="#DejaVuSans-20" transform="translate(179.052734 0)"/>
     <use xlink:href="#DejaVuSans-30" transform="translate(210.839844 0)"/>
     <use xlink:href="#DejaVuSans-2e" transform="translate(274.462891 0)"/>
     <use xlink:href="#DejaVuSans-30" transform="translate(306.25 0)"/>
     <use xlink:href="#DejaVuSans-30" transform="translate(369.873047 0)"/>
     <use xlink:href="#DejaVuSans-30" transform="translate(433.496094 0)"/>
    </g>
   </g>
  </g>
  <g id="axes_4">
   <g id="patch_9">
    <path d="M 66.862206 155.17 
L 79.262632 155.17 
L 79.262632 57.62 
L 66.862206 57.62 
z
" clip-path="url(#pfe010af53c)" style="fill: #1f77b4; fill-opacity: 0.75; stroke: #000000; stroke-linejoin: miter"/>
   </g>
   <g id="patch_10">
    <path d="M 79.262632 155.17 
L 91.663059 155.17 
L 91.663059 25.103333 
L 79.262632 25.103333 
z
" clip-path="url(#pfe010af53c)" style="fill: #1f77b4; fill-opacity: 0.75; stroke: #000000; stroke-linejoin: miter"/>
   </g>
   <g id="patch_11">
    <path d="M 91.663059 155.17 
L 104.063486 155.17 
L 104.063486 155.17 
L 91.663059 155.17 
z
" clip-path="url(#pfe010af53c)" style="fill: #1f77b4; fill-opacity: 0.75; stroke: #000000; stroke-linejoin: miter"/>
   </g>
   <g id="patch_12">
    <path d="M 104.063486 155.17 
L 116.463913 155.17 
L 116.463913 122.653333 
L 104.063486 122.653333 
z
" clip-path="url(#pfe010af53c)" style="fill: #1f77b4; fill-opacity: 0.75; stroke: #000000; stroke-linejoin: miter"/>
   </g>
  </g>
  <g id="axes_5">
   <g id="patch_13">
    <path d="M 231.602426 310.24 
L 251.879587 310.24 
L 251.879587 180.173333 
L 231.602426 180.173333 
z
" clip-path="url(#pf1bddd4c49)" style="fill: #1f77b4; fill-opacity: 0.75; stroke: #000000; stroke-linejoin: miter"/>
   </g>
   <g id="patch_14">
    <path d="M 251.879587 310.24 
L 272.156748 310.24 
L 272.156748 277.723333 
L 251.879587 277.723333 
z
" clip-path="url(#pf1bddd4c49)" style="fill: #1f77b4; fill-opacity: 0.75; stroke: #000000; stroke-linejoin: miter"/>
   </g>
   <g id="patch_15">
    <path d="M 272.156748 310.24 
L 292.433908 310.24 
L 292.433908 277.723333 
L 272.156748 277.723333 
z
" clip-path="url(#pf1bddd4c49)" style="fill: #1f77b4; fill-opacity: 0.75; stroke: #000000; stroke-linejoin: miter"/>
   </g>
   <g id="patch_16">
    <path d="M 292.433908 310.24 
L 312.711069 310.24 
L 312.711069 245.206667 
L 292.433908 245.206667 
z
" clip-path="url(#pf1bddd4c49)" style="fill: #1f77b4; fill-opacity: 0.75; stroke: #000000; stroke-linejoin: miter"/>
   </g>
  </g>
 </g>
 <defs>
  <clipPath id="p0c2aabd723">
   <rect x="52.46" y="173.67" width="136.97" height="136.57"/>
  </clipPath>
  <clipPath id="pfe010af53c">
   <rect x="52.46" y="18.6" width="136.97" height="136.57"/>
  </clipPath>
  <clipPath id="pf1bddd4c49">
   <rect x="204.43" y="173.67" width="136.97" height="136.57"/>
  </clipPath>
 </defs>
</svg>
