<?xml version="1.0" encoding="utf-8" standalone="no"?>
<!DOCTYPE svg PUBLIC "-//W3C//DTD SVG 1.1//EN"
  "http://www.w3.org/Graphics/SVG/1.1/DTD/svg11.dtd">
<svg xmlns:xlink="http://www.w3.org/1999/xlink" width="360pt" height="360pt" viewBox="0 0 360 360" xmlns="http://www.w3.org/2000/svg" version="1.1">
 <metadata>
  <rdf:RDF xmlns:dc="http://purl.org/dc/elements/1.1/" xmlns:cc="http://creativecommons.org/ns#" xmlns:rdf="http://www.w3.org/1999/02/22-rdf-syntax-ns#">
   <cc:Work>
    <dc:type rdf:resource="http://purl.org/dc/dcmitype/StillImage"/>
    <dc:date>2026-02-12T14:05:37.970325</dc:date>
    <dc:format>image/svg+xml</dc:format>
    <dc:creator>
     <cc:Agent>
      <dc:title>Matplotlib v3.10.8, https://matplotlib.org/</dc:title>
     </cc:Agent>
    </dc:creator>
   </cc:Work>
  </rdf:RDF>
 </metadata>
 <defs>
  <style type="text/css">*{stroke-linejoin: round; stroke-linecap: butt}</style>
 </defs>
 <g id="figure_1">
  <g id="patch_1">
   <path d="M 0 360 
L 360 360 
L 360 0 
L 0 0 
z
" style="fill: #ffffff"/>
  </g>
  <g id="axes_1">
   <g id="patch_2">
    <path d="M 46.07 155.17 
L 186.235 155.17 
L 186.235 18.6 
L 46.07 18.6 
z
" style="fill: #ffffff"/>
   </g>
   <g id="matplotlib.axis_1">
    <g id="xtick_1">
     <g id="line2d_1">
      <defs>
       <path id="m4c1df10b95" d="M 0 0 
L 0 3.5 
" style="stroke: #000000; stroke-width: 0.8"/>
      </defs>
      <g>
       <use xlink:href="#m4c1df10b95" x="46.07" y="155.17" style="stroke: #000000; stroke-width: 0.8"/>
      </g>
     </g>
    </g>
    <g id="xtick_2">
     <g id="line2d_2">
      <g>
       <use xlink:href="#m4c1df10b95" x="81.11125" y="155.17" style="stroke: #000000; stroke-width: 0.8"/>
      </g>
     </g>
    </g>
    <g id="xtick_3">
     <g id="line2d_3">
      <g>
       <use xlink:href="#m4c1df10b95" x="116.1525" y="155.17" style="stroke: #000000; stroke-width: 0.8"/>
      </g>
     </g>
    </g>
    <g id="xtick_4">
     <g id="line2d_4">
      <g>
       <use xlink:href="#m4c1df10b95" x="151.19375" y="155.17" style="stroke: #000000; stroke-width: 0.8"/>
      </g>
     </g>
    </g>
    <g id="xtick_5">
     <g id="line2d_5">
      <g>
       <use xlink:href="#m4c1df10b95" x="186.235" y="155.17" style="stroke: #000000; stroke-width: 0.8"/>
      </g>
     </g>
    </g>
   </g>
   <g id="patch_3">
    <path d="M 46.07 155.17 
L 186.235 155.17 
" style="fill: none; stroke: #000000; stroke-width: 0.8; stroke-linejoin: miter; stroke-linecap: square"/>
   </g>
   <g id="text_1">
    <!-- r = 1.00  -->
    <g transform="translate(60.0865 32.257) scale(0.1 -0.1)">
     <defs>
      <path id="DejaVuSans-72" d="M 2631 2963 
Q 2534 3019 2420 3045 
Q 2306 3072 2169 3072 
Q 1681 3072 1420 2755 
Q 1159 2438 1159 1844 
L 1159 0 
L 581 0 
L 581 3500 
L 1159 3500 
L 1159 2956 
Q 1341 3275 1631 3429 
Q 1922 3584 2338 3584 
Q 2397 3584 2469 3576 
Q 2541 3569 2628 3553 
L 2631 2963 
z
" transform="scale(0.015625)"/>
      <path id="DejaVuSans-20" transform="scale(0.015625)"/>
      <path id="DejaVuSans-3d" d="M 678 2906 
L 4684 2906 
L 4684 2381 
L 678 2381 
L 678 2906 
z
M 678 1631 
L 4684 1631 
L 4684 1100 
L 678 1100 
L 678 1631 
z
" transform="scale(0.015625)"/>
      <path id="DejaVuSans-31" d="M 794 531 
L 1825 531 
L 1825 4091 
L 703 3866 
L 703 4441 
L 1819 4666 
L 2450 4666 
L 2450 531 
L 3481 531 
L 3481 0 
L 794 0 
L 794 531 
z
" transform="scale(0.015625)"/>
      <path id="DejaVuSans-2e" d="M 684 794 
L 1344 794 
L 1344 0 
L 684 0 
L 684 794 
z
" transform="scale(0.015625)"/>
      <path id="DejaVuSans-30" d="M 2034 4250 
Q 1547 4250 1301 3770 
Q 1056 3291 1056 2328 
Q 1056 1369 1301 889 
Q 1547 409 2034 409 
Q 2525 409 2770 889 
Q 3016 1369 3016 2328 
Q 3016 3291 2770 3770 
Q 2525 4250 2034 4250 
z
M 2034 4750 
Q 2819 4750 3233 4129 
Q 3647 3509 3647 2328 
Q 3647 1150 3233 529 
Q 2819 -91 2034 -91 
Q 1250 -91 836 529 
Q 422 1150 422 2328 
Q 422 3509 836 4129 
Q 1250 4750 2034 4750 
z
" transform="scale(0.015625)"/>
     </defs>
     <use xlink:href="#DejaVuSans-72"/>
     <use xlink:href="#DejaVuSans-20" transform="translate(41.113281 0)"/>
     <use xlink:href="#DejaVuSans-3d" transform="translate(72.900391 0)"/>
     <use xlink:href="#DejaVuSans-20" transform="translate(156.689453 0)"/>
     <use xlink:href="#DejaVuSans-31" transform="translate(188.476562 0)"/>
     <use xlink:href="#DejaVuSans-2e" transform="translate(252.099609 0)"/>
     <use xlink:href="#DejaVuSans-30" transform="translate(283.886719 0)"/>
     <use xlink:href="#DejaVuSans-30" transform="translate(347.509766 0)"/>
     <use xlink:href="#DejaVuSans-20" transform="translate(411.132812 0)"/>
    </g>
   </g>
   <g id="text_2">
    <!-- p = 0.000 -->
    <g transform="translate(116.1525 32.257) scale(0.1 -0.1)">
     <defs>
      <path id="DejaVuSans-70" d="M 1159 525 
L 1159 -1331 
L 581 -1331 
L 581 3500 
L 1159 3500 
L 1159 2969 
Q 1341 3281 1617 3432 
Q 1894 3584 2278 3584 
Q 2916 3584 3314 3078 
Q 3713 2572 3713 1747 
Q 3713 922 3314 415 
Q 2916 -91 2278 -91 
Q 1894 -91 1617 61 
Q 1341 213 1159 525 
z
M 3116 1747 
Q 3116 2381 2855 2742 
Q 2594 3103 2138 3103 
Q 1681 3103 1420 2742 
Q 1159 2381 1159 1747 
Q 1159 1113 1420 752 
Q 1681 391 2138 391 
Q 2594 391 2855 752 
Q 3116 1113 3116 1747 
z
" transform="scale(0.015625)"/>
     </defs>
     <use xlink:href="#DejaVuSans-70"/>
     <use xlink:href="#DejaVuSans-20" transform="translate(63.476562 0)"/>
     <use xlink:href="#DejaVuSans-3d" transform="translate(95.263672 0)"/>
     <use xlink:href="#DejaVuSans-20" transform="translate(179.052734 0)"/>
     <use xlink:href="#DejaVuSans-30" transform="translate(210.839844 0)"/>
     <use xlink:href="#DejaVuSans-2e" transform="translate(274.462891 0)"/>
     <use xlink:href="#DejaVuSans-30" transform="translate(306.25 0)"/>
     <use xlink:href="#DejaVuSans-30" transform="translate(369.873047 0)"/>
     <use xlink:href="#DejaVuSans-30" transform="translate(433.496094 0)"/>
    </g>
   </g>
  </g>
  <g id="axes_2">
   <g id="patch_4">
    <path d="M 46.07 310.24 
L 186.235 310.24 
L 186.235 173.67 
L 46.07 173.67 
z
" style="fill: #ffffff"/>
   </g>
   <g id="PathCollection_1">
    <defs>
     <path id="m01b6ce8afc" d="M 0 3 
C 0.795609 3 1.55874 2.683901 2.12132 2.12132 
C 2.683901 1.55874 3 0.795609 3 0 
C 3 -0.795609 2.683901 -1.55874 2.12132 -2.12132 
C 1.55874 -2.683901 0.795609 -3 0 -3 
C -0.795609 -3 -1.55874 -2.683901 -2.12132 -2.12132 
C -2.683901 -1.55874 -3 -0.795609 -3 0 
C -3 0.795609 -2.683901 1.55874 -2.12132 2.12132 
C -1.55874 2.683901 -0.795609 3 0 3 
z
" style="stroke: #1f77b4; stroke-opacity: 0.8"/>
    </defs>
    <g clip-path="url(#pb8d5bba863)">
     <use xlink:href="#m01b6ce8afc" x="77.9162" y="197.551648" style="fill: #1f77b4; fill-opacity: 0.8; stroke: #1f77b4; stroke-opacity: 0.8"/>
     <use xlink:href="#m01b6ce8afc" x="63.338573" y="280.151252" style="fill: #1f77b4; fill-opacity: 0.8; stroke: #1f77b4; stroke-opacity: 0.8"/>
     <use xlink:href="#m01b6ce8afc" x="64.349636" y="283.802183" style="fill: #1f77b4; fill-opacity: 0.8; stroke: #1f77b4; stroke-opacity: 0.8"/>
     <use xlink:href="#m01b6ce8afc" x="58.52413" y="279.338446" style="fill: #1f77b4; fill-opacity: 0.8; stroke: #1f77b4; stroke-opacity: 0.8"/>
     <use xlink:href="#m01b6ce8afc" x="64.703382" y="282.275351" style="fill: #1f77b4; fill-opacity: 0.8; stroke: #1f77b4; stroke-opacity: 0.8"/>
     <use xlink:href="#m01b6ce8afc" x="58.103605" y="258.973054" style="fill: #1f77b4; fill-opacity: 0.8; stroke: #1f77b4; stroke-opacity: 0.8"/>
     <use xlink:href="#m01b6ce8afc" x="71.021906" y="278.813362" style="fill: #1f77b4; fill-opacity: 0.8; stroke: #1f77b4; stroke-opacity: 0.8"/>
    </g>
   </g>
   <g id="FillBetweenPolyCollection_1">
    <path d="M 58.103605 263.643843 
L 58.103605 322.08602 
L 58.303732 321.049175 
L 58.503859 319.938911 
L 58.703986 318.763375 
L 58.904114 317.735779 
L 59.104241 316.709514 
L 59.304368 315.683255 
L 59.504495 314.65699 
L 59.704623 313.572164 
L 59.904749 312.301838 
L 60.104877 311.026887 
L 60.305004 309.751937 
L 60.505132 308.476987 
L 60.705258 307.202043 
L 60.905386 305.927092 
L 61.105513 304.809845 
L 61.30564 303.699913 
L 61.505767 302.487767 
L 61.705895 301.389907 
L 61.906022 300.292047 
L 62.10615 299.194186 
L 62.306276 298.096332 
L 62.506404 296.998472 
L 62.70653 295.900617 
L 62.906658 294.696972 
L 63.106785 293.55633 
L 63.306913 292.583376 
L 63.50704 291.508314 
L 63.707166 290.400258 
L 63.907293 289.292189 
L 64.107421 288.184121 
L 64.307548 287.076052 
L 64.507676 286.019886 
L 64.707803 285.556253 
L 64.907931 285.493514 
L 65.108058 285.923948 
L 65.308186 286.205076 
L 65.508311 286.913383 
L 65.708439 287.510425 
L 65.908566 287.924796 
L 66.108694 288.649022 
L 66.308821 288.856146 
L 66.508947 289.431853 
L 66.709074 290.011321 
L 66.909202 290.590788 
L 67.109329 291.170255 
L 67.309457 291.749723 
L 67.509584 292.32919 
L 67.709712 292.908657 
L 67.909839 293.488125 
L 68.109967 294.067592 
L 68.310094 294.647059 
L 68.51022 295.226521 
L 68.710347 295.805988 
L 68.910475 296.385455 
L 69.110602 296.964923 
L 69.310728 297.544384 
L 69.510855 298.123851 
L 69.710983 298.703319 
L 69.91111 299.282786 
L 70.111238 299.862253 
L 70.311365 300.441721 
L 70.511493 301.021188 
L 70.71162 301.600655 
L 70.911748 302.180123 
L 71.111875 302.75959 
L 71.312001 303.339051 
L 71.512128 303.918518 
L 71.712256 304.497986 
L 71.912383 305.077453 
L 72.112509 305.656914 
L 72.312636 306.236382 
L 72.512764 306.815849 
L 72.712891 307.395316 
L 72.913019 307.974784 
L 73.113146 308.554251 
L 73.313274 309.133718 
L 73.513401 309.713186 
L 73.713529 310.292653 
L 73.913656 310.87212 
L 74.113784 311.451588 
L 74.313909 312.031049 
L 74.514037 312.610516 
L 74.714164 313.189984 
L 74.91429 313.769445 
L 75.114417 314.348912 
L 75.314545 314.92838 
L 75.514672 315.507847 
L 75.7148 316.087314 
L 75.914927 316.666782 
L 76.115055 317.246249 
L 76.315182 317.825716 
L 76.51531 318.405184 
L 76.715437 318.984651 
L 76.915565 319.564118 
L 77.115692 320.143586 
L 77.315816 320.723041 
L 77.515943 321.302508 
L 77.716071 321.881976 
L 77.9162 322.461449 
L 77.9162 198.716702 
L 77.9162 198.716702 
L 77.716071 199.867433 
L 77.515943 200.912762 
L 77.315816 202.121644 
L 77.115692 203.177071 
L 76.915565 204.267485 
L 76.715437 205.404475 
L 76.51531 206.480351 
L 76.315182 207.707026 
L 76.115055 208.920991 
L 75.914927 210.034031 
L 75.7148 210.981426 
L 75.514672 211.755206 
L 75.314545 212.727475 
L 75.114417 213.579829 
L 74.91429 214.508956 
L 74.714164 215.266763 
L 74.514037 216.075927 
L 74.313909 216.901317 
L 74.113784 217.646756 
L 73.913656 218.392597 
L 73.713529 219.138438 
L 73.513401 219.88428 
L 73.313274 220.630121 
L 73.113146 221.375962 
L 72.913019 222.123795 
L 72.712891 222.879411 
L 72.512764 223.750858 
L 72.312636 224.627008 
L 72.112509 225.506572 
L 71.912383 226.374234 
L 71.712256 227.149628 
L 71.512128 227.901637 
L 71.312001 228.653647 
L 71.111875 229.407966 
L 70.911748 230.162964 
L 70.71162 230.917961 
L 70.511493 231.672958 
L 70.311365 232.429602 
L 70.111238 233.186785 
L 69.91111 233.851868 
L 69.710983 234.514939 
L 69.510855 235.298291 
L 69.310728 236.081643 
L 69.110602 236.864986 
L 68.910475 237.539569 
L 68.710347 238.119665 
L 68.51022 238.701251 
L 68.310094 239.282832 
L 68.109967 240.001557 
L 67.909839 240.798675 
L 67.709712 241.600288 
L 67.509584 242.403203 
L 67.309457 243.206119 
L 67.109329 244.009035 
L 66.909202 244.778517 
L 66.709074 245.336571 
L 66.508947 245.972304 
L 66.308821 246.779842 
L 66.108694 247.587388 
L 65.908566 248.394935 
L 65.708439 249.077999 
L 65.508311 249.682786 
L 65.308186 250.421864 
L 65.108058 251.026809 
L 64.907931 251.782359 
L 64.707803 252.537908 
L 64.507676 253.184031 
L 64.307548 253.930113 
L 64.107421 254.676196 
L 63.907293 255.422279 
L 63.707166 256.168361 
L 63.50704 256.914436 
L 63.306913 257.539706 
L 63.106785 258.156581 
L 62.906658 258.774775 
L 62.70653 259.281226 
L 62.506404 259.759127 
L 62.306276 260.238467 
L 62.10615 260.718033 
L 61.906022 261.401885 
L 61.705895 262.196029 
L 61.505767 262.990174 
L 61.30564 263.735389 
L 61.105513 264.350423 
L 60.905386 264.861952 
L 60.705258 265.575852 
L 60.505132 266.183832 
L 60.305004 266.665234 
L 60.104877 266.676345 
L 59.904749 266.067768 
L 59.704623 265.566619 
L 59.504495 265.247985 
L 59.304368 265.265072 
L 59.104241 265.078136 
L 58.904114 264.6861 
L 58.703986 264.618622 
L 58.503859 263.921578 
L 58.303732 263.653976 
L 58.103605 263.643843 
z
" clip-path="url(#pb8d5bba863)" style="fill: #008000; fill-opacity: 0.15"/>
   </g>
   <g id="matplotlib.axis_2">
    <g id="xtick_6">
     <g id="line2d_6">
      <g>
       <use xlink:href="#m4c1df10b95" x="46.07" y="310.24" style="stroke: #000000; stroke-width: 0.8"/>
      </g>
     </g>
     <g id="text_3">
      <!-- 0 -->
      <g transform="translate(42.88875 324.838438) scale(0.1 -0.1)">
       <use xlink:href="#DejaVuSans-30"/>
      </g>
     </g>
    </g>
    <g id="xtick_7">
     <g id="line2d_7">
      <g>
       <use xlink:href="#m4c1df10b95" x="81.11125" y="310.24" style="stroke: #000000; stroke-width: 0.8"/>
      </g>
     </g>
     <g id="text_4">
      <!-- 2 -->
      <g transform="translate(77.93 324.838438) scale(0.1 -0.1)">
       <defs>
        <path id="DejaVuSans-32" d="M 1228 531 
L 3431 531 
L 3431 0 
L 469 0 
L 469 531 
Q 828 903 1448 1529 
Q 2069 2156 2228 2338 
Q 2531 2678 2651 2914 
Q 2772 3150 2772 3378 
Q 2772 3750 2511 3984 
Q 2250 4219 1831 4219 
Q 1534 4219 1204 4116 
Q 875 4013 500 3803 
L 500 4441 
Q 881 4594 1212 4672 
Q 1544 4750 1819 4750 
Q 2544 4750 2975 4387 
Q 3406 4025 3406 3419 
Q 3406 3131 3298 2873 
Q 3191 2616 2906 2266 
Q 2828 2175 2409 1742 
Q 1991 1309 1228 531 
z
" transform="scale(0.015625)"/>
       </defs>
       <use xlink:href="#DejaVuSans-32"/>
      </g>
     </g>
    </g>
    <g id="xtick_8">
     <g id="line2d_8">
      <g>
       <use xlink:href="#m4c1df10b95" x="116.1525" y="310.24" style="stroke: #000000; stroke-width: 0.8"/>
      </g>
     </g>
     <g id="text_5">
      <!-- 4 -->
      <g transform="translate(112.97125 324.838438) scale(0.1 -0.1)">
       <defs>
        <path id="DejaVuSans-34" d="M 2419 4116 
L 825 1625 
L 2419 1625 
L 2419 4116 
z
M 2253 4666 
L 3047 4666 
L 3047 1625 
L 3713 1625 
L 3713 1100 
L 3047 1100 
L 3047 0 
L 2419 0 
L 2419 1100 
L 313 1100 
L 313 1709 
L 2253 4666 
z
" transform="scale(0.015625)"/>
       </defs>
       <use xlink:href="#DejaVuSans-34"/>
      </g>
     </g>
    </g>
    <g id="xtick_9">
     <g id="line2d_9">
      <g>
       <use xlink:href="#m4c1df10b95" x="151.19375" y="310.24" style="stroke: #000000; stroke-width: 0.8"/>
      </g>
     </g>
     <g id="text_6">
      <!-- 6 -->
      <g transform="translate(148.0125 324.838438) scale(0.1 -0.1)">
       <defs>
        <path id="DejaVuSans-36" d="M 2113 2584 
Q 1688 2584 1439 2293 
Q 1191 2003 1191 1497 
Q 1191 994 1439 701 
Q 1688 409 2113 409 
Q 2538 409 2786 701 
Q 3034 994 3034 1497 
Q 3034 2003 2786 2293 
Q 2538 2584 2113 2584 
z
M 3366 4563 
L 3366 3988 
Q 3128 4100 2886 4159 
Q 2644 4219 2406 4219 
Q 1781 4219 1451 3797 
Q 1122 3375 1075 2522 
Q 1259 2794 1537 2939 
Q 1816 3084 2150 3084 
Q 2853 3084 3261 2657 
Q 3669 2231 3669 1497 
Q 3669 778 3244 343 
Q 2819 -91 2113 -91 
Q 1303 -91 875 529 
Q 447 1150 447 2328 
Q 447 3434 972 4092 
Q 1497 4750 2381 4750 
Q 2619 4750 2861 4703 
Q 3103 4656 3366 4563 
z
" transform="scale(0.015625)"/>
       </defs>
       <use xlink:href="#DejaVuSans-36"/>
      </g>
     </g>
    </g>
    <g id="xtick_10">
     <g id="line2d_10">
      <g>
       <use xlink:href="#m4c1df10b95" x="186.235" y="310.24" style="stroke: #000000; stroke-width: 0.8"/>
      </g>
     </g>
     <g id="text_7">
      <!-- 8 -->
      <g transform="translate(183.05375 324.838438) scale(0.1 -0.1)">
       <defs>
        <path id="DejaVuSans-38" d="M 2034 2216 
Q 1584 2216 1326 1975 
Q 1069 1734 1069 1313 
Q 1069 891 1326 650 
Q 1584 409 2034 409 
Q 2484 409 2743 651 
Q 3003 894 3003 1313 
Q 3003 1734 2745 1975 
Q 2488 2216 2034 2216 
z
M 1403 2484 
Q 997 2584 770 2862 
Q 544 3141 544 3541 
Q 544 4100 942 4425 
Q 1341 4750 2034 4750 
Q 2731 4750 3128 4425 
Q 3525 4100 3525 3541 
Q 3525 3141 3298 2862 
Q 3072 2584 2669 2484 
Q 3125 2378 3379 2068 
Q 3634 1759 3634 1313 
Q 3634 634 3220 271 
Q 2806 -91 2034 -91 
Q 1263 -91 848 271 
Q 434 634 434 1313 
Q 434 1759 690 2068 
Q 947 2378 1403 2484 
z
M 1172 3481 
Q 1172 3119 1398 2916 
Q 1625 2713 2034 2713 
Q 2441 2713 2670 2916 
Q 2900 3119 2900 3481 
Q 2900 3844 2670 4047 
Q 2441 4250 2034 4250 
Q 1625 4250 1398 4047 
Q 1172 3844 1172 3481 
z
" transform="scale(0.015625)"/>
       </defs>
       <use xlink:href="#DejaVuSans-38"/>
      </g>
     </g>
    </g>
    <g id="text_8">
     <!-- inferred dec temp -->
     <g transform="translate(71.336875 338.516563) scale(0.1 -0.1)">
      <defs>
       <path id="DejaVuSans-69" d="M 603 3500 
L 1178 3500 
L 1178 0 
L 603 0 
L 603 3500 
z
M 603 4863 
L 1178 4863 
L 1178 4134 
L 603 4134 
L 603 4863 
z
" transform="scale(0.015625)"/>
       <path id="DejaVuSans-6e" d="M 3513 2113 
L 3513 0 
L 2938 0 
L 2938 2094 
Q 2938 2591 2744 2837 
Q 2550 3084 2163 3084 
Q 1697 3084 1428 2787 
Q 1159 2491 1159 1978 
L 1159 0 
L 581 0 
L 581 3500 
L 1159 3500 
L 1159 2956 
Q 1366 3272 1645 3428 
Q 1925 3584 2291 3584 
Q 2894 3584 3203 3211 
Q 3513 2838 3513 2113 
z
" transform="scale(0.015625)"/>
       <path id="DejaVuSans-66" d="M 2375 4863 
L 2375 4384 
L 1825 4384 
Q 1516 4384 1395 4259 
Q 1275 4134 1275 3809 
L 1275 3500 
L 2222 3500 
L 2222 3053 
L 1275 3053 
L 1275 0 
L 697 0 
L 697 3053 
L 147 3053 
L 147 3500 
L 697 3500 
L 697 3744 
Q 697 4328 969 4595 
Q 1241 4863 1831 4863 
L 2375 4863 
z
" transform="scale(0.015625)"/>
       <path id="DejaVuSans-65" d="M 3597 1894 
L 3597 1613 
L 953 1613 
Q 991 1019 1311 708 
Q 1631 397 2203 397 
Q 2534 397 2845 478 
Q 3156 559 3463 722 
L 3463 178 
Q 3153 47 2828 -22 
Q 2503 -91 2169 -91 
Q 1331 -91 842 396 
Q 353 884 353 1716 
Q 353 2575 817 3079 
Q 1281 3584 2069 3584 
Q 2775 3584 3186 3129 
Q 3597 2675 3597 1894 
z
M 3022 2063 
Q 3016 2534 2758 2815 
Q 2500 3097 2075 3097 
Q 1594 3097 1305 2825 
Q 1016 2553 972 2059 
L 3022 2063 
z
" transform="scale(0.015625)"/>
       <path id="DejaVuSans-64" d="M 2906 2969 
L 2906 4863 
L 3481 4863 
L 3481 0 
L 2906 0 
L 2906 525 
Q 2725 213 2448 61 
Q 2172 -91 1784 -91 
Q 1150 -91 751 415 
Q 353 922 353 1747 
Q 353 2572 751 3078 
Q 1150 3584 1784 3584 
Q 2172 3584 2448 3432 
Q 2725 3281 2906 2969 
z
M 947 1747 
Q 947 1113 1208 752 
Q 1469 391 1925 391 
Q 2381 391 2643 752 
Q 2906 1113 2906 1747 
Q 2906 2381 2643 2742 
Q 2381 3103 1925 3103 
Q 1469 3103 1208 2742 
Q 947 2381 947 1747 
z
" transform="scale(0.015625)"/>
       <path id="DejaVuSans-63" d="M 3122 3366 
L 3122 2828 
Q 2878 2963 2633 3030 
Q 2388 3097 2138 3097 
Q 1578 3097 1268 2742 
Q 959 2388 959 1747 
Q 959 1106 1268 751 
Q 1578 397 2138 397 
Q 2388 397 2633 464 
Q 2878 531 3122 666 
L 3122 134 
Q 2881 22 2623 -34 
Q 2366 -91 2075 -91 
Q 1284 -91 818 406 
Q 353 903 353 1747 
Q 353 2603 823 3093 
Q 1294 3584 2113 3584 
Q 2378 3584 2631 3529 
Q 2884 3475 3122 3366 
z
" transform="scale(0.015625)"/>
       <path id="DejaVuSans-74" d="M 1172 4494 
L 1172 3500 
L 2356 3500 
L 2356 3053 
L 1172 3053 
L 1172 1153 
Q 1172 725 1289 603 
Q 1406 481 1766 481 
L 2356 481 
L 2356 0 
L 1766 0 
Q 1100 0 847 248 
Q 594 497 594 1153 
L 594 3053 
L 172 3053 
L 172 3500 
L 594 3500 
L 594 4494 
L 1172 4494 
z
" transform="scale(0.015625)"/>
       <path id="DejaVuSans-6d" d="M 3328 2828 
Q 3544 3216 3844 3400 
Q 4144 3584 4550 3584 
Q 5097 3584 5394 3201 
Q 5691 2819 5691 2113 
L 5691 0 
L 5113 0 
L 5113 2094 
Q 5113 2597 4934 2840 
Q 4756 3084 4391 3084 
Q 3944 3084 3684 2787 
Q 3425 2491 3425 1978 
L 3425 0 
L 2847 0 
L 2847 2094 
Q 2847 2600 2669 2842 
Q 2491 3084 2119 3084 
Q 1678 3084 1418 2786 
Q 1159 2488 1159 1978 
L 1159 0 
L 581 0 
L 581 3500 
L 1159 3500 
L 1159 2956 
Q 1356 3278 1631 3431 
Q 1906 3584 2284 3584 
Q 2666 3584 2933 3390 
Q 3200 3197 3328 2828 
z
" transform="scale(0.015625)"/>
      </defs>
      <use xlink:href="#DejaVuSans-69"/>
      <use xlink:href="#DejaVuSans-6e" transform="translate(27.783203 0)"/>
      <use xlink:href="#DejaVuSans-66" transform="translate(91.162109 0)"/>
      <use xlink:href="#DejaVuSans-65" transform="translate(126.367188 0)"/>
      <use xlink:href="#DejaVuSans-72" transform="translate(187.890625 0)"/>
      <use xlink:href="#DejaVuSans-72" transform="translate(227.253906 0)"/>
      <use xlink:href="#DejaVuSans-65" transform="translate(266.117188 0)"/>
      <use xlink:href="#DejaVuSans-64" transform="translate(327.640625 0)"/>
      <use xlink:href="#DejaVuSans-20" transform="translate(391.117188 0)"/>
      <use xlink:href="#DejaVuSans-64" transform="translate(422.904297 0)"/>
      <use xlink:href="#DejaVuSans-65" transform="translate(486.380859 0)"/>
      <use xlink:href="#DejaVuSans-63" transform="translate(547.904297 0)"/>
      <use xlink:href="#DejaVuSans-20" transform="translate(602.884766 0)"/>
      <use xlink:href="#DejaVuSans-74" transform="translate(634.671875 0)"/>
      <use xlink:href="#DejaVuSans-65" transform="translate(673.880859 0)"/>
      <use xlink:href="#DejaVuSans-6d" transform="translate(735.404297 0)"/>
      <use xlink:href="#DejaVuSans-70" transform="translate(832.816406 0)"/>
     </g>
    </g>
   </g>
   <g id="matplotlib.axis_3">
    <g id="ytick_1">
     <g id="line2d_11">
      <defs>
       <path id="m084fe605cc" d="M 0 0 
L -3.5 0 
" style="stroke: #000000; stroke-width: 0.8"/>
      </defs>
      <g>
       <use xlink:href="#m084fe605cc" x="46.07" y="310.24" style="stroke: #000000; stroke-width: 0.8"/>
      </g>
     </g>
     <g id="text_9">
      <!-- 0 -->
      <g transform="translate(32.7075 314.039219) scale(0.1 -0.1)">
       <use xlink:href="#DejaVuSans-30"/>
      </g>
     </g>
    </g>
    <g id="ytick_2">
     <g id="line2d_12">
      <g>
       <use xlink:href="#m084fe605cc" x="46.07" y="276.0975" style="stroke: #000000; stroke-width: 0.8"/>
      </g>
     </g>
     <g id="text_10">
      <!-- 2 -->
      <g transform="translate(32.7075 279.896719) scale(0.1 -0.1)">
       <use xlink:href="#DejaVuSans-32"/>
      </g>
     </g>
    </g>
    <g id="ytick_3">
     <g id="line2d_13">
      <g>
       <use xlink:href="#m084fe605cc" x="46.07" y="241.955" style="stroke: #000000; stroke-width: 0.8"/>
      </g>
     </g>
     <g id="text_11">
      <!-- 4 -->
      <g transform="translate(32.7075 245.754219) scale(0.1 -0.1)">
       <use xlink:href="#DejaVuSans-34"/>
      </g>
     </g>
    </g>
    <g id="ytick_4">
     <g id="line2d_14">
      <g>
       <use xlink:href="#m084fe605cc" x="46.07" y="207.8125" style="stroke: #000000; stroke-width: 0.8"/>
      </g>
     </g>
     <g id="text_12">
      <!-- 6 -->
      <g transform="translate(32.7075 211.611719) scale(0.1 -0.1)">
       <use xlink:href="#DejaVuSans-36"/>
      </g>
     </g>
    </g>
    <g id="ytick_5">
     <g id="line2d_15">
      <g>
       <use xlink:href="#m084fe605cc" x="46.07" y="173.67" style="stroke: #000000; stroke-width: 0.8"/>
      </g>
     </g>
     <g id="text_13">
      <!-- 8 -->
      <g transform="translate(32.7075 177.469219) scale(0.1 -0.1)">
       <use xlink:href="#DejaVuSans-38"/>
      </g>
     </g>
    </g>
    <g id="text_14">
     <!-- inferred habitual tendency -->
     <g transform="translate(26.627813 308.401094) rotate(-90) scale(0.1 -0.1)">
      <defs>
       <path id="DejaVuSans-68" d="M 3513 2113 
L 3513 0 
L 2938 0 
L 2938 2094 
Q 2938 2591 2744 2837 
Q 2550 3084 2163 3084 
Q 1697 3084 1428 2787 
Q 1159 2491 1159 1978 
L 1159 0 
L 581 0 
L 581 4863 
L 1159 4863 
L 1159 2956 
Q 1366 3272 1645 3428 
Q 1925 3584 2291 3584 
Q 2894 3584 3203 3211 
Q 3513 2838 3513 2113 
z
" transform="scale(0.015625)"/>
       <path id="DejaVuSans-61" d="M 2194 1759 
Q 1497 1759 1228 1600 
Q 959 1441 959 1056 
Q 959 750 1161 570 
Q 1363 391 1709 391 
Q 2188 391 2477 730 
Q 2766 1069 2766 1631 
L 2766 1759 
L 2194 1759 
z
M 3341 1997 
L 3341 0 
L 2766 0 
L 2766 531 
Q 2569 213 2275 61 
Q 1981 -91 1556 -91 
Q 1019 -91 701 211 
Q 384 513 384 1019 
Q 384 1609 779 1909 
Q 1175 2209 1959 2209 
L 2766 2209 
L 2766 2266 
Q 2766 2663 2505 2880 
Q 2244 3097 1772 3097 
Q 1472 3097 1187 3025 
Q 903 2953 641 2809 
L 641 3341 
Q 956 3463 1253 3523 
Q 1550 3584 1831 3584 
Q 2591 3584 2966 3190 
Q 3341 2797 3341 1997 
z
" transform="scale(0.015625)"/>
       <path id="DejaVuSans-62" d="M 3116 1747 
Q 3116 2381 2855 2742 
Q 2594 3103 2138 3103 
Q 1681 3103 1420 2742 
Q 1159 2381 1159 1747 
Q 1159 1113 1420 752 
Q 1681 391 2138 391 
Q 2594 391 2855 752 
Q 3116 1113 3116 1747 
z
M 1159 2969 
Q 1341 3281 1617 3432 
Q 1894 3584 2278 3584 
Q 2916 3584 3314 3078 
Q 3713 2572 3713 1747 
Q 3713 922 3314 415 
Q 2916 -91 2278 -91 
Q 1894 -91 1617 61 
Q 1341 213 1159 525 
L 1159 0 
L 581 0 
L 581 4863 
L 1159 4863 
L 1159 2969 
z
" transform="scale(0.015625)"/>
       <path id="DejaVuSans-75" d="M 544 1381 
L 544 3500 
L 1119 3500 
L 1119 1403 
Q 1119 906 1312 657 
Q 1506 409 1894 409 
Q 2359 409 2629 706 
Q 2900 1003 2900 1516 
L 2900 3500 
L 3475 3500 
L 3475 0 
L 2900 0 
L 2900 538 
Q 2691 219 2414 64 
Q 2138 -91 1772 -91 
Q 1169 -91 856 284 
Q 544 659 544 1381 
z
M 1991 3584 
L 1991 3584 
z
" transform="scale(0.015625)"/>
       <path id="DejaVuSans-6c" d="M 603 4863 
L 1178 4863 
L 1178 0 
L 603 0 
L 603 4863 
z
" transform="scale(0.015625)"/>
       <path id="DejaVuSans-79" d="M 2059 -325 
Q 1816 -950 1584 -1140 
Q 1353 -1331 966 -1331 
L 506 -1331 
L 506 -850 
L 844 -850 
Q 1081 -850 1212 -737 
Q 1344 -625 1503 -206 
L 1606 56 
L 191 3500 
L 800 3500 
L 1894 763 
L 2988 3500 
L 3597 3500 
L 2059 -325 
z
" transform="scale(0.015625)"/>
      </defs>
      <use xlink:href="#DejaVuSans-69"/>
      <use xlink:href="#DejaVuSans-6e" transform="translate(27.783203 0)"/>
      <use xlink:href="#DejaVuSans-66" transform="translate(91.162109 0)"/>
      <use xlink:href="#DejaVuSans-65" transform="translate(126.367188 0)"/>
      <use xlink:href="#DejaVuSans-72" transform="translate(187.890625 0)"/>
      <use xlink:href="#DejaVuSans-72" transform="translate(227.253906 0)"/>
      <use xlink:href="#DejaVuSans-65" transform="translate(266.117188 0)"/>
      <use xlink:href="#DejaVuSans-64" transform="translate(327.640625 0)"/>
      <use xlink:href="#DejaVuSans-20" transform="translate(391.117188 0)"/>
      <use xlink:href="#DejaVuSans-68" transform="translate(422.904297 0)"/>
      <use xlink:href="#DejaVuSans-61" transform="translate(486.283203 0)"/>
      <use xlink:href="#DejaVuSans-62" transform="translate(547.5625 0)"/>
      <use xlink:href="#DejaVuSans-69" transform="translate(611.039062 0)"/>
      <use xlink:href="#DejaVuSans-74" transform="translate(638.822266 0)"/>
      <use xlink:href="#DejaVuSans-75" transform="translate(678.03125 0)"/>
      <use xlink:href="#DejaVuSans-61" transform="translate(741.410156 0)"/>
      <use xlink:href="#DejaVuSans-6c" transform="translate(802.689453 0)"/>
      <use xlink:href="#DejaVuSans-20" transform="translate(830.472656 0)"/>
      <use xlink:href="#DejaVuSans-74" transform="translate(862.259766 0)"/>
      <use xlink:href="#DejaVuSans-65" transform="translate(901.46875 0)"/>
      <use xlink:href="#DejaVuSans-6e" transform="translate(962.992188 0)"/>
      <use xlink:href="#DejaVuSans-64" transform="translate(1026.371094 0)"/>
      <use xlink:href="#DejaVuSans-65" transform="translate(1089.847656 0)"/>
      <use xlink:href="#DejaVuSans-6e" transform="translate(1151.371094 0)"/>
      <use xlink:href="#DejaVuSans-63" transform="translate(1214.75 0)"/>
      <use xlink:href="#DejaVuSans-79" transform="translate(1269.730469 0)"/>
     </g>
    </g>
   </g>
   <g id="line2d_16">
    <path d="M 58.103605 287.81199 
L 58.303732 287.211287 
L 58.503859 286.610588 
L 58.703986 286.009885 
L 58.904114 285.409182 
L 59.104241 284.808478 
L 59.304368 284.207779 
L 59.504495 283.607076 
L 59.704623 283.006373 
L 59.904749 282.405673 
L 60.104877 281.80497 
L 60.305004 281.204267 
L 60.505132 280.603564 
L 60.705258 280.002864 
L 60.905386 279.402161 
L 61.105513 278.801458 
L 61.30564 278.200758 
L 61.505767 277.600055 
L 61.705895 276.999352 
L 61.906022 276.398649 
L 62.10615 275.797946 
L 62.306276 275.197246 
L 62.506404 274.596543 
L 62.70653 273.995843 
L 62.906658 273.39514 
L 63.106785 272.794437 
L 63.306913 272.193734 
L 63.50704 271.593031 
L 63.707166 270.992334 
L 63.907293 270.391631 
L 64.107421 269.790928 
L 64.307548 269.190225 
L 64.507676 268.589522 
L 64.707803 267.988819 
L 64.907931 267.388116 
L 65.108058 266.787413 
L 65.308186 266.18671 
L 65.508311 265.586013 
L 65.708439 264.98531 
L 65.908566 264.384607 
L 66.108694 263.783904 
L 66.308821 263.183201 
L 66.508947 262.582504 
L 66.709074 261.981801 
L 66.909202 261.381098 
L 67.109329 260.780395 
L 67.309457 260.179692 
L 67.509584 259.578989 
L 67.709712 258.978286 
L 67.909839 258.377583 
L 68.109967 257.77688 
L 68.310094 257.176177 
L 68.51022 256.57548 
L 68.710347 255.974777 
L 68.910475 255.374074 
L 69.110602 254.773371 
L 69.310728 254.172674 
L 69.510855 253.571971 
L 69.710983 252.971268 
L 69.91111 252.370565 
L 70.111238 251.769862 
L 70.311365 251.169159 
L 70.511493 250.568456 
L 70.71162 249.967753 
L 70.911748 249.36705 
L 71.111875 248.766347 
L 71.312001 248.16565 
L 71.512128 247.564947 
L 71.712256 246.964244 
L 71.912383 246.363541 
L 72.112509 245.762845 
L 72.312636 245.162142 
L 72.512764 244.561439 
L 72.712891 243.960736 
L 72.913019 243.360033 
L 73.113146 242.75933 
L 73.313274 242.158626 
L 73.513401 241.557923 
L 73.713529 240.95722 
L 73.913656 240.356517 
L 74.113784 239.755814 
L 74.313909 239.155118 
L 74.514037 238.554415 
L 74.714164 237.953712 
L 74.91429 237.353015 
L 75.114417 236.752312 
L 75.314545 236.151609 
L 75.514672 235.550906 
L 75.7148 234.950203 
L 75.914927 234.3495 
L 76.115055 233.748797 
L 76.315182 233.148094 
L 76.51531 232.547391 
L 76.715437 231.946688 
L 76.915565 231.345985 
L 77.115692 230.745282 
L 77.315816 230.144591 
L 77.515943 229.543888 
L 77.716071 228.943185 
L 77.9162 228.342476 
" clip-path="url(#pb8d5bba863)" style="fill: none; stroke: #008000; stroke-opacity: 0.6; stroke-width: 2.25; stroke-linecap: square"/>
   </g>
   <g id="patch_5">
    <path d="M 46.07 310.24 
L 46.07 173.67 
" style="fill: none; stroke: #000000; stroke-width: 0.8; stroke-linejoin: miter; stroke-linecap: square"/>
   </g>
   <g id="patch_6">
    <path d="M 46.07 310.24 
L 186.235 310.24 
" style="fill: none; stroke: #000000; stroke-width: 0.8; stroke-linejoin: miter; stroke-linecap: square"/>
   </g>
   <g id="text_15">
    <!-- r = 0.67  -->
    <g transform="translate(60.0865 187.327) scale(0.1 -0.1)">
     <defs>
      <path id="DejaVuSans-37" d="M 525 4666 
L 3525 4666 
L 3525 4397 
L 1831 0 
L 1172 0 
L 2766 4134 
L 525 4134 
L 525 4666 
z
" transform="scale(0.015625)"/>
     </defs>
     <use xlink:href="#DejaVuSans-72"/>
     <use xlink:href="#DejaVuSans-20" transform="translate(41.113281 0)"/>
     <use xlink:href="#DejaVuSans-3d" transform="translate(72.900391 0)"/>
     <use xlink:href="#DejaVuSans-20" transform="translate(156.689453 0)"/>
     <use xlink:href="#DejaVuSans-30" transform="translate(188.476562 0)"/>
     <use xlink:href="#DejaVuSans-2e" transform="translate(252.099609 0)"/>
     <use xlink:href="#DejaVuSans-36" transform="translate(283.886719 0)"/>
     <use xlink:href="#DejaVuSans-37" transform="translate(347.509766 0)"/>
     <use xlink:href="#DejaVuSans-20" transform="translate(411.132812 0)"/>
    </g>
   </g>
   <g id="text_16">
    <!-- p = 0.097 -->
    <g transform="translate(116.1525 187.327) scale(0.1 -0.1)">
     <defs>
      <path id="DejaVuSans-39" d="M 703 97 
L 703 672 
Q 941 559 1184 500 
Q 1428 441 1663 441 
Q 2288 441 2617 861 
Q 2947 1281 2994 2138 
Q 2813 1869 2534 1725 
Q 2256 1581 1919 1581 
Q 1219 1581 811 2004 
Q 403 2428 403 3163 
Q 403 3881 828 4315 
Q 1253 4750 1959 4750 
Q 2769 4750 3195 4129 
Q 3622 3509 3622 2328 
Q 3622 1225 3098 567 
Q 2575 -91 1691 -91 
Q 1453 -91 1209 -44 
Q 966 3 703 97 
z
M 1959 2075 
Q 2384 2075 2632 2365 
Q 2881 2656 2881 3163 
Q 2881 3666 2632 3958 
Q 2384 4250 1959 4250 
Q 1534 4250 1286 3958 
Q 1038 3666 1038 3163 
Q 1038 2656 1286 2365 
Q 1534 2075 1959 2075 
z
" transform="scale(0.015625)"/>
     </defs>
     <use xlink:href="#DejaVuSans-70"/>
     <use xlink:href="#DejaVuSans-20" transform="translate(63.476562 0)"/>
     <use xlink:href="#DejaVuSans-3d" transform="translate(95.263672 0)"/>
     <use xlink:href="#DejaVuSans-20" transform="translate(179.052734 0)"/>
     <use xlink:href="#DejaVuSans-30" transform="translate(210.839844 0)"/>
     <use xlink:href="#DejaVuSans-2e" transform="translate(274.462891 0)"/>
     <use xlink:href="#DejaVuSans-30" transform="translate(306.25 0)"/>
     <use xlink:href="#DejaVuSans-39" transform="translate(369.873047 0)"/>
     <use xlink:href="#DejaVuSans-37" transform="translate(433.496094 0)"/>
    </g>
   </g>
  </g>
  <g id="axes_3">
   <g id="patch_7">
    <path d="M 201.235 310.24 
L 341.4 310.24 
L 341.4 173.67 
L 201.235 173.67 
z
" style="fill: #ffffff"/>
   </g>
   <g id="matplotlib.axis_4">
    <g id="xtick_11">
     <g id="line2d_17">
      <g>
       <use xlink:href="#m4c1df10b95" x="201.235" y="310.24" style="stroke: #000000; stroke-width: 0.8"/>
      </g>
     </g>
     <g id="text_17">
      <!-- 0 -->
      <g transform="translate(198.05375 324.838438) scale(0.1 -0.1)">
       <use xlink:href="#DejaVuSans-30"/>
      </g>
     </g>
    </g>
    <g id="xtick_12">
     <g id="line2d_18">
      <g>
       <use xlink:href="#m4c1df10b95" x="236.27625" y="310.24" style="stroke: #000000; stroke-width: 0.8"/>
      </g>
     </g>
     <g id="text_18">
      <!-- 2 -->
      <g transform="translate(233.095 324.838438) scale(0.1 -0.1)">
       <use xlink:href="#DejaVuSans-32"/>
      </g>
     </g>
    </g>
    <g id="xtick_13">
     <g id="line2d_19">
      <g>
       <use xlink:href="#m4c1df10b95" x="271.3175" y="310.24" style="stroke: #000000; stroke-width: 0.8"/>
      </g>
     </g>
     <g id="text_19">
      <!-- 4 -->
      <g transform="translate(268.13625 324.838438) scale(0.1 -0.1)">
       <use xlink:href="#DejaVuSans-34"/>
      </g>
     </g>
    </g>
    <g id="xtick_14">
     <g id="line2d_20">
      <g>
       <use xlink:href="#m4c1df10b95" x="306.35875" y="310.24" style="stroke: #000000; stroke-width: 0.8"/>
      </g>
     </g>
     <g id="text_20">
      <!-- 6 -->
      <g transform="translate(303.1775 324.838438) scale(0.1 -0.1)">
       <use xlink:href="#DejaVuSans-36"/>
      </g>
     </g>
    </g>
    <g id="xtick_15">
     <g id="line2d_21">
      <g>
       <use xlink:href="#m4c1df10b95" x="341.4" y="310.24" style="stroke: #000000; stroke-width: 0.8"/>
      </g>
     </g>
     <g id="text_21">
      <!-- 8 -->
      <g transform="translate(338.21875 324.838438) scale(0.1 -0.1)">
       <use xlink:href="#DejaVuSans-38"/>
      </g>
     </g>
    </g>
    <g id="text_22">
     <!-- inferred habitual tendency -->
     <g transform="translate(204.871406 338.516563) scale(0.1 -0.1)">
      <use xlink:href="#DejaVuSans-69"/>
      <use xlink:href="#DejaVuSans-6e" transform="translate(27.783203 0)"/>
      <use xlink:href="#DejaVuSans-66" transform="translate(91.162109 0)"/>
      <use xlink:href="#DejaVuSans-65" transform="translate(126.367188 0)"/>
      <use xlink:href="#DejaVuSans-72" transform="translate(187.890625 0)"/>
      <use xlink:href="#DejaVuSans-72" transform="translate(227.253906 0)"/>
      <use xlink:href="#DejaVuSans-65" transform="translate(266.117188 0)"/>
      <use xlink:href="#DejaVuSans-64" transform="translate(327.640625 0)"/>
      <use xlink:href="#DejaVuSans-20" transform="translate(391.117188 0)"/>
      <use xlink:href="#DejaVuSans-68" transform="translate(422.904297 0)"/>
      <use xlink:href="#DejaVuSans-61" transform="translate(486.283203 0)"/>
      <use xlink:href="#DejaVuSans-62" transform="translate(547.5625 0)"/>
      <use xlink:href="#DejaVuSans-69" transform="translate(611.039062 0)"/>
      <use xlink:href="#DejaVuSans-74" transform="translate(638.822266 0)"/>
      <use xlink:href="#DejaVuSans-75" transform="translate(678.03125 0)"/>
      <use xlink:href="#DejaVuSans-61" transform="translate(741.410156 0)"/>
      <use xlink:href="#DejaVuSans-6c" transform="translate(802.689453 0)"/>
      <use xlink:href="#DejaVuSans-20" transform="translate(830.472656 0)"/>
      <use xlink:href="#DejaVuSans-74" transform="translate(862.259766 0)"/>
      <use xlink:href="#DejaVuSans-65" transform="translate(901.46875 0)"/>
      <use xlink:href="#DejaVuSans-6e" transform="translate(962.992188 0)"/>
      <use xlink:href="#DejaVuSans-64" transform="translate(1026.371094 0)"/>
      <use xlink:href="#DejaVuSans-65" transform="translate(1089.847656 0)"/>
      <use xlink:href="#DejaVuSans-6e" transform="translate(1151.371094 0)"/>
      <use xlink:href="#DejaVuSans-63" transform="translate(1214.75 0)"/>
      <use xlink:href="#DejaVuSans-79" transform="translate(1269.730469 0)"/>
     </g>
    </g>
   </g>
   <g id="patch_8">
    <path d="M 201.235 310.24 
L 341.4 310.24 
" style="fill: none; stroke: #000000; stroke-width: 0.8; stroke-linejoin: miter; stroke-linecap: square"/>
   </g>
   <g id="text_23">
    <!-- r = 1.00  -->
    <g transform="translate(215.2515 187.327) scale(0.1 -0.1)">
     <use xlink:href="#DejaVuSans-72"/>
     <use xlink:href="#DejaVuSans-20" transform="translate(41.113281 0)"/>
     <use xlink:href="#DejaVuSans-3d" transform="translate(72.900391 0)"/>
     <use xlink:href="#DejaVuSans-20" transform="translate(156.689453 0)"/>
     <use xlink:href="#DejaVuSans-31" transform="translate(188.476562 0)"/>
     <use xlink:href="#DejaVuSans-2e" transform="translate(252.099609 0)"/>
     <use xlink:href="#DejaVuSans-30" transform="translate(283.886719 0)"/>
     <use xlink:href="#DejaVuSans-30" transform="translate(347.509766 0)"/>
     <use xlink:href="#DejaVuSans-20" transform="translate(411.132812 0)"/>
    </g>
   </g>
   <g id="text_24">
    <!-- p = 0.000 -->
    <g transform="translate(271.3175 187.327) scale(0.1 -0.1)">
     <use xlink:href="#DejaVuSans-70"/>
     <use xlink:href="#DejaVuSans-20" transform="translate(63.476562 0)"/>
     <use xlink:href="#DejaVuSans-3d" transform="translate(95.263672 0)"/>
     <use xlink:href="#DejaVuSans-20" transform="translate(179.052734 0)"/>
     <use xlink:href="#DejaVuSans-30" transform="translate(210.839844 0)"/>
     <use xlink:href="#DejaVuSans-2e" transform="translate(274.462891 0)"/>
     <use xlink:href="#DejaVuSans-30" transform="translate(306.25 0)"/>
     <use xlink:href="#DejaVuSans-30" transform="translate(369.873047 0)"/>
     <use xlink:href="#DejaVuSans-30" transform="translate(433.496094 0)"/>
    </g>
   </g>
  </g>
  <g id="axes_4">
   <g id="patch_9">
    <path d="M 58.103605 155.17 
L 63.056754 155.17 
L 63.056754 103.143333 
L 58.103605 103.143333 
z
" clip-path="url(#pb28a06440e)" style="fill: #1f77b4; fill-opacity: 0.75; stroke: #000000; stroke-linejoin: miter"/>
   </g>
   <g id="patch_10">
    <path d="M 63.056754 155.17 
L 68.009903 155.17 
L 68.009903 77.13 
L 63.056754 77.13 
z
" clip-path="url(#pb28a06440e)" style="fill: #1f77b4; fill-opacity: 0.75; stroke: #000000; stroke-linejoin: miter"/>
   </g>
   <g id="patch_11">
    <path d="M 68.009903 155.17 
L 72.963052 155.17 
L 72.963052 129.156667 
L 68.009903 129.156667 
z
" clip-path="url(#pb28a06440e)" style="fill: #1f77b4; fill-opacity: 0.75; stroke: #000000; stroke-linejoin: miter"/>
   </g>
   <g id="patch_12">
    <path d="M 72.963052 155.17 
L 77.9162 155.17 
L 77.9162 129.156667 
L 72.963052 129.156667 
z
" clip-path="url(#pb28a06440e)" style="fill: #1f77b4; fill-opacity: 0.75; stroke: #000000; stroke-linejoin: miter"/>
   </g>
  </g>
  <g id="axes_5">
   <g id="patch_13">
    <path d="M 228.368753 310.24 
L 243.122245 310.24 
L 243.122245 180.173333 
L 228.368753 180.173333 
z
" clip-path="url(#pa3ec8190ce)" style="fill: #1f77b4; fill-opacity: 0.75; stroke: #000000; stroke-linejoin: miter"/>
   </g>
   <g id="patch_14">
    <path d="M 243.122245 310.24 
L 257.875736 310.24 
L 257.875736 284.226667 
L 243.122245 284.226667 
z
" clip-path="url(#pa3ec8190ce)" style="fill: #1f77b4; fill-opacity: 0.75; stroke: #000000; stroke-linejoin: miter"/>
   </g>
   <g id="patch_15">
    <path d="M 257.875736 310.24 
L 272.629228 310.24 
L 272.629228 310.24 
L 257.875736 310.24 
z
" clip-path="url(#pa3ec8190ce)" style="fill: #1f77b4; fill-opacity: 0.75; stroke: #000000; stroke-linejoin: miter"/>
   </g>
   <g id="patch_16">
    <path d="M 272.629228 310.24 
L 287.38272 310.24 
L 287.38272 310.24 
L 272.629228 310.24 
z
" clip-path="url(#pa3ec8190ce)" style="fill: #1f77b4; fill-opacity: 0.75; stroke: #000000; stroke-linejoin: miter"/>
   </g>
   <g id="patch_17">
    <path d="M 287.38272 310.24 
L 302.136212 310.24 
L 302.136212 310.24 
L 287.38272 310.24 
z
" clip-path="url(#pa3ec8190ce)" style="fill: #1f77b4; fill-opacity: 0.75; stroke: #000000; stroke-linejoin: miter"/>
   </g>
   <g id="patch_18">
    <path d="M 302.136212 310.24 
L 316.889704 310.24 
L 316.889704 284.226667 
L 302.136212 284.226667 
z
" clip-path="url(#pa3ec8190ce)" style="fill: #1f77b4; fill-opacity: 0.75; stroke: #000000; stroke-linejoin: miter"/>
   </g>
  </g>
 </g>
 <defs>
  <clipPath id="pb8d5bba863">
   <rect x="46.07" y="173.67" width="140.165" height="136.57"/>
  </clipPath>
  <clipPath id="pb28a06440e">
   <rect x="46.07" y="18.6" width="140.165" height="136.57"/>
  </clipPath>
  <clipPath id="pa3ec8190ce">
   <rect x="201.235" y="173.67" width="140.165" height="136.57"/>
  </clipPath>
 </defs>
</svg>
