<?xml version="1.0" encoding="utf-8" standalone="no"?>
<!DOCTYPE svg PUBLIC "-//W3C//DTD SVG 1.1//EN"
  "http://www.w3.org/Graphics/SVG/1.1/DTD/svg11.dtd">
<svg xmlns:xlink="http://www.w3.org/1999/xlink" width="360pt" height="360pt" viewBox="0 0 360 360" xmlns="http://www.w3.org/2000/svg" version="1.1">
 <metadata>
  <rdf:RDF xmlns:dc="http://purl.org/dc/elements/1.1/" xmlns:cc="http://creativecommons.org/ns#" xmlns:rdf="http://www.w3.org/1999/02/22-rdf-syntax-ns#">
   <cc:Work>
    <dc:type rdf:resource="http://purl.org/dc/dcmitype/StillImage"/>
    <dc:date>2026-01-20T17:09:31.095695</dc:date>
    <dc:format>image/svg+xml</dc:format>
    <dc:creator>
     <cc:Agent>
      <dc:title>Matplotlib v3.10.8, https://matplotlib.org/</dc:title>
     </cc:Agent>
    </dc:creator>
   </cc:Work>
  </rdf:RDF>
 </metadata>
 <defs>
  <style type="text/css">*{stroke-linejoin: round; stroke-linecap: butt}</style>
 </defs>
 <g id="figure_1">
  <g id="patch_1">
   <path d="M 0 360 
L 360 360 
L 360 0 
L 0 0 
z
" style="fill: #ffffff"/>
  </g>
  <g id="axes_1">
   <g id="patch_2">
    <path d="M 46.07 155.17 
L 186.235 155.17 
L 186.235 18.6 
L 46.07 18.6 
z
" style="fill: #ffffff"/>
   </g>
   <g id="matplotlib.axis_1">
    <g id="xtick_1">
     <g id="line2d_1">
      <defs>
       <path id="m03d08270a7" d="M 0 0 
L 0 3.5 
" style="stroke: #000000; stroke-width: 0.8"/>
      </defs>
      <g>
       <use xlink:href="#m03d08270a7" x="46.07" y="155.17" style="stroke: #000000; stroke-width: 0.8"/>
      </g>
     </g>
    </g>
    <g id="xtick_2">
     <g id="line2d_2">
      <g>
       <use xlink:href="#m03d08270a7" x="81.11125" y="155.17" style="stroke: #000000; stroke-width: 0.8"/>
      </g>
     </g>
    </g>
    <g id="xtick_3">
     <g id="line2d_3">
      <g>
       <use xlink:href="#m03d08270a7" x="116.1525" y="155.17" style="stroke: #000000; stroke-width: 0.8"/>
      </g>
     </g>
    </g>
    <g id="xtick_4">
     <g id="line2d_4">
      <g>
       <use xlink:href="#m03d08270a7" x="151.19375" y="155.17" style="stroke: #000000; stroke-width: 0.8"/>
      </g>
     </g>
    </g>
    <g id="xtick_5">
     <g id="line2d_5">
      <g>
       <use xlink:href="#m03d08270a7" x="186.235" y="155.17" style="stroke: #000000; stroke-width: 0.8"/>
      </g>
     </g>
    </g>
   </g>
   <g id="patch_3">
    <path d="M 46.07 155.17 
L 186.235 155.17 
" style="fill: none; stroke: #000000; stroke-width: 0.8; stroke-linejoin: miter; stroke-linecap: square"/>
   </g>
   <g id="text_1">
    <!-- r = 1.00  -->
    <g transform="translate(60.0865 32.257) scale(0.1 -0.1)">
     <defs>
      <path id="DejaVuSans-72" d="M 2631 2963 
Q 2534 3019 2420 3045 
Q 2306 3072 2169 3072 
Q 1681 3072 1420 2755 
Q 1159 2438 1159 1844 
L 1159 0 
L 581 0 
L 581 3500 
L 1159 3500 
L 1159 2956 
Q 1341 3275 1631 3429 
Q 1922 3584 2338 3584 
Q 2397 3584 2469 3576 
Q 2541 3569 2628 3553 
L 2631 2963 
z
" transform="scale(0.015625)"/>
      <path id="DejaVuSans-20" transform="scale(0.015625)"/>
      <path id="DejaVuSans-3d" d="M 678 2906 
L 4684 2906 
L 4684 2381 
L 678 2381 
L 678 2906 
z
M 678 1631 
L 4684 1631 
L 4684 1100 
L 678 1100 
L 678 1631 
z
" transform="scale(0.015625)"/>
      <path id="DejaVuSans-31" d="M 794 531 
L 1825 531 
L 1825 4091 
L 703 3866 
L 703 4441 
L 1819 4666 
L 2450 4666 
L 2450 531 
L 3481 531 
L 3481 0 
L 794 0 
L 794 531 
z
" transform="scale(0.015625)"/>
      <path id="DejaVuSans-2e" d="M 684 794 
L 1344 794 
L 1344 0 
L 684 0 
L 684 794 
z
" transform="scale(0.015625)"/>
      <path id="DejaVuSans-30" d="M 2034 4250 
Q 1547 4250 1301 3770 
Q 1056 3291 1056 2328 
Q 1056 1369 1301 889 
Q 1547 409 2034 409 
Q 2525 409 2770 889 
Q 3016 1369 3016 2328 
Q 3016 3291 2770 3770 
Q 2525 4250 2034 4250 
z
M 2034 4750 
Q 2819 4750 3233 4129 
Q 3647 3509 3647 2328 
Q 3647 1150 3233 529 
Q 2819 -91 2034 -91 
Q 1250 -91 836 529 
Q 422 1150 422 2328 
Q 422 3509 836 4129 
Q 1250 4750 2034 4750 
z
" transform="scale(0.015625)"/>
     </defs>
     <use xlink:href="#DejaVuSans-72"/>
     <use xlink:href="#DejaVuSans-20" transform="translate(41.113281 0)"/>
     <use xlink:href="#DejaVuSans-3d" transform="translate(72.900391 0)"/>
     <use xlink:href="#DejaVuSans-20" transform="translate(156.689453 0)"/>
     <use xlink:href="#DejaVuSans-31" transform="translate(188.476562 0)"/>
     <use xlink:href="#DejaVuSans-2e" transform="translate(252.099609 0)"/>
     <use xlink:href="#DejaVuSans-30" transform="translate(283.886719 0)"/>
     <use xlink:href="#DejaVuSans-30" transform="translate(347.509766 0)"/>
     <use xlink:href="#DejaVuSans-20" transform="translate(411.132812 0)"/>
    </g>
   </g>
   <g id="text_2">
    <!-- p = 0.000 -->
    <g transform="translate(116.1525 32.257) scale(0.1 -0.1)">
     <defs>
      <path id="DejaVuSans-70" d="M 1159 525 
L 1159 -1331 
L 581 -1331 
L 581 3500 
L 1159 3500 
L 1159 2969 
Q 1341 3281 1617 3432 
Q 1894 3584 2278 3584 
Q 2916 3584 3314 3078 
Q 3713 2572 3713 1747 
Q 3713 922 3314 415 
Q 2916 -91 2278 -91 
Q 1894 -91 1617 61 
Q 1341 213 1159 525 
z
M 3116 1747 
Q 3116 2381 2855 2742 
Q 2594 3103 2138 3103 
Q 1681 3103 1420 2742 
Q 1159 2381 1159 1747 
Q 1159 1113 1420 752 
Q 1681 391 2138 391 
Q 2594 391 2855 752 
Q 3116 1113 3116 1747 
z
" transform="scale(0.015625)"/>
     </defs>
     <use xlink:href="#DejaVuSans-70"/>
     <use xlink:href="#DejaVuSans-20" transform="translate(63.476562 0)"/>
     <use xlink:href="#DejaVuSans-3d" transform="translate(95.263672 0)"/>
     <use xlink:href="#DejaVuSans-20" transform="translate(179.052734 0)"/>
     <use xlink:href="#DejaVuSans-30" transform="translate(210.839844 0)"/>
     <use xlink:href="#DejaVuSans-2e" transform="translate(274.462891 0)"/>
     <use xlink:href="#DejaVuSans-30" transform="translate(306.25 0)"/>
     <use xlink:href="#DejaVuSans-30" transform="translate(369.873047 0)"/>
     <use xlink:href="#DejaVuSans-30" transform="translate(433.496094 0)"/>
    </g>
   </g>
  </g>
  <g id="axes_2">
   <g id="patch_4">
    <path d="M 46.07 310.24 
L 186.235 310.24 
L 186.235 173.67 
L 46.07 173.67 
z
" style="fill: #ffffff"/>
   </g>
   <g id="PathCollection_1">
    <defs>
     <path id="m022d87df2b" d="M 0 3 
C 0.795609 3 1.55874 2.683901 2.12132 2.12132 
C 2.683901 1.55874 3 0.795609 3 0 
C 3 -0.795609 2.683901 -1.55874 2.12132 -2.12132 
C 1.55874 -2.683901 0.795609 -3 0 -3 
C -0.795609 -3 -1.55874 -2.683901 -2.12132 -2.12132 
C -2.683901 -1.55874 -3 -0.795609 -3 0 
C -3 0.795609 -2.683901 1.55874 -2.12132 2.12132 
C -1.55874 2.683901 -0.795609 3 0 3 
z
" style="stroke: #1f77b4; stroke-opacity: 0.8"/>
    </defs>
    <g clip-path="url(#p324ab1ffd5)">
     <use xlink:href="#m022d87df2b" x="73.379149" y="217.365773" style="fill: #1f77b4; fill-opacity: 0.8; stroke: #1f77b4; stroke-opacity: 0.8"/>
     <use xlink:href="#m022d87df2b" x="64.387873" y="271.503241" style="fill: #1f77b4; fill-opacity: 0.8; stroke: #1f77b4; stroke-opacity: 0.8"/>
     <use xlink:href="#m022d87df2b" x="68.803554" y="283.82756" style="fill: #1f77b4; fill-opacity: 0.8; stroke: #1f77b4; stroke-opacity: 0.8"/>
     <use xlink:href="#m022d87df2b" x="57.429095" y="277.910821" style="fill: #1f77b4; fill-opacity: 0.8; stroke: #1f77b4; stroke-opacity: 0.8"/>
     <use xlink:href="#m022d87df2b" x="67.125685" y="279.925005" style="fill: #1f77b4; fill-opacity: 0.8; stroke: #1f77b4; stroke-opacity: 0.8"/>
     <use xlink:href="#m022d87df2b" x="63.90928" y="265.294534" style="fill: #1f77b4; fill-opacity: 0.8; stroke: #1f77b4; stroke-opacity: 0.8"/>
     <use xlink:href="#m022d87df2b" x="76.291264" y="277.68007" style="fill: #1f77b4; fill-opacity: 0.8; stroke: #1f77b4; stroke-opacity: 0.8"/>
    </g>
   </g>
   <g id="FillBetweenPolyCollection_1">
    <path d="M 57.429095 261.248772 
L 57.429095 323.097397 
L 57.619622 321.953708 
L 57.810149 320.810019 
L 58.000676 319.666336 
L 58.191203 318.522647 
L 58.38173 317.376065 
L 58.572257 316.228964 
L 58.762783 315.08187 
L 58.95331 313.93477 
L 59.143838 312.78767 
L 59.334365 311.640569 
L 59.524892 310.423307 
L 59.715418 309.200927 
L 59.905945 307.978541 
L 60.096472 306.756155 
L 60.286999 305.768119 
L 60.477527 304.770161 
L 60.668053 303.629245 
L 60.85858 302.488322 
L 61.049107 301.3474 
L 61.239633 300.206484 
L 61.430161 299.065555 
L 61.620688 297.924639 
L 61.811215 296.783717 
L 62.001742 295.642795 
L 62.192268 294.501879 
L 62.382796 293.357909 
L 62.573322 292.570026 
L 62.763849 291.975319 
L 62.954377 291.380612 
L 63.144903 290.321295 
L 63.33543 289.177453 
L 63.525957 288.03361 
L 63.716485 287.143274 
L 63.907011 286.344574 
L 64.097538 285.263145 
L 64.288066 284.663008 
L 64.478592 283.892578 
L 64.669118 283.320098 
L 64.859646 282.069539 
L 65.050172 281.560887 
L 65.240698 281.493213 
L 65.431227 281.334547 
L 65.621753 280.833307 
L 65.812281 280.841222 
L 66.002807 280.537217 
L 66.193335 280.071695 
L 66.383861 280.068833 
L 66.574388 279.673724 
L 66.764916 279.768029 
L 66.955442 280.186231 
L 67.145968 280.305751 
L 67.336496 280.260771 
L 67.527022 280.41138 
L 67.717548 280.623794 
L 67.908077 280.975286 
L 68.098605 281.027382 
L 68.289131 281.041746 
L 68.479657 281.154362 
L 68.670185 281.136994 
L 68.860711 281.241513 
L 69.051238 281.369071 
L 69.241766 281.502862 
L 69.432292 281.641285 
L 69.622818 281.679393 
L 69.813346 281.696528 
L 70.003874 281.771355 
L 70.194398 281.934126 
L 70.384927 282.064521 
L 70.575455 282.169414 
L 70.765981 282.274306 
L 70.956507 282.379197 
L 71.147035 282.48409 
L 71.337561 282.588982 
L 71.528088 282.694453 
L 71.718616 282.828078 
L 71.909142 282.961702 
L 72.099668 283.095326 
L 72.290196 283.228952 
L 72.480724 283.374469 
L 72.671248 283.522595 
L 72.861777 283.670725 
L 73.052305 283.818854 
L 73.242831 283.966982 
L 73.433357 284.11511 
L 73.623885 284.263239 
L 73.814411 284.400292 
L 74.004938 284.586298 
L 74.195466 284.772615 
L 74.385994 284.958932 
L 74.576518 285.145245 
L 74.767046 285.331562 
L 74.957574 285.517879 
L 75.148098 285.703767 
L 75.338627 285.890509 
L 75.529155 286.076826 
L 75.719683 286.225355 
L 75.910207 286.364264 
L 76.100735 286.503176 
L 76.291264 286.642088 
L 76.291264 207.94854 
L 76.291264 207.94854 
L 76.100735 209.016835 
L 75.910207 210.085129 
L 75.719683 211.153312 
L 75.529155 212.21393 
L 75.338627 213.275533 
L 75.148098 214.183278 
L 74.957574 215.027634 
L 74.767046 215.813004 
L 74.576518 216.625555 
L 74.385994 217.816525 
L 74.195466 218.981102 
L 74.004938 219.880052 
L 73.814411 220.776318 
L 73.623885 221.660695 
L 73.433357 222.753615 
L 73.242831 224.015946 
L 73.052305 225.094576 
L 72.861777 225.965148 
L 72.671248 227.297928 
L 72.480724 228.202206 
L 72.290196 229.029791 
L 72.099668 229.857377 
L 71.909142 230.684953 
L 71.718616 231.989398 
L 71.528088 232.645969 
L 71.337561 233.302533 
L 71.147035 233.995266 
L 70.956507 234.822851 
L 70.765981 236.008281 
L 70.575455 237.021827 
L 70.384927 237.969336 
L 70.194398 239.004951 
L 70.003874 239.85458 
L 69.813346 240.610368 
L 69.622818 241.305824 
L 69.432292 241.997332 
L 69.241766 242.686165 
L 69.051238 243.498886 
L 68.860711 244.450038 
L 68.670185 244.822507 
L 68.479657 245.581385 
L 68.289131 246.408961 
L 68.098605 247.091643 
L 67.908077 247.745031 
L 67.717548 248.403376 
L 67.527022 249.062262 
L 67.336496 249.713812 
L 67.145968 250.358057 
L 66.955442 251.002295 
L 66.764916 251.761548 
L 66.574388 252.564803 
L 66.383861 253.075169 
L 66.193335 253.768224 
L 66.002807 254.460217 
L 65.812281 255.23392 
L 65.621753 255.94463 
L 65.431227 256.400039 
L 65.240698 256.961213 
L 65.050172 257.763136 
L 64.859646 258.603544 
L 64.669118 259.230306 
L 64.478592 259.83929 
L 64.288066 260.246164 
L 64.097538 260.533102 
L 63.907011 260.866792 
L 63.716485 261.138664 
L 63.525957 261.459044 
L 63.33543 261.951595 
L 63.144903 262.455903 
L 62.954377 262.59657 
L 62.763849 262.774237 
L 62.573322 262.910593 
L 62.382796 262.68214 
L 62.192268 262.026117 
L 62.001742 262.188909 
L 61.811215 262.364327 
L 61.620688 262.813907 
L 61.430161 262.76775 
L 61.239633 262.670872 
L 61.049107 262.146527 
L 60.85858 261.625341 
L 60.668053 261.575795 
L 60.477527 261.203636 
L 60.286999 261.238927 
L 60.096472 261.274218 
L 59.905945 261.309509 
L 59.715418 261.344801 
L 59.524892 261.380092 
L 59.334365 261.415383 
L 59.143838 261.450674 
L 58.95331 261.485966 
L 58.762783 261.521257 
L 58.572257 261.554948 
L 58.38173 261.587157 
L 58.191203 261.619366 
L 58.000676 261.651575 
L 57.810149 261.625037 
L 57.619622 261.436905 
L 57.429095 261.248772 
z
" clip-path="url(#p324ab1ffd5)" style="fill: #008000; fill-opacity: 0.15"/>
   </g>
   <g id="matplotlib.axis_2">
    <g id="xtick_6">
     <g id="line2d_6">
      <g>
       <use xlink:href="#m03d08270a7" x="46.07" y="310.24" style="stroke: #000000; stroke-width: 0.8"/>
      </g>
     </g>
     <g id="text_3">
      <!-- 0 -->
      <g transform="translate(42.88875 324.838438) scale(0.1 -0.1)">
       <use xlink:href="#DejaVuSans-30"/>
      </g>
     </g>
    </g>
    <g id="xtick_7">
     <g id="line2d_7">
      <g>
       <use xlink:href="#m03d08270a7" x="81.11125" y="310.24" style="stroke: #000000; stroke-width: 0.8"/>
      </g>
     </g>
     <g id="text_4">
      <!-- 2 -->
      <g transform="translate(77.93 324.838438) scale(0.1 -0.1)">
       <defs>
        <path id="DejaVuSans-32" d="M 1228 531 
L 3431 531 
L 3431 0 
L 469 0 
L 469 531 
Q 828 903 1448 1529 
Q 2069 2156 2228 2338 
Q 2531 2678 2651 2914 
Q 2772 3150 2772 3378 
Q 2772 3750 2511 3984 
Q 2250 4219 1831 4219 
Q 1534 4219 1204 4116 
Q 875 4013 500 3803 
L 500 4441 
Q 881 4594 1212 4672 
Q 1544 4750 1819 4750 
Q 2544 4750 2975 4387 
Q 3406 4025 3406 3419 
Q 3406 3131 3298 2873 
Q 3191 2616 2906 2266 
Q 2828 2175 2409 1742 
Q 1991 1309 1228 531 
z
" transform="scale(0.015625)"/>
       </defs>
       <use xlink:href="#DejaVuSans-32"/>
      </g>
     </g>
    </g>
    <g id="xtick_8">
     <g id="line2d_8">
      <g>
       <use xlink:href="#m03d08270a7" x="116.1525" y="310.24" style="stroke: #000000; stroke-width: 0.8"/>
      </g>
     </g>
     <g id="text_5">
      <!-- 4 -->
      <g transform="translate(112.97125 324.838438) scale(0.1 -0.1)">
       <defs>
        <path id="DejaVuSans-34" d="M 2419 4116 
L 825 1625 
L 2419 1625 
L 2419 4116 
z
M 2253 4666 
L 3047 4666 
L 3047 1625 
L 3713 1625 
L 3713 1100 
L 3047 1100 
L 3047 0 
L 2419 0 
L 2419 1100 
L 313 1100 
L 313 1709 
L 2253 4666 
z
" transform="scale(0.015625)"/>
       </defs>
       <use xlink:href="#DejaVuSans-34"/>
      </g>
     </g>
    </g>
    <g id="xtick_9">
     <g id="line2d_9">
      <g>
       <use xlink:href="#m03d08270a7" x="151.19375" y="310.24" style="stroke: #000000; stroke-width: 0.8"/>
      </g>
     </g>
     <g id="text_6">
      <!-- 6 -->
      <g transform="translate(148.0125 324.838438) scale(0.1 -0.1)">
       <defs>
        <path id="DejaVuSans-36" d="M 2113 2584 
Q 1688 2584 1439 2293 
Q 1191 2003 1191 1497 
Q 1191 994 1439 701 
Q 1688 409 2113 409 
Q 2538 409 2786 701 
Q 3034 994 3034 1497 
Q 3034 2003 2786 2293 
Q 2538 2584 2113 2584 
z
M 3366 4563 
L 3366 3988 
Q 3128 4100 2886 4159 
Q 2644 4219 2406 4219 
Q 1781 4219 1451 3797 
Q 1122 3375 1075 2522 
Q 1259 2794 1537 2939 
Q 1816 3084 2150 3084 
Q 2853 3084 3261 2657 
Q 3669 2231 3669 1497 
Q 3669 778 3244 343 
Q 2819 -91 2113 -91 
Q 1303 -91 875 529 
Q 447 1150 447 2328 
Q 447 3434 972 4092 
Q 1497 4750 2381 4750 
Q 2619 4750 2861 4703 
Q 3103 4656 3366 4563 
z
" transform="scale(0.015625)"/>
       </defs>
       <use xlink:href="#DejaVuSans-36"/>
      </g>
     </g>
    </g>
    <g id="xtick_10">
     <g id="line2d_10">
      <g>
       <use xlink:href="#m03d08270a7" x="186.235" y="310.24" style="stroke: #000000; stroke-width: 0.8"/>
      </g>
     </g>
     <g id="text_7">
      <!-- 8 -->
      <g transform="translate(183.05375 324.838438) scale(0.1 -0.1)">
       <defs>
        <path id="DejaVuSans-38" d="M 2034 2216 
Q 1584 2216 1326 1975 
Q 1069 1734 1069 1313 
Q 1069 891 1326 650 
Q 1584 409 2034 409 
Q 2484 409 2743 651 
Q 3003 894 3003 1313 
Q 3003 1734 2745 1975 
Q 2488 2216 2034 2216 
z
M 1403 2484 
Q 997 2584 770 2862 
Q 544 3141 544 3541 
Q 544 4100 942 4425 
Q 1341 4750 2034 4750 
Q 2731 4750 3128 4425 
Q 3525 4100 3525 3541 
Q 3525 3141 3298 2862 
Q 3072 2584 2669 2484 
Q 3125 2378 3379 2068 
Q 3634 1759 3634 1313 
Q 3634 634 3220 271 
Q 2806 -91 2034 -91 
Q 1263 -91 848 271 
Q 434 634 434 1313 
Q 434 1759 690 2068 
Q 947 2378 1403 2484 
z
M 1172 3481 
Q 1172 3119 1398 2916 
Q 1625 2713 2034 2713 
Q 2441 2713 2670 2916 
Q 2900 3119 2900 3481 
Q 2900 3844 2670 4047 
Q 2441 4250 2034 4250 
Q 1625 4250 1398 4047 
Q 1172 3844 1172 3481 
z
" transform="scale(0.015625)"/>
       </defs>
       <use xlink:href="#DejaVuSans-38"/>
      </g>
     </g>
    </g>
    <g id="text_8">
     <!-- inferred dec temp -->
     <g transform="translate(71.336875 338.516563) scale(0.1 -0.1)">
      <defs>
       <path id="DejaVuSans-69" d="M 603 3500 
L 1178 3500 
L 1178 0 
L 603 0 
L 603 3500 
z
M 603 4863 
L 1178 4863 
L 1178 4134 
L 603 4134 
L 603 4863 
z
" transform="scale(0.015625)"/>
       <path id="DejaVuSans-6e" d="M 3513 2113 
L 3513 0 
L 2938 0 
L 2938 2094 
Q 2938 2591 2744 2837 
Q 2550 3084 2163 3084 
Q 1697 3084 1428 2787 
Q 1159 2491 1159 1978 
L 1159 0 
L 581 0 
L 581 3500 
L 1159 3500 
L 1159 2956 
Q 1366 3272 1645 3428 
Q 1925 3584 2291 3584 
Q 2894 3584 3203 3211 
Q 3513 2838 3513 2113 
z
" transform="scale(0.015625)"/>
       <path id="DejaVuSans-66" d="M 2375 4863 
L 2375 4384 
L 1825 4384 
Q 1516 4384 1395 4259 
Q 1275 4134 1275 3809 
L 1275 3500 
L 2222 3500 
L 2222 3053 
L 1275 3053 
L 1275 0 
L 697 0 
L 697 3053 
L 147 3053 
L 147 3500 
L 697 3500 
L 697 3744 
Q 697 4328 969 4595 
Q 1241 4863 1831 4863 
L 2375 4863 
z
" transform="scale(0.015625)"/>
       <path id="DejaVuSans-65" d="M 3597 1894 
L 3597 1613 
L 953 1613 
Q 991 1019 1311 708 
Q 1631 397 2203 397 
Q 2534 397 2845 478 
Q 3156 559 3463 722 
L 3463 178 
Q 3153 47 2828 -22 
Q 2503 -91 2169 -91 
Q 1331 -91 842 396 
Q 353 884 353 1716 
Q 353 2575 817 3079 
Q 1281 3584 2069 3584 
Q 2775 3584 3186 3129 
Q 3597 2675 3597 1894 
z
M 3022 2063 
Q 3016 2534 2758 2815 
Q 2500 3097 2075 3097 
Q 1594 3097 1305 2825 
Q 1016 2553 972 2059 
L 3022 2063 
z
" transform="scale(0.015625)"/>
       <path id="DejaVuSans-64" d="M 2906 2969 
L 2906 4863 
L 3481 4863 
L 3481 0 
L 2906 0 
L 2906 525 
Q 2725 213 2448 61 
Q 2172 -91 1784 -91 
Q 1150 -91 751 415 
Q 353 922 353 1747 
Q 353 2572 751 3078 
Q 1150 3584 1784 3584 
Q 2172 3584 2448 3432 
Q 2725 3281 2906 2969 
z
M 947 1747 
Q 947 1113 1208 752 
Q 1469 391 1925 391 
Q 2381 391 2643 752 
Q 2906 1113 2906 1747 
Q 2906 2381 2643 2742 
Q 2381 3103 1925 3103 
Q 1469 3103 1208 2742 
Q 947 2381 947 1747 
z
" transform="scale(0.015625)"/>
       <path id="DejaVuSans-63" d="M 3122 3366 
L 3122 2828 
Q 2878 2963 2633 3030 
Q 2388 3097 2138 3097 
Q 1578 3097 1268 2742 
Q 959 2388 959 1747 
Q 959 1106 1268 751 
Q 1578 397 2138 397 
Q 2388 397 2633 464 
Q 2878 531 3122 666 
L 3122 134 
Q 2881 22 2623 -34 
Q 2366 -91 2075 -91 
Q 1284 -91 818 406 
Q 353 903 353 1747 
Q 353 2603 823 3093 
Q 1294 3584 2113 3584 
Q 2378 3584 2631 3529 
Q 2884 3475 3122 3366 
z
" transform="scale(0.015625)"/>
       <path id="DejaVuSans-74" d="M 1172 4494 
L 1172 3500 
L 2356 3500 
L 2356 3053 
L 1172 3053 
L 1172 1153 
Q 1172 725 1289 603 
Q 1406 481 1766 481 
L 2356 481 
L 2356 0 
L 1766 0 
Q 1100 0 847 248 
Q 594 497 594 1153 
L 594 3053 
L 172 3053 
L 172 3500 
L 594 3500 
L 594 4494 
L 1172 4494 
z
" transform="scale(0.015625)"/>
       <path id="DejaVuSans-6d" d="M 3328 2828 
Q 3544 3216 3844 3400 
Q 4144 3584 4550 3584 
Q 5097 3584 5394 3201 
Q 5691 2819 5691 2113 
L 5691 0 
L 5113 0 
L 5113 2094 
Q 5113 2597 4934 2840 
Q 4756 3084 4391 3084 
Q 3944 3084 3684 2787 
Q 3425 2491 3425 1978 
L 3425 0 
L 2847 0 
L 2847 2094 
Q 2847 2600 2669 2842 
Q 2491 3084 2119 3084 
Q 1678 3084 1418 2786 
Q 1159 2488 1159 1978 
L 1159 0 
L 581 0 
L 581 3500 
L 1159 3500 
L 1159 2956 
Q 1356 3278 1631 3431 
Q 1906 3584 2284 3584 
Q 2666 3584 2933 3390 
Q 3200 3197 3328 2828 
z
" transform="scale(0.015625)"/>
      </defs>
      <use xlink:href="#DejaVuSans-69"/>
      <use xlink:href="#DejaVuSans-6e" transform="translate(27.783203 0)"/>
      <use xlink:href="#DejaVuSans-66" transform="translate(91.162109 0)"/>
      <use xlink:href="#DejaVuSans-65" transform="translate(126.367188 0)"/>
      <use xlink:href="#DejaVuSans-72" transform="translate(187.890625 0)"/>
      <use xlink:href="#DejaVuSans-72" transform="translate(227.253906 0)"/>
      <use xlink:href="#DejaVuSans-65" transform="translate(266.117188 0)"/>
      <use xlink:href="#DejaVuSans-64" transform="translate(327.640625 0)"/>
      <use xlink:href="#DejaVuSans-20" transform="translate(391.117188 0)"/>
      <use xlink:href="#DejaVuSans-64" transform="translate(422.904297 0)"/>
      <use xlink:href="#DejaVuSans-65" transform="translate(486.380859 0)"/>
      <use xlink:href="#DejaVuSans-63" transform="translate(547.904297 0)"/>
      <use xlink:href="#DejaVuSans-20" transform="translate(602.884766 0)"/>
      <use xlink:href="#DejaVuSans-74" transform="translate(634.671875 0)"/>
      <use xlink:href="#DejaVuSans-65" transform="translate(673.880859 0)"/>
      <use xlink:href="#DejaVuSans-6d" transform="translate(735.404297 0)"/>
      <use xlink:href="#DejaVuSans-70" transform="translate(832.816406 0)"/>
     </g>
    </g>
   </g>
   <g id="matplotlib.axis_3">
    <g id="ytick_1">
     <g id="line2d_11">
      <defs>
       <path id="m2d54344e6a" d="M 0 0 
L -3.5 0 
" style="stroke: #000000; stroke-width: 0.8"/>
      </defs>
      <g>
       <use xlink:href="#m2d54344e6a" x="46.07" y="310.24" style="stroke: #000000; stroke-width: 0.8"/>
      </g>
     </g>
     <g id="text_9">
      <!-- 0 -->
      <g transform="translate(32.7075 314.039219) scale(0.1 -0.1)">
       <use xlink:href="#DejaVuSans-30"/>
      </g>
     </g>
    </g>
    <g id="ytick_2">
     <g id="line2d_12">
      <g>
       <use xlink:href="#m2d54344e6a" x="46.07" y="276.0975" style="stroke: #000000; stroke-width: 0.8"/>
      </g>
     </g>
     <g id="text_10">
      <!-- 2 -->
      <g transform="translate(32.7075 279.896719) scale(0.1 -0.1)">
       <use xlink:href="#DejaVuSans-32"/>
      </g>
     </g>
    </g>
    <g id="ytick_3">
     <g id="line2d_13">
      <g>
       <use xlink:href="#m2d54344e6a" x="46.07" y="241.955" style="stroke: #000000; stroke-width: 0.8"/>
      </g>
     </g>
     <g id="text_11">
      <!-- 4 -->
      <g transform="translate(32.7075 245.754219) scale(0.1 -0.1)">
       <use xlink:href="#DejaVuSans-34"/>
      </g>
     </g>
    </g>
    <g id="ytick_4">
     <g id="line2d_14">
      <g>
       <use xlink:href="#m2d54344e6a" x="46.07" y="207.8125" style="stroke: #000000; stroke-width: 0.8"/>
      </g>
     </g>
     <g id="text_12">
      <!-- 6 -->
      <g transform="translate(32.7075 211.611719) scale(0.1 -0.1)">
       <use xlink:href="#DejaVuSans-36"/>
      </g>
     </g>
    </g>
    <g id="ytick_5">
     <g id="line2d_15">
      <g>
       <use xlink:href="#m2d54344e6a" x="46.07" y="173.67" style="stroke: #000000; stroke-width: 0.8"/>
      </g>
     </g>
     <g id="text_13">
      <!-- 8 -->
      <g transform="translate(32.7075 177.469219) scale(0.1 -0.1)">
       <use xlink:href="#DejaVuSans-38"/>
      </g>
     </g>
    </g>
    <g id="text_14">
     <!-- inferred habitual tendency -->
     <g transform="translate(26.627813 308.401094) rotate(-90) scale(0.1 -0.1)">
      <defs>
       <path id="DejaVuSans-68" d="M 3513 2113 
L 3513 0 
L 2938 0 
L 2938 2094 
Q 2938 2591 2744 2837 
Q 2550 3084 2163 3084 
Q 1697 3084 1428 2787 
Q 1159 2491 1159 1978 
L 1159 0 
L 581 0 
L 581 4863 
L 1159 4863 
L 1159 2956 
Q 1366 3272 1645 3428 
Q 1925 3584 2291 3584 
Q 2894 3584 3203 3211 
Q 3513 2838 3513 2113 
z
" transform="scale(0.015625)"/>
       <path id="DejaVuSans-61" d="M 2194 1759 
Q 1497 1759 1228 1600 
Q 959 1441 959 1056 
Q 959 750 1161 570 
Q 1363 391 1709 391 
Q 2188 391 2477 730 
Q 2766 1069 2766 1631 
L 2766 1759 
L 2194 1759 
z
M 3341 1997 
L 3341 0 
L 2766 0 
L 2766 531 
Q 2569 213 2275 61 
Q 1981 -91 1556 -91 
Q 1019 -91 701 211 
Q 384 513 384 1019 
Q 384 1609 779 1909 
Q 1175 2209 1959 2209 
L 2766 2209 
L 2766 2266 
Q 2766 2663 2505 2880 
Q 2244 3097 1772 3097 
Q 1472 3097 1187 3025 
Q 903 2953 641 2809 
L 641 3341 
Q 956 3463 1253 3523 
Q 1550 3584 1831 3584 
Q 2591 3584 2966 3190 
Q 3341 2797 3341 1997 
z
" transform="scale(0.015625)"/>
       <path id="DejaVuSans-62" d="M 3116 1747 
Q 3116 2381 2855 2742 
Q 2594 3103 2138 3103 
Q 1681 3103 1420 2742 
Q 1159 2381 1159 1747 
Q 1159 1113 1420 752 
Q 1681 391 2138 391 
Q 2594 391 2855 752 
Q 3116 1113 3116 1747 
z
M 1159 2969 
Q 1341 3281 1617 3432 
Q 1894 3584 2278 3584 
Q 2916 3584 3314 3078 
Q 3713 2572 3713 1747 
Q 3713 922 3314 415 
Q 2916 -91 2278 -91 
Q 1894 -91 1617 61 
Q 1341 213 1159 525 
L 1159 0 
L 581 0 
L 581 4863 
L 1159 4863 
L 1159 2969 
z
" transform="scale(0.015625)"/>
       <path id="DejaVuSans-75" d="M 544 1381 
L 544 3500 
L 1119 3500 
L 1119 1403 
Q 1119 906 1312 657 
Q 1506 409 1894 409 
Q 2359 409 2629 706 
Q 2900 1003 2900 1516 
L 2900 3500 
L 3475 3500 
L 3475 0 
L 2900 0 
L 2900 538 
Q 2691 219 2414 64 
Q 2138 -91 1772 -91 
Q 1169 -91 856 284 
Q 544 659 544 1381 
z
M 1991 3584 
L 1991 3584 
z
" transform="scale(0.015625)"/>
       <path id="DejaVuSans-6c" d="M 603 4863 
L 1178 4863 
L 1178 0 
L 603 0 
L 603 4863 
z
" transform="scale(0.015625)"/>
       <path id="DejaVuSans-79" d="M 2059 -325 
Q 1816 -950 1584 -1140 
Q 1353 -1331 966 -1331 
L 506 -1331 
L 506 -850 
L 844 -850 
Q 1081 -850 1212 -737 
Q 1344 -625 1503 -206 
L 1606 56 
L 191 3500 
L 800 3500 
L 1894 763 
L 2988 3500 
L 3597 3500 
L 2059 -325 
z
" transform="scale(0.015625)"/>
      </defs>
      <use xlink:href="#DejaVuSans-69"/>
      <use xlink:href="#DejaVuSans-6e" transform="translate(27.783203 0)"/>
      <use xlink:href="#DejaVuSans-66" transform="translate(91.162109 0)"/>
      <use xlink:href="#DejaVuSans-65" transform="translate(126.367188 0)"/>
      <use xlink:href="#DejaVuSans-72" transform="translate(187.890625 0)"/>
      <use xlink:href="#DejaVuSans-72" transform="translate(227.253906 0)"/>
      <use xlink:href="#DejaVuSans-65" transform="translate(266.117188 0)"/>
      <use xlink:href="#DejaVuSans-64" transform="translate(327.640625 0)"/>
      <use xlink:href="#DejaVuSans-20" transform="translate(391.117188 0)"/>
      <use xlink:href="#DejaVuSans-68" transform="translate(422.904297 0)"/>
      <use xlink:href="#DejaVuSans-61" transform="translate(486.283203 0)"/>
      <use xlink:href="#DejaVuSans-62" transform="translate(547.5625 0)"/>
      <use xlink:href="#DejaVuSans-69" transform="translate(611.039062 0)"/>
      <use xlink:href="#DejaVuSans-74" transform="translate(638.822266 0)"/>
      <use xlink:href="#DejaVuSans-75" transform="translate(678.03125 0)"/>
      <use xlink:href="#DejaVuSans-61" transform="translate(741.410156 0)"/>
      <use xlink:href="#DejaVuSans-6c" transform="translate(802.689453 0)"/>
      <use xlink:href="#DejaVuSans-20" transform="translate(830.472656 0)"/>
      <use xlink:href="#DejaVuSans-74" transform="translate(862.259766 0)"/>
      <use xlink:href="#DejaVuSans-65" transform="translate(901.46875 0)"/>
      <use xlink:href="#DejaVuSans-6e" transform="translate(962.992188 0)"/>
      <use xlink:href="#DejaVuSans-64" transform="translate(1026.371094 0)"/>
      <use xlink:href="#DejaVuSans-65" transform="translate(1089.847656 0)"/>
      <use xlink:href="#DejaVuSans-6e" transform="translate(1151.371094 0)"/>
      <use xlink:href="#DejaVuSans-63" transform="translate(1214.75 0)"/>
      <use xlink:href="#DejaVuSans-79" transform="translate(1269.730469 0)"/>
     </g>
    </g>
   </g>
   <g id="line2d_16">
    <path d="M 57.429095 280.063116 
L 57.619622 279.824182 
L 57.810149 279.585248 
L 58.000676 279.346315 
L 58.191203 279.107381 
L 58.38173 278.868447 
L 58.572257 278.629513 
L 58.762783 278.390581 
L 58.95331 278.151646 
L 59.143838 277.912712 
L 59.334365 277.673778 
L 59.524892 277.434844 
L 59.715418 277.195911 
L 59.905945 276.956977 
L 60.096472 276.718043 
L 60.286999 276.479109 
L 60.477527 276.240175 
L 60.668053 276.001242 
L 60.85858 275.762308 
L 61.049107 275.523374 
L 61.239633 275.284442 
L 61.430161 275.045506 
L 61.620688 274.806573 
L 61.811215 274.567639 
L 62.001742 274.328705 
L 62.192268 274.089773 
L 62.382796 273.850837 
L 62.573322 273.611904 
L 62.763849 273.37297 
L 62.954377 273.134036 
L 63.144903 272.895104 
L 63.33543 272.65617 
L 63.525957 272.417235 
L 63.716485 272.1783 
L 63.907011 271.939367 
L 64.097538 271.700435 
L 64.288066 271.461499 
L 64.478592 271.222566 
L 64.669118 270.983634 
L 64.859646 270.744698 
L 65.050172 270.505766 
L 65.240698 270.266833 
L 65.431227 270.027897 
L 65.621753 269.788965 
L 65.812281 269.550029 
L 66.002807 269.311097 
L 66.193335 269.072161 
L 66.383861 268.833228 
L 66.574388 268.594296 
L 66.764916 268.35536 
L 66.955442 268.116428 
L 67.145968 267.877495 
L 67.336496 267.638559 
L 67.527022 267.399627 
L 67.717548 267.160694 
L 67.908077 266.921759 
L 68.098605 266.682823 
L 68.289131 266.44389 
L 68.479657 266.204958 
L 68.670185 265.966022 
L 68.860711 265.72709 
L 69.051238 265.488157 
L 69.241766 265.249221 
L 69.432292 265.010289 
L 69.622818 264.771356 
L 69.813346 264.532421 
L 70.003874 264.293485 
L 70.194398 264.054555 
L 70.384927 263.81562 
L 70.575455 263.576684 
L 70.765981 263.337751 
L 70.956507 263.098819 
L 71.147035 262.859883 
L 71.337561 262.620951 
L 71.528088 262.382018 
L 71.718616 262.143082 
L 71.909142 261.90415 
L 72.099668 261.665217 
L 72.290196 261.426282 
L 72.480724 261.187346 
L 72.671248 260.948416 
L 72.861777 260.709481 
L 73.052305 260.470545 
L 73.242831 260.231613 
L 73.433357 259.99268 
L 73.623885 259.753744 
L 73.814411 259.514812 
L 74.004938 259.275879 
L 74.195466 259.036944 
L 74.385994 258.798008 
L 74.576518 258.559078 
L 74.767046 258.320143 
L 74.957574 258.081207 
L 75.148098 257.842277 
L 75.338627 257.603342 
L 75.529155 257.364406 
L 75.719683 257.125471 
L 75.910207 256.886541 
L 76.100735 256.647606 
L 76.291264 256.40867 
" clip-path="url(#p324ab1ffd5)" style="fill: none; stroke: #008000; stroke-opacity: 0.6; stroke-width: 2.25; stroke-linecap: square"/>
   </g>
   <g id="patch_5">
    <path d="M 46.07 310.24 
L 46.07 173.67 
" style="fill: none; stroke: #000000; stroke-width: 0.8; stroke-linejoin: miter; stroke-linecap: square"/>
   </g>
   <g id="patch_6">
    <path d="M 46.07 310.24 
L 186.235 310.24 
" style="fill: none; stroke: #000000; stroke-width: 0.8; stroke-linejoin: miter; stroke-linecap: square"/>
   </g>
   <g id="text_15">
    <!-- r = 0.34  -->
    <g transform="translate(60.0865 187.327) scale(0.1 -0.1)">
     <defs>
      <path id="DejaVuSans-33" d="M 2597 2516 
Q 3050 2419 3304 2112 
Q 3559 1806 3559 1356 
Q 3559 666 3084 287 
Q 2609 -91 1734 -91 
Q 1441 -91 1130 -33 
Q 819 25 488 141 
L 488 750 
Q 750 597 1062 519 
Q 1375 441 1716 441 
Q 2309 441 2620 675 
Q 2931 909 2931 1356 
Q 2931 1769 2642 2001 
Q 2353 2234 1838 2234 
L 1294 2234 
L 1294 2753 
L 1863 2753 
Q 2328 2753 2575 2939 
Q 2822 3125 2822 3475 
Q 2822 3834 2567 4026 
Q 2313 4219 1838 4219 
Q 1578 4219 1281 4162 
Q 984 4106 628 3988 
L 628 4550 
Q 988 4650 1302 4700 
Q 1616 4750 1894 4750 
Q 2613 4750 3031 4423 
Q 3450 4097 3450 3541 
Q 3450 3153 3228 2886 
Q 3006 2619 2597 2516 
z
" transform="scale(0.015625)"/>
     </defs>
     <use xlink:href="#DejaVuSans-72"/>
     <use xlink:href="#DejaVuSans-20" transform="translate(41.113281 0)"/>
     <use xlink:href="#DejaVuSans-3d" transform="translate(72.900391 0)"/>
     <use xlink:href="#DejaVuSans-20" transform="translate(156.689453 0)"/>
     <use xlink:href="#DejaVuSans-30" transform="translate(188.476562 0)"/>
     <use xlink:href="#DejaVuSans-2e" transform="translate(252.099609 0)"/>
     <use xlink:href="#DejaVuSans-33" transform="translate(283.886719 0)"/>
     <use xlink:href="#DejaVuSans-34" transform="translate(347.509766 0)"/>
     <use xlink:href="#DejaVuSans-20" transform="translate(411.132812 0)"/>
    </g>
   </g>
   <g id="text_16">
    <!-- p = 0.451 -->
    <g transform="translate(116.1525 187.327) scale(0.1 -0.1)">
     <defs>
      <path id="DejaVuSans-35" d="M 691 4666 
L 3169 4666 
L 3169 4134 
L 1269 4134 
L 1269 2991 
Q 1406 3038 1543 3061 
Q 1681 3084 1819 3084 
Q 2600 3084 3056 2656 
Q 3513 2228 3513 1497 
Q 3513 744 3044 326 
Q 2575 -91 1722 -91 
Q 1428 -91 1123 -41 
Q 819 9 494 109 
L 494 744 
Q 775 591 1075 516 
Q 1375 441 1709 441 
Q 2250 441 2565 725 
Q 2881 1009 2881 1497 
Q 2881 1984 2565 2268 
Q 2250 2553 1709 2553 
Q 1456 2553 1204 2497 
Q 953 2441 691 2322 
L 691 4666 
z
" transform="scale(0.015625)"/>
     </defs>
     <use xlink:href="#DejaVuSans-70"/>
     <use xlink:href="#DejaVuSans-20" transform="translate(63.476562 0)"/>
     <use xlink:href="#DejaVuSans-3d" transform="translate(95.263672 0)"/>
     <use xlink:href="#DejaVuSans-20" transform="translate(179.052734 0)"/>
     <use xlink:href="#DejaVuSans-30" transform="translate(210.839844 0)"/>
     <use xlink:href="#DejaVuSans-2e" transform="translate(274.462891 0)"/>
     <use xlink:href="#DejaVuSans-34" transform="translate(306.25 0)"/>
     <use xlink:href="#DejaVuSans-35" transform="translate(369.873047 0)"/>
     <use xlink:href="#DejaVuSans-31" transform="translate(433.496094 0)"/>
    </g>
   </g>
  </g>
  <g id="axes_3">
   <g id="patch_7">
    <path d="M 201.235 310.24 
L 341.4 310.24 
L 341.4 173.67 
L 201.235 173.67 
z
" style="fill: #ffffff"/>
   </g>
   <g id="matplotlib.axis_4">
    <g id="xtick_11">
     <g id="line2d_17">
      <g>
       <use xlink:href="#m03d08270a7" x="201.235" y="310.24" style="stroke: #000000; stroke-width: 0.8"/>
      </g>
     </g>
     <g id="text_17">
      <!-- 0 -->
      <g transform="translate(198.05375 324.838438) scale(0.1 -0.1)">
       <use xlink:href="#DejaVuSans-30"/>
      </g>
     </g>
    </g>
    <g id="xtick_12">
     <g id="line2d_18">
      <g>
       <use xlink:href="#m03d08270a7" x="236.27625" y="310.24" style="stroke: #000000; stroke-width: 0.8"/>
      </g>
     </g>
     <g id="text_18">
      <!-- 2 -->
      <g transform="translate(233.095 324.838438) scale(0.1 -0.1)">
       <use xlink:href="#DejaVuSans-32"/>
      </g>
     </g>
    </g>
    <g id="xtick_13">
     <g id="line2d_19">
      <g>
       <use xlink:href="#m03d08270a7" x="271.3175" y="310.24" style="stroke: #000000; stroke-width: 0.8"/>
      </g>
     </g>
     <g id="text_19">
      <!-- 4 -->
      <g transform="translate(268.13625 324.838438) scale(0.1 -0.1)">
       <use xlink:href="#DejaVuSans-34"/>
      </g>
     </g>
    </g>
    <g id="xtick_14">
     <g id="line2d_20">
      <g>
       <use xlink:href="#m03d08270a7" x="306.35875" y="310.24" style="stroke: #000000; stroke-width: 0.8"/>
      </g>
     </g>
     <g id="text_20">
      <!-- 6 -->
      <g transform="translate(303.1775 324.838438) scale(0.1 -0.1)">
       <use xlink:href="#DejaVuSans-36"/>
      </g>
     </g>
    </g>
    <g id="xtick_15">
     <g id="line2d_21">
      <g>
       <use xlink:href="#m03d08270a7" x="341.4" y="310.24" style="stroke: #000000; stroke-width: 0.8"/>
      </g>
     </g>
     <g id="text_21">
      <!-- 8 -->
      <g transform="translate(338.21875 324.838438) scale(0.1 -0.1)">
       <use xlink:href="#DejaVuSans-38"/>
      </g>
     </g>
    </g>
    <g id="text_22">
     <!-- inferred habitual tendency -->
     <g transform="translate(204.871406 338.516563) scale(0.1 -0.1)">
      <use xlink:href="#DejaVuSans-69"/>
      <use xlink:href="#DejaVuSans-6e" transform="translate(27.783203 0)"/>
      <use xlink:href="#DejaVuSans-66" transform="translate(91.162109 0)"/>
      <use xlink:href="#DejaVuSans-65" transform="translate(126.367188 0)"/>
      <use xlink:href="#DejaVuSans-72" transform="translate(187.890625 0)"/>
      <use xlink:href="#DejaVuSans-72" transform="translate(227.253906 0)"/>
      <use xlink:href="#DejaVuSans-65" transform="translate(266.117188 0)"/>
      <use xlink:href="#DejaVuSans-64" transform="translate(327.640625 0)"/>
      <use xlink:href="#DejaVuSans-20" transform="translate(391.117188 0)"/>
      <use xlink:href="#DejaVuSans-68" transform="translate(422.904297 0)"/>
      <use xlink:href="#DejaVuSans-61" transform="translate(486.283203 0)"/>
      <use xlink:href="#DejaVuSans-62" transform="translate(547.5625 0)"/>
      <use xlink:href="#DejaVuSans-69" transform="translate(611.039062 0)"/>
      <use xlink:href="#DejaVuSans-74" transform="translate(638.822266 0)"/>
      <use xlink:href="#DejaVuSans-75" transform="translate(678.03125 0)"/>
      <use xlink:href="#DejaVuSans-61" transform="translate(741.410156 0)"/>
      <use xlink:href="#DejaVuSans-6c" transform="translate(802.689453 0)"/>
      <use xlink:href="#DejaVuSans-20" transform="translate(830.472656 0)"/>
      <use xlink:href="#DejaVuSans-74" transform="translate(862.259766 0)"/>
      <use xlink:href="#DejaVuSans-65" transform="translate(901.46875 0)"/>
      <use xlink:href="#DejaVuSans-6e" transform="translate(962.992188 0)"/>
      <use xlink:href="#DejaVuSans-64" transform="translate(1026.371094 0)"/>
      <use xlink:href="#DejaVuSans-65" transform="translate(1089.847656 0)"/>
      <use xlink:href="#DejaVuSans-6e" transform="translate(1151.371094 0)"/>
      <use xlink:href="#DejaVuSans-63" transform="translate(1214.75 0)"/>
      <use xlink:href="#DejaVuSans-79" transform="translate(1269.730469 0)"/>
     </g>
    </g>
   </g>
   <g id="patch_8">
    <path d="M 201.235 310.24 
L 341.4 310.24 
" style="fill: none; stroke: #000000; stroke-width: 0.8; stroke-linejoin: miter; stroke-linecap: square"/>
   </g>
   <g id="text_23">
    <!-- r = 1.00  -->
    <g transform="translate(215.2515 187.327) scale(0.1 -0.1)">
     <use xlink:href="#DejaVuSans-72"/>
     <use xlink:href="#DejaVuSans-20" transform="translate(41.113281 0)"/>
     <use xlink:href="#DejaVuSans-3d" transform="translate(72.900391 0)"/>
     <use xlink:href="#DejaVuSans-20" transform="translate(156.689453 0)"/>
     <use xlink:href="#DejaVuSans-31" transform="translate(188.476562 0)"/>
     <use xlink:href="#DejaVuSans-2e" transform="translate(252.099609 0)"/>
     <use xlink:href="#DejaVuSans-30" transform="translate(283.886719 0)"/>
     <use xlink:href="#DejaVuSans-30" transform="translate(347.509766 0)"/>
     <use xlink:href="#DejaVuSans-20" transform="translate(411.132812 0)"/>
    </g>
   </g>
   <g id="text_24">
    <!-- p = 0.000 -->
    <g transform="translate(271.3175 187.327) scale(0.1 -0.1)">
     <use xlink:href="#DejaVuSans-70"/>
     <use xlink:href="#DejaVuSans-20" transform="translate(63.476562 0)"/>
     <use xlink:href="#DejaVuSans-3d" transform="translate(95.263672 0)"/>
     <use xlink:href="#DejaVuSans-20" transform="translate(179.052734 0)"/>
     <use xlink:href="#DejaVuSans-30" transform="translate(210.839844 0)"/>
     <use xlink:href="#DejaVuSans-2e" transform="translate(274.462891 0)"/>
     <use xlink:href="#DejaVuSans-30" transform="translate(306.25 0)"/>
     <use xlink:href="#DejaVuSans-30" transform="translate(369.873047 0)"/>
     <use xlink:href="#DejaVuSans-30" transform="translate(433.496094 0)"/>
    </g>
   </g>
  </g>
  <g id="axes_4">
   <g id="patch_9">
    <path d="M 57.429095 155.17 
L 62.144637 155.17 
L 62.144637 122.653333 
L 57.429095 122.653333 
z
" clip-path="url(#p2ab9573883)" style="fill: #1f77b4; fill-opacity: 0.75; stroke: #000000; stroke-linejoin: miter"/>
   </g>
   <g id="patch_10">
    <path d="M 62.144637 155.17 
L 66.860179 155.17 
L 66.860179 90.136667 
L 62.144637 90.136667 
z
" clip-path="url(#p2ab9573883)" style="fill: #1f77b4; fill-opacity: 0.75; stroke: #000000; stroke-linejoin: miter"/>
   </g>
   <g id="patch_11">
    <path d="M 66.860179 155.17 
L 71.575721 155.17 
L 71.575721 90.136667 
L 66.860179 90.136667 
z
" clip-path="url(#p2ab9573883)" style="fill: #1f77b4; fill-opacity: 0.75; stroke: #000000; stroke-linejoin: miter"/>
   </g>
   <g id="patch_12">
    <path d="M 71.575721 155.17 
L 76.291264 155.17 
L 76.291264 90.136667 
L 71.575721 90.136667 
z
" clip-path="url(#p2ab9573883)" style="fill: #1f77b4; fill-opacity: 0.75; stroke: #000000; stroke-linejoin: miter"/>
   </g>
  </g>
  <g id="axes_5">
   <g id="patch_13">
    <path d="M 228.342708 310.24 
L 239.711257 310.24 
L 239.711257 180.173333 
L 228.342708 180.173333 
z
" clip-path="url(#p889bfaa99e)" style="fill: #1f77b4; fill-opacity: 0.75; stroke: #000000; stroke-linejoin: miter"/>
   </g>
   <g id="patch_14">
    <path d="M 239.711257 310.24 
L 251.079806 310.24 
L 251.079806 245.206667 
L 239.711257 245.206667 
z
" clip-path="url(#p889bfaa99e)" style="fill: #1f77b4; fill-opacity: 0.75; stroke: #000000; stroke-linejoin: miter"/>
   </g>
   <g id="patch_15">
    <path d="M 251.079806 310.24 
L 262.448355 310.24 
L 262.448355 310.24 
L 251.079806 310.24 
z
" clip-path="url(#p889bfaa99e)" style="fill: #1f77b4; fill-opacity: 0.75; stroke: #000000; stroke-linejoin: miter"/>
   </g>
   <g id="patch_16">
    <path d="M 262.448355 310.24 
L 273.816904 310.24 
L 273.816904 310.24 
L 262.448355 310.24 
z
" clip-path="url(#p889bfaa99e)" style="fill: #1f77b4; fill-opacity: 0.75; stroke: #000000; stroke-linejoin: miter"/>
   </g>
   <g id="patch_17">
    <path d="M 273.816904 310.24 
L 285.185453 310.24 
L 285.185453 310.24 
L 273.816904 310.24 
z
" clip-path="url(#p889bfaa99e)" style="fill: #1f77b4; fill-opacity: 0.75; stroke: #000000; stroke-linejoin: miter"/>
   </g>
   <g id="patch_18">
    <path d="M 285.185453 310.24 
L 296.554002 310.24 
L 296.554002 277.723333 
L 285.185453 277.723333 
z
" clip-path="url(#p889bfaa99e)" style="fill: #1f77b4; fill-opacity: 0.75; stroke: #000000; stroke-linejoin: miter"/>
   </g>
  </g>
 </g>
 <defs>
  <clipPath id="p324ab1ffd5">
   <rect x="46.07" y="173.67" width="140.165" height="136.57"/>
  </clipPath>
  <clipPath id="p2ab9573883">
   <rect x="46.07" y="18.6" width="140.165" height="136.57"/>
  </clipPath>
  <clipPath id="p889bfaa99e">
   <rect x="201.235" y="173.67" width="140.165" height="136.57"/>
  </clipPath>
 </defs>
</svg>
