<?xml version="1.0" encoding="utf-8" standalone="no"?>
<!DOCTYPE svg PUBLIC "-//W3C//DTD SVG 1.1//EN"
  "http://www.w3.org/Graphics/SVG/1.1/DTD/svg11.dtd">
<svg xmlns:xlink="http://www.w3.org/1999/xlink" width="360pt" height="360pt" viewBox="0 0 360 360" xmlns="http://www.w3.org/2000/svg" version="1.1">
 <metadata>
  <rdf:RDF xmlns:dc="http://purl.org/dc/elements/1.1/" xmlns:cc="http://creativecommons.org/ns#" xmlns:rdf="http://www.w3.org/1999/02/22-rdf-syntax-ns#">
   <cc:Work>
    <dc:type rdf:resource="http://purl.org/dc/dcmitype/StillImage"/>
    <dc:date>2026-01-20T17:04:27.298951</dc:date>
    <dc:format>image/svg+xml</dc:format>
    <dc:creator>
     <cc:Agent>
      <dc:title>Matplotlib v3.10.8, https://matplotlib.org/</dc:title>
     </cc:Agent>
    </dc:creator>
   </cc:Work>
  </rdf:RDF>
 </metadata>
 <defs>
  <style type="text/css">*{stroke-linejoin: round; stroke-linecap: butt}</style>
 </defs>
 <g id="figure_1">
  <g id="patch_1">
   <path d="M 0 360 
L 360 360 
L 360 0 
L 0 0 
z
" style="fill: #ffffff"/>
  </g>
  <g id="axes_1">
   <g id="patch_2">
    <path d="M 46.07 155.17 
L 185.410577 155.17 
L 185.410577 18.6 
L 46.07 18.6 
z
" style="fill: #ffffff"/>
   </g>
   <g id="matplotlib.axis_1">
    <g id="xtick_1">
     <g id="line2d_1">
      <defs>
       <path id="m4587d036d1" d="M 0 0 
L 0 3.5 
" style="stroke: #000000; stroke-width: 0.8"/>
      </defs>
      <g>
       <use xlink:href="#m4587d036d1" x="46.07" y="155.17" style="stroke: #000000; stroke-width: 0.8"/>
      </g>
     </g>
    </g>
    <g id="xtick_2">
     <g id="line2d_2">
      <g>
       <use xlink:href="#m4587d036d1" x="80.905144" y="155.17" style="stroke: #000000; stroke-width: 0.8"/>
      </g>
     </g>
    </g>
    <g id="xtick_3">
     <g id="line2d_3">
      <g>
       <use xlink:href="#m4587d036d1" x="115.740288" y="155.17" style="stroke: #000000; stroke-width: 0.8"/>
      </g>
     </g>
    </g>
    <g id="xtick_4">
     <g id="line2d_4">
      <g>
       <use xlink:href="#m4587d036d1" x="150.575432" y="155.17" style="stroke: #000000; stroke-width: 0.8"/>
      </g>
     </g>
    </g>
    <g id="xtick_5">
     <g id="line2d_5">
      <g>
       <use xlink:href="#m4587d036d1" x="185.410577" y="155.17" style="stroke: #000000; stroke-width: 0.8"/>
      </g>
     </g>
    </g>
   </g>
   <g id="patch_3">
    <path d="M 46.07 155.17 
L 185.410577 155.17 
" style="fill: none; stroke: #000000; stroke-width: 0.8; stroke-linejoin: miter; stroke-linecap: square"/>
   </g>
   <g id="text_1">
    <!-- r = 1.00  -->
    <g transform="translate(60.004058 32.257) scale(0.1 -0.1)">
     <defs>
      <path id="DejaVuSans-72" d="M 2631 2963 
Q 2534 3019 2420 3045 
Q 2306 3072 2169 3072 
Q 1681 3072 1420 2755 
Q 1159 2438 1159 1844 
L 1159 0 
L 581 0 
L 581 3500 
L 1159 3500 
L 1159 2956 
Q 1341 3275 1631 3429 
Q 1922 3584 2338 3584 
Q 2397 3584 2469 3576 
Q 2541 3569 2628 3553 
L 2631 2963 
z
" transform="scale(0.015625)"/>
      <path id="DejaVuSans-20" transform="scale(0.015625)"/>
      <path id="DejaVuSans-3d" d="M 678 2906 
L 4684 2906 
L 4684 2381 
L 678 2381 
L 678 2906 
z
M 678 1631 
L 4684 1631 
L 4684 1100 
L 678 1100 
L 678 1631 
z
" transform="scale(0.015625)"/>
      <path id="DejaVuSans-31" d="M 794 531 
L 1825 531 
L 1825 4091 
L 703 3866 
L 703 4441 
L 1819 4666 
L 2450 4666 
L 2450 531 
L 3481 531 
L 3481 0 
L 794 0 
L 794 531 
z
" transform="scale(0.015625)"/>
      <path id="DejaVuSans-2e" d="M 684 794 
L 1344 794 
L 1344 0 
L 684 0 
L 684 794 
z
" transform="scale(0.015625)"/>
      <path id="DejaVuSans-30" d="M 2034 4250 
Q 1547 4250 1301 3770 
Q 1056 3291 1056 2328 
Q 1056 1369 1301 889 
Q 1547 409 2034 409 
Q 2525 409 2770 889 
Q 3016 1369 3016 2328 
Q 3016 3291 2770 3770 
Q 2525 4250 2034 4250 
z
M 2034 4750 
Q 2819 4750 3233 4129 
Q 3647 3509 3647 2328 
Q 3647 1150 3233 529 
Q 2819 -91 2034 -91 
Q 1250 -91 836 529 
Q 422 1150 422 2328 
Q 422 3509 836 4129 
Q 1250 4750 2034 4750 
z
" transform="scale(0.015625)"/>
     </defs>
     <use xlink:href="#DejaVuSans-72"/>
     <use xlink:href="#DejaVuSans-20" transform="translate(41.113281 0)"/>
     <use xlink:href="#DejaVuSans-3d" transform="translate(72.900391 0)"/>
     <use xlink:href="#DejaVuSans-20" transform="translate(156.689453 0)"/>
     <use xlink:href="#DejaVuSans-31" transform="translate(188.476562 0)"/>
     <use xlink:href="#DejaVuSans-2e" transform="translate(252.099609 0)"/>
     <use xlink:href="#DejaVuSans-30" transform="translate(283.886719 0)"/>
     <use xlink:href="#DejaVuSans-30" transform="translate(347.509766 0)"/>
     <use xlink:href="#DejaVuSans-20" transform="translate(411.132812 0)"/>
    </g>
   </g>
   <g id="text_2">
    <!-- p = 0.000 -->
    <g transform="translate(115.740288 32.257) scale(0.1 -0.1)">
     <defs>
      <path id="DejaVuSans-70" d="M 1159 525 
L 1159 -1331 
L 581 -1331 
L 581 3500 
L 1159 3500 
L 1159 2969 
Q 1341 3281 1617 3432 
Q 1894 3584 2278 3584 
Q 2916 3584 3314 3078 
Q 3713 2572 3713 1747 
Q 3713 922 3314 415 
Q 2916 -91 2278 -91 
Q 1894 -91 1617 61 
Q 1341 213 1159 525 
z
M 3116 1747 
Q 3116 2381 2855 2742 
Q 2594 3103 2138 3103 
Q 1681 3103 1420 2742 
Q 1159 2381 1159 1747 
Q 1159 1113 1420 752 
Q 1681 391 2138 391 
Q 2594 391 2855 752 
Q 3116 1113 3116 1747 
z
" transform="scale(0.015625)"/>
     </defs>
     <use xlink:href="#DejaVuSans-70"/>
     <use xlink:href="#DejaVuSans-20" transform="translate(63.476562 0)"/>
     <use xlink:href="#DejaVuSans-3d" transform="translate(95.263672 0)"/>
     <use xlink:href="#DejaVuSans-20" transform="translate(179.052734 0)"/>
     <use xlink:href="#DejaVuSans-30" transform="translate(210.839844 0)"/>
     <use xlink:href="#DejaVuSans-2e" transform="translate(274.462891 0)"/>
     <use xlink:href="#DejaVuSans-30" transform="translate(306.25 0)"/>
     <use xlink:href="#DejaVuSans-30" transform="translate(369.873047 0)"/>
     <use xlink:href="#DejaVuSans-30" transform="translate(433.496094 0)"/>
    </g>
   </g>
  </g>
  <g id="axes_2">
   <g id="patch_4">
    <path d="M 46.07 310.24 
L 185.410577 310.24 
L 185.410577 173.67 
L 46.07 173.67 
z
" style="fill: #ffffff"/>
   </g>
   <g id="PathCollection_1">
    <defs>
     <path id="me7c2643361" d="M 0 3 
C 0.795609 3 1.55874 2.683901 2.12132 2.12132 
C 2.683901 1.55874 3 0.795609 3 0 
C 3 -0.795609 2.683901 -1.55874 2.12132 -2.12132 
C 1.55874 -2.683901 0.795609 -3 0 -3 
C -0.795609 -3 -1.55874 -2.683901 -2.12132 -2.12132 
C -2.683901 -1.55874 -3 -0.795609 -3 0 
C -3 0.795609 -2.683901 1.55874 -2.12132 2.12132 
C -1.55874 2.683901 -0.795609 3 0 3 
z
" style="stroke: #1f77b4; stroke-opacity: 0.8"/>
    </defs>
    <g clip-path="url(#pc64c370ef9)">
     <use xlink:href="#me7c2643361" x="84.915031" y="205.275124" style="fill: #1f77b4; fill-opacity: 0.8; stroke: #1f77b4; stroke-opacity: 0.8"/>
     <use xlink:href="#me7c2643361" x="82.283479" y="255.258507" style="fill: #1f77b4; fill-opacity: 0.8; stroke: #1f77b4; stroke-opacity: 0.8"/>
     <use xlink:href="#me7c2643361" x="83.356089" y="273.658519" style="fill: #1f77b4; fill-opacity: 0.8; stroke: #1f77b4; stroke-opacity: 0.8"/>
     <use xlink:href="#me7c2643361" x="89.876329" y="261.876783" style="fill: #1f77b4; fill-opacity: 0.8; stroke: #1f77b4; stroke-opacity: 0.8"/>
     <use xlink:href="#me7c2643361" x="84.729303" y="266.028272" style="fill: #1f77b4; fill-opacity: 0.8; stroke: #1f77b4; stroke-opacity: 0.8"/>
     <use xlink:href="#me7c2643361" x="96.411772" y="259.601714" style="fill: #1f77b4; fill-opacity: 0.8; stroke: #1f77b4; stroke-opacity: 0.8"/>
     <use xlink:href="#me7c2643361" x="94.99579" y="262.854162" style="fill: #1f77b4; fill-opacity: 0.8; stroke: #1f77b4; stroke-opacity: 0.8"/>
    </g>
   </g>
   <g id="FillBetweenPolyCollection_1">
    <path d="M 82.283479 214.182688 
L 82.283479 272.972184 
L 82.426189 272.787951 
L 82.5689 272.465018 
L 82.711607 272.307081 
L 82.854317 272.15619 
L 82.997028 272.022875 
L 83.139739 271.90551 
L 83.28245 271.788145 
L 83.42516 271.544392 
L 83.567867 271.087093 
L 83.710578 270.954496 
L 83.853288 270.82223 
L 83.995999 270.689964 
L 84.13871 270.557698 
L 84.281421 270.425432 
L 84.424127 270.293169 
L 84.566838 270.160903 
L 84.709549 269.985811 
L 84.85226 269.864954 
L 84.99497 269.744098 
L 85.137681 269.623242 
L 85.280388 269.499649 
L 85.423098 269.367676 
L 85.565809 269.235097 
L 85.70852 269.102779 
L 85.851231 268.970513 
L 85.993937 268.838251 
L 86.136648 268.705985 
L 86.279359 268.573719 
L 86.42207 268.441452 
L 86.56478 268.309186 
L 86.707491 268.17692 
L 86.850202 268.044654 
L 86.992908 267.912392 
L 87.135619 267.780126 
L 87.27833 267.647953 
L 87.421041 267.531516 
L 87.563751 267.423585 
L 87.706458 267.315657 
L 87.849169 267.207726 
L 87.99188 267.099796 
L 88.13459 266.991865 
L 88.277301 266.883934 
L 88.420012 266.776003 
L 88.562723 266.668072 
L 88.705429 266.560145 
L 88.84814 266.452214 
L 88.990851 266.344283 
L 89.133561 266.212663 
L 89.276272 266.069798 
L 89.418979 265.926937 
L 89.56169 265.785217 
L 89.7044 265.705856 
L 89.847111 265.640407 
L 89.989822 265.555122 
L 90.132533 265.464496 
L 90.275239 265.371666 
L 90.41795 265.264981 
L 90.560661 265.15705 
L 90.703371 265.049584 
L 90.846082 264.941188 
L 90.988789 264.833261 
L 91.1315 264.726757 
L 91.27421 264.618298 
L 91.416921 264.509765 
L 91.559632 264.402268 
L 91.702343 264.293985 
L 91.845053 264.185676 
L 91.98776 264.239166 
L 92.130471 264.112587 
L 92.273181 264.090801 
L 92.415892 264.05987 
L 92.558599 264.102244 
L 92.701309 264.044003 
L 92.84402 263.928707 
L 92.986731 263.94184 
L 93.129442 263.947973 
L 93.272153 263.998764 
L 93.414863 263.951316 
L 93.557574 263.982238 
L 93.700281 264.19571 
L 93.842991 264.366218 
L 93.985702 264.507689 
L 94.128413 264.541354 
L 94.271119 264.575017 
L 94.41383 265.137054 
L 94.556541 265.705732 
L 94.699252 266.105279 
L 94.841962 266.392343 
L 94.984673 266.68179 
L 95.127384 266.971238 
L 95.270091 267.260677 
L 95.412801 267.555697 
L 95.555512 267.855219 
L 95.698223 268.150083 
L 95.840934 268.440696 
L 95.98364 268.736999 
L 96.126351 269.249965 
L 96.269062 269.762932 
L 96.411772 270.275898 
L 96.411772 238.171467 
L 96.411772 238.171467 
L 96.269062 238.300826 
L 96.126351 238.430185 
L 95.98364 238.559544 
L 95.840934 238.688899 
L 95.698223 238.818258 
L 95.555512 238.945707 
L 95.412801 239.069779 
L 95.270091 239.193851 
L 95.127384 239.317919 
L 94.984673 239.44199 
L 94.841962 239.566062 
L 94.699252 239.690134 
L 94.556541 239.814205 
L 94.41383 239.938277 
L 94.271119 240.062349 
L 94.128413 240.186417 
L 93.985702 240.310488 
L 93.842991 240.43456 
L 93.700281 240.558632 
L 93.557574 240.6827 
L 93.414863 240.806771 
L 93.272153 240.930843 
L 93.129442 241.054915 
L 92.986731 241.178986 
L 92.84402 241.303058 
L 92.701309 241.42713 
L 92.558599 241.551201 
L 92.415892 241.675269 
L 92.273181 241.446779 
L 92.130471 240.982239 
L 91.98776 240.522421 
L 91.845053 240.064841 
L 91.702343 239.608545 
L 91.559632 239.152249 
L 91.416921 238.485245 
L 91.27421 238.182953 
L 91.1315 237.842343 
L 90.988789 237.542975 
L 90.846082 236.817656 
L 90.703371 236.336867 
L 90.560661 235.993513 
L 90.41795 235.6489 
L 90.275239 234.919511 
L 90.132533 234.67193 
L 89.989822 234.800046 
L 89.847111 234.288052 
L 89.7044 233.686658 
L 89.56169 233.396754 
L 89.418979 233.285262 
L 89.276272 233.173773 
L 89.133561 232.742451 
L 88.990851 232.07006 
L 88.84814 231.400381 
L 88.705429 230.730703 
L 88.562723 230.061044 
L 88.420012 229.391366 
L 88.277301 228.733022 
L 88.13459 228.058335 
L 87.99188 227.383648 
L 87.849169 226.852927 
L 87.706458 226.373573 
L 87.563751 225.894233 
L 87.421041 225.414879 
L 87.27833 224.935525 
L 87.135619 224.710816 
L 86.992908 226.044687 
L 86.850202 226.080125 
L 86.707491 225.519738 
L 86.56478 224.830503 
L 86.42207 224.364846 
L 86.279359 223.844743 
L 86.136648 223.217307 
L 85.993937 222.579934 
L 85.851231 222.08435 
L 85.70852 221.596666 
L 85.565809 221.001076 
L 85.423098 221.198808 
L 85.280388 221.384301 
L 85.137681 221.761772 
L 84.99497 221.259946 
L 84.85226 222.478498 
L 84.709549 222.19315 
L 84.566838 222.217841 
L 84.424127 221.685174 
L 84.281421 221.837201 
L 84.13871 221.368302 
L 83.995999 220.899402 
L 83.853288 220.390622 
L 83.710578 219.825242 
L 83.567867 219.259862 
L 83.42516 218.694499 
L 83.28245 218.12912 
L 83.139739 217.564483 
L 82.997028 217.000848 
L 82.854317 216.437213 
L 82.711607 215.873577 
L 82.5689 215.309958 
L 82.426189 214.746323 
L 82.283479 214.182688 
z
" clip-path="url(#pc64c370ef9)" style="fill: #008000; fill-opacity: 0.15"/>
   </g>
   <g id="matplotlib.axis_2">
    <g id="xtick_6">
     <g id="line2d_6">
      <g>
       <use xlink:href="#m4587d036d1" x="46.07" y="310.24" style="stroke: #000000; stroke-width: 0.8"/>
      </g>
     </g>
     <g id="text_3">
      <!-- 0 -->
      <g transform="translate(42.88875 324.838438) scale(0.1 -0.1)">
       <use xlink:href="#DejaVuSans-30"/>
      </g>
     </g>
    </g>
    <g id="xtick_7">
     <g id="line2d_7">
      <g>
       <use xlink:href="#m4587d036d1" x="80.905144" y="310.24" style="stroke: #000000; stroke-width: 0.8"/>
      </g>
     </g>
     <g id="text_4">
      <!-- 2 -->
      <g transform="translate(77.723894 324.838438) scale(0.1 -0.1)">
       <defs>
        <path id="DejaVuSans-32" d="M 1228 531 
L 3431 531 
L 3431 0 
L 469 0 
L 469 531 
Q 828 903 1448 1529 
Q 2069 2156 2228 2338 
Q 2531 2678 2651 2914 
Q 2772 3150 2772 3378 
Q 2772 3750 2511 3984 
Q 2250 4219 1831 4219 
Q 1534 4219 1204 4116 
Q 875 4013 500 3803 
L 500 4441 
Q 881 4594 1212 4672 
Q 1544 4750 1819 4750 
Q 2544 4750 2975 4387 
Q 3406 4025 3406 3419 
Q 3406 3131 3298 2873 
Q 3191 2616 2906 2266 
Q 2828 2175 2409 1742 
Q 1991 1309 1228 531 
z
" transform="scale(0.015625)"/>
       </defs>
       <use xlink:href="#DejaVuSans-32"/>
      </g>
     </g>
    </g>
    <g id="xtick_8">
     <g id="line2d_8">
      <g>
       <use xlink:href="#m4587d036d1" x="115.740288" y="310.24" style="stroke: #000000; stroke-width: 0.8"/>
      </g>
     </g>
     <g id="text_5">
      <!-- 4 -->
      <g transform="translate(112.559038 324.838438) scale(0.1 -0.1)">
       <defs>
        <path id="DejaVuSans-34" d="M 2419 4116 
L 825 1625 
L 2419 1625 
L 2419 4116 
z
M 2253 4666 
L 3047 4666 
L 3047 1625 
L 3713 1625 
L 3713 1100 
L 3047 1100 
L 3047 0 
L 2419 0 
L 2419 1100 
L 313 1100 
L 313 1709 
L 2253 4666 
z
" transform="scale(0.015625)"/>
       </defs>
       <use xlink:href="#DejaVuSans-34"/>
      </g>
     </g>
    </g>
    <g id="xtick_9">
     <g id="line2d_9">
      <g>
       <use xlink:href="#m4587d036d1" x="150.575432" y="310.24" style="stroke: #000000; stroke-width: 0.8"/>
      </g>
     </g>
     <g id="text_6">
      <!-- 6 -->
      <g transform="translate(147.394182 324.838438) scale(0.1 -0.1)">
       <defs>
        <path id="DejaVuSans-36" d="M 2113 2584 
Q 1688 2584 1439 2293 
Q 1191 2003 1191 1497 
Q 1191 994 1439 701 
Q 1688 409 2113 409 
Q 2538 409 2786 701 
Q 3034 994 3034 1497 
Q 3034 2003 2786 2293 
Q 2538 2584 2113 2584 
z
M 3366 4563 
L 3366 3988 
Q 3128 4100 2886 4159 
Q 2644 4219 2406 4219 
Q 1781 4219 1451 3797 
Q 1122 3375 1075 2522 
Q 1259 2794 1537 2939 
Q 1816 3084 2150 3084 
Q 2853 3084 3261 2657 
Q 3669 2231 3669 1497 
Q 3669 778 3244 343 
Q 2819 -91 2113 -91 
Q 1303 -91 875 529 
Q 447 1150 447 2328 
Q 447 3434 972 4092 
Q 1497 4750 2381 4750 
Q 2619 4750 2861 4703 
Q 3103 4656 3366 4563 
z
" transform="scale(0.015625)"/>
       </defs>
       <use xlink:href="#DejaVuSans-36"/>
      </g>
     </g>
    </g>
    <g id="xtick_10">
     <g id="line2d_10">
      <g>
       <use xlink:href="#m4587d036d1" x="185.410577" y="310.24" style="stroke: #000000; stroke-width: 0.8"/>
      </g>
     </g>
     <g id="text_7">
      <!-- 8 -->
      <g transform="translate(182.229327 324.838438) scale(0.1 -0.1)">
       <defs>
        <path id="DejaVuSans-38" d="M 2034 2216 
Q 1584 2216 1326 1975 
Q 1069 1734 1069 1313 
Q 1069 891 1326 650 
Q 1584 409 2034 409 
Q 2484 409 2743 651 
Q 3003 894 3003 1313 
Q 3003 1734 2745 1975 
Q 2488 2216 2034 2216 
z
M 1403 2484 
Q 997 2584 770 2862 
Q 544 3141 544 3541 
Q 544 4100 942 4425 
Q 1341 4750 2034 4750 
Q 2731 4750 3128 4425 
Q 3525 4100 3525 3541 
Q 3525 3141 3298 2862 
Q 3072 2584 2669 2484 
Q 3125 2378 3379 2068 
Q 3634 1759 3634 1313 
Q 3634 634 3220 271 
Q 2806 -91 2034 -91 
Q 1263 -91 848 271 
Q 434 634 434 1313 
Q 434 1759 690 2068 
Q 947 2378 1403 2484 
z
M 1172 3481 
Q 1172 3119 1398 2916 
Q 1625 2713 2034 2713 
Q 2441 2713 2670 2916 
Q 2900 3119 2900 3481 
Q 2900 3844 2670 4047 
Q 2441 4250 2034 4250 
Q 1625 4250 1398 4047 
Q 1172 3844 1172 3481 
z
" transform="scale(0.015625)"/>
       </defs>
       <use xlink:href="#DejaVuSans-38"/>
      </g>
     </g>
    </g>
    <g id="text_8">
     <!-- inferred dec temp -->
     <g transform="translate(70.924663 338.516563) scale(0.1 -0.1)">
      <defs>
       <path id="DejaVuSans-69" d="M 603 3500 
L 1178 3500 
L 1178 0 
L 603 0 
L 603 3500 
z
M 603 4863 
L 1178 4863 
L 1178 4134 
L 603 4134 
L 603 4863 
z
" transform="scale(0.015625)"/>
       <path id="DejaVuSans-6e" d="M 3513 2113 
L 3513 0 
L 2938 0 
L 2938 2094 
Q 2938 2591 2744 2837 
Q 2550 3084 2163 3084 
Q 1697 3084 1428 2787 
Q 1159 2491 1159 1978 
L 1159 0 
L 581 0 
L 581 3500 
L 1159 3500 
L 1159 2956 
Q 1366 3272 1645 3428 
Q 1925 3584 2291 3584 
Q 2894 3584 3203 3211 
Q 3513 2838 3513 2113 
z
" transform="scale(0.015625)"/>
       <path id="DejaVuSans-66" d="M 2375 4863 
L 2375 4384 
L 1825 4384 
Q 1516 4384 1395 4259 
Q 1275 4134 1275 3809 
L 1275 3500 
L 2222 3500 
L 2222 3053 
L 1275 3053 
L 1275 0 
L 697 0 
L 697 3053 
L 147 3053 
L 147 3500 
L 697 3500 
L 697 3744 
Q 697 4328 969 4595 
Q 1241 4863 1831 4863 
L 2375 4863 
z
" transform="scale(0.015625)"/>
       <path id="DejaVuSans-65" d="M 3597 1894 
L 3597 1613 
L 953 1613 
Q 991 1019 1311 708 
Q 1631 397 2203 397 
Q 2534 397 2845 478 
Q 3156 559 3463 722 
L 3463 178 
Q 3153 47 2828 -22 
Q 2503 -91 2169 -91 
Q 1331 -91 842 396 
Q 353 884 353 1716 
Q 353 2575 817 3079 
Q 1281 3584 2069 3584 
Q 2775 3584 3186 3129 
Q 3597 2675 3597 1894 
z
M 3022 2063 
Q 3016 2534 2758 2815 
Q 2500 3097 2075 3097 
Q 1594 3097 1305 2825 
Q 1016 2553 972 2059 
L 3022 2063 
z
" transform="scale(0.015625)"/>
       <path id="DejaVuSans-64" d="M 2906 2969 
L 2906 4863 
L 3481 4863 
L 3481 0 
L 2906 0 
L 2906 525 
Q 2725 213 2448 61 
Q 2172 -91 1784 -91 
Q 1150 -91 751 415 
Q 353 922 353 1747 
Q 353 2572 751 3078 
Q 1150 3584 1784 3584 
Q 2172 3584 2448 3432 
Q 2725 3281 2906 2969 
z
M 947 1747 
Q 947 1113 1208 752 
Q 1469 391 1925 391 
Q 2381 391 2643 752 
Q 2906 1113 2906 1747 
Q 2906 2381 2643 2742 
Q 2381 3103 1925 3103 
Q 1469 3103 1208 2742 
Q 947 2381 947 1747 
z
" transform="scale(0.015625)"/>
       <path id="DejaVuSans-63" d="M 3122 3366 
L 3122 2828 
Q 2878 2963 2633 3030 
Q 2388 3097 2138 3097 
Q 1578 3097 1268 2742 
Q 959 2388 959 1747 
Q 959 1106 1268 751 
Q 1578 397 2138 397 
Q 2388 397 2633 464 
Q 2878 531 3122 666 
L 3122 134 
Q 2881 22 2623 -34 
Q 2366 -91 2075 -91 
Q 1284 -91 818 406 
Q 353 903 353 1747 
Q 353 2603 823 3093 
Q 1294 3584 2113 3584 
Q 2378 3584 2631 3529 
Q 2884 3475 3122 3366 
z
" transform="scale(0.015625)"/>
       <path id="DejaVuSans-74" d="M 1172 4494 
L 1172 3500 
L 2356 3500 
L 2356 3053 
L 1172 3053 
L 1172 1153 
Q 1172 725 1289 603 
Q 1406 481 1766 481 
L 2356 481 
L 2356 0 
L 1766 0 
Q 1100 0 847 248 
Q 594 497 594 1153 
L 594 3053 
L 172 3053 
L 172 3500 
L 594 3500 
L 594 4494 
L 1172 4494 
z
" transform="scale(0.015625)"/>
       <path id="DejaVuSans-6d" d="M 3328 2828 
Q 3544 3216 3844 3400 
Q 4144 3584 4550 3584 
Q 5097 3584 5394 3201 
Q 5691 2819 5691 2113 
L 5691 0 
L 5113 0 
L 5113 2094 
Q 5113 2597 4934 2840 
Q 4756 3084 4391 3084 
Q 3944 3084 3684 2787 
Q 3425 2491 3425 1978 
L 3425 0 
L 2847 0 
L 2847 2094 
Q 2847 2600 2669 2842 
Q 2491 3084 2119 3084 
Q 1678 3084 1418 2786 
Q 1159 2488 1159 1978 
L 1159 0 
L 581 0 
L 581 3500 
L 1159 3500 
L 1159 2956 
Q 1356 3278 1631 3431 
Q 1906 3584 2284 3584 
Q 2666 3584 2933 3390 
Q 3200 3197 3328 2828 
z
" transform="scale(0.015625)"/>
      </defs>
      <use xlink:href="#DejaVuSans-69"/>
      <use xlink:href="#DejaVuSans-6e" transform="translate(27.783203 0)"/>
      <use xlink:href="#DejaVuSans-66" transform="translate(91.162109 0)"/>
      <use xlink:href="#DejaVuSans-65" transform="translate(126.367188 0)"/>
      <use xlink:href="#DejaVuSans-72" transform="translate(187.890625 0)"/>
      <use xlink:href="#DejaVuSans-72" transform="translate(227.253906 0)"/>
      <use xlink:href="#DejaVuSans-65" transform="translate(266.117188 0)"/>
      <use xlink:href="#DejaVuSans-64" transform="translate(327.640625 0)"/>
      <use xlink:href="#DejaVuSans-20" transform="translate(391.117188 0)"/>
      <use xlink:href="#DejaVuSans-64" transform="translate(422.904297 0)"/>
      <use xlink:href="#DejaVuSans-65" transform="translate(486.380859 0)"/>
      <use xlink:href="#DejaVuSans-63" transform="translate(547.904297 0)"/>
      <use xlink:href="#DejaVuSans-20" transform="translate(602.884766 0)"/>
      <use xlink:href="#DejaVuSans-74" transform="translate(634.671875 0)"/>
      <use xlink:href="#DejaVuSans-65" transform="translate(673.880859 0)"/>
      <use xlink:href="#DejaVuSans-6d" transform="translate(735.404297 0)"/>
      <use xlink:href="#DejaVuSans-70" transform="translate(832.816406 0)"/>
     </g>
    </g>
   </g>
   <g id="matplotlib.axis_3">
    <g id="ytick_1">
     <g id="line2d_11">
      <defs>
       <path id="m045b670e2b" d="M 0 0 
L -3.5 0 
" style="stroke: #000000; stroke-width: 0.8"/>
      </defs>
      <g>
       <use xlink:href="#m045b670e2b" x="46.07" y="310.24" style="stroke: #000000; stroke-width: 0.8"/>
      </g>
     </g>
     <g id="text_9">
      <!-- 0 -->
      <g transform="translate(32.7075 314.039219) scale(0.1 -0.1)">
       <use xlink:href="#DejaVuSans-30"/>
      </g>
     </g>
    </g>
    <g id="ytick_2">
     <g id="line2d_12">
      <g>
       <use xlink:href="#m045b670e2b" x="46.07" y="276.0975" style="stroke: #000000; stroke-width: 0.8"/>
      </g>
     </g>
     <g id="text_10">
      <!-- 2 -->
      <g transform="translate(32.7075 279.896719) scale(0.1 -0.1)">
       <use xlink:href="#DejaVuSans-32"/>
      </g>
     </g>
    </g>
    <g id="ytick_3">
     <g id="line2d_13">
      <g>
       <use xlink:href="#m045b670e2b" x="46.07" y="241.955" style="stroke: #000000; stroke-width: 0.8"/>
      </g>
     </g>
     <g id="text_11">
      <!-- 4 -->
      <g transform="translate(32.7075 245.754219) scale(0.1 -0.1)">
       <use xlink:href="#DejaVuSans-34"/>
      </g>
     </g>
    </g>
    <g id="ytick_4">
     <g id="line2d_14">
      <g>
       <use xlink:href="#m045b670e2b" x="46.07" y="207.8125" style="stroke: #000000; stroke-width: 0.8"/>
      </g>
     </g>
     <g id="text_12">
      <!-- 6 -->
      <g transform="translate(32.7075 211.611719) scale(0.1 -0.1)">
       <use xlink:href="#DejaVuSans-36"/>
      </g>
     </g>
    </g>
    <g id="ytick_5">
     <g id="line2d_15">
      <g>
       <use xlink:href="#m045b670e2b" x="46.07" y="173.67" style="stroke: #000000; stroke-width: 0.8"/>
      </g>
     </g>
     <g id="text_13">
      <!-- 8 -->
      <g transform="translate(32.7075 177.469219) scale(0.1 -0.1)">
       <use xlink:href="#DejaVuSans-38"/>
      </g>
     </g>
    </g>
    <g id="text_14">
     <!-- inferred habitual tendency -->
     <g transform="translate(26.627813 308.401094) rotate(-90) scale(0.1 -0.1)">
      <defs>
       <path id="DejaVuSans-68" d="M 3513 2113 
L 3513 0 
L 2938 0 
L 2938 2094 
Q 2938 2591 2744 2837 
Q 2550 3084 2163 3084 
Q 1697 3084 1428 2787 
Q 1159 2491 1159 1978 
L 1159 0 
L 581 0 
L 581 4863 
L 1159 4863 
L 1159 2956 
Q 1366 3272 1645 3428 
Q 1925 3584 2291 3584 
Q 2894 3584 3203 3211 
Q 3513 2838 3513 2113 
z
" transform="scale(0.015625)"/>
       <path id="DejaVuSans-61" d="M 2194 1759 
Q 1497 1759 1228 1600 
Q 959 1441 959 1056 
Q 959 750 1161 570 
Q 1363 391 1709 391 
Q 2188 391 2477 730 
Q 2766 1069 2766 1631 
L 2766 1759 
L 2194 1759 
z
M 3341 1997 
L 3341 0 
L 2766 0 
L 2766 531 
Q 2569 213 2275 61 
Q 1981 -91 1556 -91 
Q 1019 -91 701 211 
Q 384 513 384 1019 
Q 384 1609 779 1909 
Q 1175 2209 1959 2209 
L 2766 2209 
L 2766 2266 
Q 2766 2663 2505 2880 
Q 2244 3097 1772 3097 
Q 1472 3097 1187 3025 
Q 903 2953 641 2809 
L 641 3341 
Q 956 3463 1253 3523 
Q 1550 3584 1831 3584 
Q 2591 3584 2966 3190 
Q 3341 2797 3341 1997 
z
" transform="scale(0.015625)"/>
       <path id="DejaVuSans-62" d="M 3116 1747 
Q 3116 2381 2855 2742 
Q 2594 3103 2138 3103 
Q 1681 3103 1420 2742 
Q 1159 2381 1159 1747 
Q 1159 1113 1420 752 
Q 1681 391 2138 391 
Q 2594 391 2855 752 
Q 3116 1113 3116 1747 
z
M 1159 2969 
Q 1341 3281 1617 3432 
Q 1894 3584 2278 3584 
Q 2916 3584 3314 3078 
Q 3713 2572 3713 1747 
Q 3713 922 3314 415 
Q 2916 -91 2278 -91 
Q 1894 -91 1617 61 
Q 1341 213 1159 525 
L 1159 0 
L 581 0 
L 581 4863 
L 1159 4863 
L 1159 2969 
z
" transform="scale(0.015625)"/>
       <path id="DejaVuSans-75" d="M 544 1381 
L 544 3500 
L 1119 3500 
L 1119 1403 
Q 1119 906 1312 657 
Q 1506 409 1894 409 
Q 2359 409 2629 706 
Q 2900 1003 2900 1516 
L 2900 3500 
L 3475 3500 
L 3475 0 
L 2900 0 
L 2900 538 
Q 2691 219 2414 64 
Q 2138 -91 1772 -91 
Q 1169 -91 856 284 
Q 544 659 544 1381 
z
M 1991 3584 
L 1991 3584 
z
" transform="scale(0.015625)"/>
       <path id="DejaVuSans-6c" d="M 603 4863 
L 1178 4863 
L 1178 0 
L 603 0 
L 603 4863 
z
" transform="scale(0.015625)"/>
       <path id="DejaVuSans-79" d="M 2059 -325 
Q 1816 -950 1584 -1140 
Q 1353 -1331 966 -1331 
L 506 -1331 
L 506 -850 
L 844 -850 
Q 1081 -850 1212 -737 
Q 1344 -625 1503 -206 
L 1606 56 
L 191 3500 
L 800 3500 
L 1894 763 
L 2988 3500 
L 3597 3500 
L 2059 -325 
z
" transform="scale(0.015625)"/>
      </defs>
      <use xlink:href="#DejaVuSans-69"/>
      <use xlink:href="#DejaVuSans-6e" transform="translate(27.783203 0)"/>
      <use xlink:href="#DejaVuSans-66" transform="translate(91.162109 0)"/>
      <use xlink:href="#DejaVuSans-65" transform="translate(126.367188 0)"/>
      <use xlink:href="#DejaVuSans-72" transform="translate(187.890625 0)"/>
      <use xlink:href="#DejaVuSans-72" transform="translate(227.253906 0)"/>
      <use xlink:href="#DejaVuSans-65" transform="translate(266.117188 0)"/>
      <use xlink:href="#DejaVuSans-64" transform="translate(327.640625 0)"/>
      <use xlink:href="#DejaVuSans-20" transform="translate(391.117188 0)"/>
      <use xlink:href="#DejaVuSans-68" transform="translate(422.904297 0)"/>
      <use xlink:href="#DejaVuSans-61" transform="translate(486.283203 0)"/>
      <use xlink:href="#DejaVuSans-62" transform="translate(547.5625 0)"/>
      <use xlink:href="#DejaVuSans-69" transform="translate(611.039062 0)"/>
      <use xlink:href="#DejaVuSans-74" transform="translate(638.822266 0)"/>
      <use xlink:href="#DejaVuSans-75" transform="translate(678.03125 0)"/>
      <use xlink:href="#DejaVuSans-61" transform="translate(741.410156 0)"/>
      <use xlink:href="#DejaVuSans-6c" transform="translate(802.689453 0)"/>
      <use xlink:href="#DejaVuSans-20" transform="translate(830.472656 0)"/>
      <use xlink:href="#DejaVuSans-74" transform="translate(862.259766 0)"/>
      <use xlink:href="#DejaVuSans-65" transform="translate(901.46875 0)"/>
      <use xlink:href="#DejaVuSans-6e" transform="translate(962.992188 0)"/>
      <use xlink:href="#DejaVuSans-64" transform="translate(1026.371094 0)"/>
      <use xlink:href="#DejaVuSans-65" transform="translate(1089.847656 0)"/>
      <use xlink:href="#DejaVuSans-6e" transform="translate(1151.371094 0)"/>
      <use xlink:href="#DejaVuSans-63" transform="translate(1214.75 0)"/>
      <use xlink:href="#DejaVuSans-79" transform="translate(1269.730469 0)"/>
     </g>
    </g>
   </g>
   <g id="line2d_16">
    <path d="M 82.283479 250.952484 
L 82.426189 251.050543 
L 82.5689 251.148603 
L 82.711607 251.246659 
L 82.854317 251.344719 
L 82.997028 251.442778 
L 83.139739 251.540838 
L 83.28245 251.638897 
L 83.42516 251.736956 
L 83.567867 251.835013 
L 83.710578 251.933072 
L 83.853288 252.031132 
L 83.995999 252.129191 
L 84.13871 252.22725 
L 84.281421 252.32531 
L 84.424127 252.423366 
L 84.566838 252.521426 
L 84.709549 252.619485 
L 84.85226 252.717545 
L 84.99497 252.815604 
L 85.137681 252.913663 
L 85.280388 253.01172 
L 85.423098 253.109779 
L 85.565809 253.207839 
L 85.70852 253.305898 
L 85.851231 253.403958 
L 85.993937 253.502014 
L 86.136648 253.600074 
L 86.279359 253.698133 
L 86.42207 253.796192 
L 86.56478 253.894252 
L 86.707491 253.992311 
L 86.850202 254.090371 
L 86.992908 254.188427 
L 87.135619 254.286487 
L 87.27833 254.384546 
L 87.421041 254.482605 
L 87.563751 254.580665 
L 87.706458 254.678721 
L 87.849169 254.776781 
L 87.99188 254.87484 
L 88.13459 254.9729 
L 88.277301 255.070959 
L 88.420012 255.169018 
L 88.562723 255.267078 
L 88.705429 255.365134 
L 88.84814 255.463194 
L 88.990851 255.561253 
L 89.133561 255.659313 
L 89.276272 255.757372 
L 89.418979 255.855428 
L 89.56169 255.953488 
L 89.7044 256.051547 
L 89.847111 256.149607 
L 89.989822 256.247666 
L 90.132533 256.345726 
L 90.275239 256.443782 
L 90.41795 256.541841 
L 90.560661 256.639901 
L 90.703371 256.73796 
L 90.846082 256.83602 
L 90.988789 256.934076 
L 91.1315 257.032136 
L 91.27421 257.130195 
L 91.416921 257.228254 
L 91.559632 257.326314 
L 91.702343 257.424373 
L 91.845053 257.522433 
L 91.98776 257.620489 
L 92.130471 257.718549 
L 92.273181 257.816608 
L 92.415892 257.914667 
L 92.558599 258.012724 
L 92.701309 258.110783 
L 92.84402 258.208843 
L 92.986731 258.306902 
L 93.129442 258.404962 
L 93.272153 258.503021 
L 93.414863 258.60108 
L 93.557574 258.69914 
L 93.700281 258.797196 
L 93.842991 258.895256 
L 93.985702 258.993315 
L 94.128413 259.091375 
L 94.271119 259.189431 
L 94.41383 259.287491 
L 94.556541 259.38555 
L 94.699252 259.483609 
L 94.841962 259.581669 
L 94.984673 259.679728 
L 95.127384 259.777788 
L 95.270091 259.875844 
L 95.412801 259.973903 
L 95.555512 260.071963 
L 95.698223 260.170022 
L 95.840934 260.268082 
L 95.98364 260.366138 
L 96.126351 260.464198 
L 96.269062 260.562257 
L 96.411772 260.660316 
" clip-path="url(#pc64c370ef9)" style="fill: none; stroke: #008000; stroke-opacity: 0.6; stroke-width: 2.25; stroke-linecap: square"/>
   </g>
   <g id="patch_5">
    <path d="M 46.07 310.24 
L 46.07 173.67 
" style="fill: none; stroke: #000000; stroke-width: 0.8; stroke-linejoin: miter; stroke-linecap: square"/>
   </g>
   <g id="patch_6">
    <path d="M 46.07 310.24 
L 185.410577 310.24 
" style="fill: none; stroke: #000000; stroke-width: 0.8; stroke-linejoin: miter; stroke-linecap: square"/>
   </g>
   <g id="text_15">
    <!-- r = -0.17  -->
    <g transform="translate(60.004058 187.327) scale(0.1 -0.1)">
     <defs>
      <path id="DejaVuSans-2d" d="M 313 2009 
L 1997 2009 
L 1997 1497 
L 313 1497 
L 313 2009 
z
" transform="scale(0.015625)"/>
      <path id="DejaVuSans-37" d="M 525 4666 
L 3525 4666 
L 3525 4397 
L 1831 0 
L 1172 0 
L 2766 4134 
L 525 4134 
L 525 4666 
z
" transform="scale(0.015625)"/>
     </defs>
     <use xlink:href="#DejaVuSans-72"/>
     <use xlink:href="#DejaVuSans-20" transform="translate(41.113281 0)"/>
     <use xlink:href="#DejaVuSans-3d" transform="translate(72.900391 0)"/>
     <use xlink:href="#DejaVuSans-20" transform="translate(156.689453 0)"/>
     <use xlink:href="#DejaVuSans-2d" transform="translate(188.476562 0)"/>
     <use xlink:href="#DejaVuSans-30" transform="translate(224.560547 0)"/>
     <use xlink:href="#DejaVuSans-2e" transform="translate(288.183594 0)"/>
     <use xlink:href="#DejaVuSans-31" transform="translate(319.970703 0)"/>
     <use xlink:href="#DejaVuSans-37" transform="translate(383.59375 0)"/>
     <use xlink:href="#DejaVuSans-20" transform="translate(447.216797 0)"/>
    </g>
   </g>
   <g id="text_16">
    <!-- p = 0.709 -->
    <g transform="translate(115.740288 187.327) scale(0.1 -0.1)">
     <defs>
      <path id="DejaVuSans-39" d="M 703 97 
L 703 672 
Q 941 559 1184 500 
Q 1428 441 1663 441 
Q 2288 441 2617 861 
Q 2947 1281 2994 2138 
Q 2813 1869 2534 1725 
Q 2256 1581 1919 1581 
Q 1219 1581 811 2004 
Q 403 2428 403 3163 
Q 403 3881 828 4315 
Q 1253 4750 1959 4750 
Q 2769 4750 3195 4129 
Q 3622 3509 3622 2328 
Q 3622 1225 3098 567 
Q 2575 -91 1691 -91 
Q 1453 -91 1209 -44 
Q 966 3 703 97 
z
M 1959 2075 
Q 2384 2075 2632 2365 
Q 2881 2656 2881 3163 
Q 2881 3666 2632 3958 
Q 2384 4250 1959 4250 
Q 1534 4250 1286 3958 
Q 1038 3666 1038 3163 
Q 1038 2656 1286 2365 
Q 1534 2075 1959 2075 
z
" transform="scale(0.015625)"/>
     </defs>
     <use xlink:href="#DejaVuSans-70"/>
     <use xlink:href="#DejaVuSans-20" transform="translate(63.476562 0)"/>
     <use xlink:href="#DejaVuSans-3d" transform="translate(95.263672 0)"/>
     <use xlink:href="#DejaVuSans-20" transform="translate(179.052734 0)"/>
     <use xlink:href="#DejaVuSans-30" transform="translate(210.839844 0)"/>
     <use xlink:href="#DejaVuSans-2e" transform="translate(274.462891 0)"/>
     <use xlink:href="#DejaVuSans-37" transform="translate(306.25 0)"/>
     <use xlink:href="#DejaVuSans-30" transform="translate(369.873047 0)"/>
     <use xlink:href="#DejaVuSans-39" transform="translate(433.496094 0)"/>
    </g>
   </g>
  </g>
  <g id="axes_3">
   <g id="patch_7">
    <path d="M 202.059423 310.24 
L 341.4 310.24 
L 341.4 173.67 
L 202.059423 173.67 
z
" style="fill: #ffffff"/>
   </g>
   <g id="matplotlib.axis_4">
    <g id="xtick_11">
     <g id="line2d_17">
      <g>
       <use xlink:href="#m4587d036d1" x="202.059423" y="310.24" style="stroke: #000000; stroke-width: 0.8"/>
      </g>
     </g>
     <g id="text_17">
      <!-- 0 -->
      <g transform="translate(198.878173 324.838438) scale(0.1 -0.1)">
       <use xlink:href="#DejaVuSans-30"/>
      </g>
     </g>
    </g>
    <g id="xtick_12">
     <g id="line2d_18">
      <g>
       <use xlink:href="#m4587d036d1" x="236.894568" y="310.24" style="stroke: #000000; stroke-width: 0.8"/>
      </g>
     </g>
     <g id="text_18">
      <!-- 2 -->
      <g transform="translate(233.713318 324.838438) scale(0.1 -0.1)">
       <use xlink:href="#DejaVuSans-32"/>
      </g>
     </g>
    </g>
    <g id="xtick_13">
     <g id="line2d_19">
      <g>
       <use xlink:href="#m4587d036d1" x="271.729712" y="310.24" style="stroke: #000000; stroke-width: 0.8"/>
      </g>
     </g>
     <g id="text_19">
      <!-- 4 -->
      <g transform="translate(268.548462 324.838438) scale(0.1 -0.1)">
       <use xlink:href="#DejaVuSans-34"/>
      </g>
     </g>
    </g>
    <g id="xtick_14">
     <g id="line2d_20">
      <g>
       <use xlink:href="#m4587d036d1" x="306.564856" y="310.24" style="stroke: #000000; stroke-width: 0.8"/>
      </g>
     </g>
     <g id="text_20">
      <!-- 6 -->
      <g transform="translate(303.383606 324.838438) scale(0.1 -0.1)">
       <use xlink:href="#DejaVuSans-36"/>
      </g>
     </g>
    </g>
    <g id="xtick_15">
     <g id="line2d_21">
      <g>
       <use xlink:href="#m4587d036d1" x="341.4" y="310.24" style="stroke: #000000; stroke-width: 0.8"/>
      </g>
     </g>
     <g id="text_21">
      <!-- 8 -->
      <g transform="translate(338.21875 324.838438) scale(0.1 -0.1)">
       <use xlink:href="#DejaVuSans-38"/>
      </g>
     </g>
    </g>
    <g id="text_22">
     <!-- inferred habitual tendency -->
     <g transform="translate(205.283618 338.516563) scale(0.1 -0.1)">
      <use xlink:href="#DejaVuSans-69"/>
      <use xlink:href="#DejaVuSans-6e" transform="translate(27.783203 0)"/>
      <use xlink:href="#DejaVuSans-66" transform="translate(91.162109 0)"/>
      <use xlink:href="#DejaVuSans-65" transform="translate(126.367188 0)"/>
      <use xlink:href="#DejaVuSans-72" transform="translate(187.890625 0)"/>
      <use xlink:href="#DejaVuSans-72" transform="translate(227.253906 0)"/>
      <use xlink:href="#DejaVuSans-65" transform="translate(266.117188 0)"/>
      <use xlink:href="#DejaVuSans-64" transform="translate(327.640625 0)"/>
      <use xlink:href="#DejaVuSans-20" transform="translate(391.117188 0)"/>
      <use xlink:href="#DejaVuSans-68" transform="translate(422.904297 0)"/>
      <use xlink:href="#DejaVuSans-61" transform="translate(486.283203 0)"/>
      <use xlink:href="#DejaVuSans-62" transform="translate(547.5625 0)"/>
      <use xlink:href="#DejaVuSans-69" transform="translate(611.039062 0)"/>
      <use xlink:href="#DejaVuSans-74" transform="translate(638.822266 0)"/>
      <use xlink:href="#DejaVuSans-75" transform="translate(678.03125 0)"/>
      <use xlink:href="#DejaVuSans-61" transform="translate(741.410156 0)"/>
      <use xlink:href="#DejaVuSans-6c" transform="translate(802.689453 0)"/>
      <use xlink:href="#DejaVuSans-20" transform="translate(830.472656 0)"/>
      <use xlink:href="#DejaVuSans-74" transform="translate(862.259766 0)"/>
      <use xlink:href="#DejaVuSans-65" transform="translate(901.46875 0)"/>
      <use xlink:href="#DejaVuSans-6e" transform="translate(962.992188 0)"/>
      <use xlink:href="#DejaVuSans-64" transform="translate(1026.371094 0)"/>
      <use xlink:href="#DejaVuSans-65" transform="translate(1089.847656 0)"/>
      <use xlink:href="#DejaVuSans-6e" transform="translate(1151.371094 0)"/>
      <use xlink:href="#DejaVuSans-63" transform="translate(1214.75 0)"/>
      <use xlink:href="#DejaVuSans-79" transform="translate(1269.730469 0)"/>
     </g>
    </g>
   </g>
   <g id="patch_8">
    <path d="M 202.059423 310.24 
L 341.4 310.24 
" style="fill: none; stroke: #000000; stroke-width: 0.8; stroke-linejoin: miter; stroke-linecap: square"/>
   </g>
   <g id="text_23">
    <!-- r = 1.00  -->
    <g transform="translate(215.993481 187.327) scale(0.1 -0.1)">
     <use xlink:href="#DejaVuSans-72"/>
     <use xlink:href="#DejaVuSans-20" transform="translate(41.113281 0)"/>
     <use xlink:href="#DejaVuSans-3d" transform="translate(72.900391 0)"/>
     <use xlink:href="#DejaVuSans-20" transform="translate(156.689453 0)"/>
     <use xlink:href="#DejaVuSans-31" transform="translate(188.476562 0)"/>
     <use xlink:href="#DejaVuSans-2e" transform="translate(252.099609 0)"/>
     <use xlink:href="#DejaVuSans-30" transform="translate(283.886719 0)"/>
     <use xlink:href="#DejaVuSans-30" transform="translate(347.509766 0)"/>
     <use xlink:href="#DejaVuSans-20" transform="translate(411.132812 0)"/>
    </g>
   </g>
   <g id="text_24">
    <!-- p = 0.000 -->
    <g transform="translate(271.729712 187.327) scale(0.1 -0.1)">
     <use xlink:href="#DejaVuSans-70"/>
     <use xlink:href="#DejaVuSans-20" transform="translate(63.476562 0)"/>
     <use xlink:href="#DejaVuSans-3d" transform="translate(95.263672 0)"/>
     <use xlink:href="#DejaVuSans-20" transform="translate(179.052734 0)"/>
     <use xlink:href="#DejaVuSans-30" transform="translate(210.839844 0)"/>
     <use xlink:href="#DejaVuSans-2e" transform="translate(274.462891 0)"/>
     <use xlink:href="#DejaVuSans-30" transform="translate(306.25 0)"/>
     <use xlink:href="#DejaVuSans-30" transform="translate(369.873047 0)"/>
     <use xlink:href="#DejaVuSans-30" transform="translate(433.496094 0)"/>
    </g>
   </g>
  </g>
  <g id="axes_4">
   <g id="patch_9">
    <path d="M 82.283479 155.17 
L 85.815552 155.17 
L 85.815552 25.103333 
L 82.283479 25.103333 
z
" clip-path="url(#pff30b5e0dd)" style="fill: #1f77b4; fill-opacity: 0.75; stroke: #000000; stroke-linejoin: miter"/>
   </g>
   <g id="patch_10">
    <path d="M 85.815552 155.17 
L 89.347625 155.17 
L 89.347625 155.17 
L 85.815552 155.17 
z
" clip-path="url(#pff30b5e0dd)" style="fill: #1f77b4; fill-opacity: 0.75; stroke: #000000; stroke-linejoin: miter"/>
   </g>
   <g id="patch_11">
    <path d="M 89.347625 155.17 
L 92.879699 155.17 
L 92.879699 122.653333 
L 89.347625 122.653333 
z
" clip-path="url(#pff30b5e0dd)" style="fill: #1f77b4; fill-opacity: 0.75; stroke: #000000; stroke-linejoin: miter"/>
   </g>
   <g id="patch_12">
    <path d="M 92.879699 155.17 
L 96.411772 155.17 
L 96.411772 90.136667 
L 92.879699 90.136667 
z
" clip-path="url(#pff30b5e0dd)" style="fill: #1f77b4; fill-opacity: 0.75; stroke: #000000; stroke-linejoin: miter"/>
   </g>
  </g>
  <g id="axes_5">
   <g id="patch_13">
    <path d="M 239.383028 310.24 
L 251.011474 310.24 
L 251.011474 212.69 
L 239.383028 212.69 
z
" clip-path="url(#pd03dabd340)" style="fill: #1f77b4; fill-opacity: 0.75; stroke: #000000; stroke-linejoin: miter"/>
   </g>
   <g id="patch_14">
    <path d="M 251.011474 310.24 
L 262.639921 310.24 
L 262.639921 212.69 
L 251.011474 212.69 
z
" clip-path="url(#pd03dabd340)" style="fill: #1f77b4; fill-opacity: 0.75; stroke: #000000; stroke-linejoin: miter"/>
   </g>
   <g id="patch_15">
    <path d="M 262.639921 310.24 
L 274.268367 310.24 
L 274.268367 310.24 
L 262.639921 310.24 
z
" clip-path="url(#pd03dabd340)" style="fill: #1f77b4; fill-opacity: 0.75; stroke: #000000; stroke-linejoin: miter"/>
   </g>
   <g id="patch_16">
    <path d="M 274.268367 310.24 
L 285.896814 310.24 
L 285.896814 310.24 
L 274.268367 310.24 
z
" clip-path="url(#pd03dabd340)" style="fill: #1f77b4; fill-opacity: 0.75; stroke: #000000; stroke-linejoin: miter"/>
   </g>
   <g id="patch_17">
    <path d="M 285.896814 310.24 
L 297.52526 310.24 
L 297.52526 310.24 
L 285.896814 310.24 
z
" clip-path="url(#pd03dabd340)" style="fill: #1f77b4; fill-opacity: 0.75; stroke: #000000; stroke-linejoin: miter"/>
   </g>
   <g id="patch_18">
    <path d="M 297.52526 310.24 
L 309.153707 310.24 
L 309.153707 277.723333 
L 297.52526 277.723333 
z
" clip-path="url(#pd03dabd340)" style="fill: #1f77b4; fill-opacity: 0.75; stroke: #000000; stroke-linejoin: miter"/>
   </g>
  </g>
 </g>
 <defs>
  <clipPath id="pc64c370ef9">
   <rect x="46.07" y="173.67" width="139.340577" height="136.57"/>
  </clipPath>
  <clipPath id="pff30b5e0dd">
   <rect x="46.07" y="18.6" width="139.340577" height="136.57"/>
  </clipPath>
  <clipPath id="pd03dabd340">
   <rect x="202.059423" y="173.67" width="139.340577" height="136.57"/>
  </clipPath>
 </defs>
</svg>
